<svg id="Capa_1" enable-background="new 0 0 512 512" height="512" viewBox="0 0 512 512" width="512" xmlns="http://www.w3.org/2000/svg"><g><path d="m413.536 78.772-8.869-10h-21.017l-9.498 10v20.269c0 10.557 8.558 19.115 19.115 19.115h1.154c10.557 0 19.115-8.558 19.115-19.115z" fill="#fee97d"/><path d="m403.85 115.67c-2.78 1.59-6 2.49-9.43 2.49h-1.15c-10.56 0-19.12-8.56-19.12-19.12v-20.27l9.5-10h20l-9.5 10v20.27c0 7.14 3.91 13.36 9.7 16.63z" fill="#fee45a"/><path d="m98.464 78.772 7.869-10h24.667l6.848 10v20.269c0 10.557-8.558 19.115-19.115 19.115h-1.154c-10.557 0-19.115-8.558-19.115-19.115z" fill="#fee97d"/><path d="m128.16 115.67c-2.78 1.59-6 2.49-9.43 2.49h-1.15c-10.56 0-19.12-8.56-19.12-19.12v-20.27l7.87-10h20l-7.87 10v20.27c0 7.14 3.91 13.36 9.7 16.63z" fill="#fee45a"/><path d="m418.228 78.772h-48.768c-8.284 0-15-6.716-15-15v-24.383l10.873-10h57.333l10.561 10v24.384c.001 8.284-6.715 14.999-14.999 14.999z" fill="#8ac9fe"/><path d="m392.37 49.686c-3.866 0-7 3.134-7 7v16.931c0 1.803.309 3.544.886 5.151h-16.339c-8.534 0-15.453-6.918-15.453-15.453v-23.931l11.869-10h56l10.899 10v10.302z" fill="#60b7ff"/><path d="m93.772 78.772h48.768c8.284 0 15-6.716 15-15v-24.383l-12.04-10h-54.605l-12.123 10v24.384c0 8.284 6.716 14.999 15 14.999z" fill="#8ac9fe"/><path d="m116.673 49.686c-3.866 0-7 3.134-7 7v16.931c0 1.803.309 3.544.886 5.151h-16.339c-8.53 0-15.453-6.912-15.453-15.453v-23.931l12.127-10h54.606l12.035 10v10.302z" fill="#60b7ff"/><path d="m452.919 7v25.384c0 3.866-3.134 7-7 7h-93.175c-26.383 0-49.665 13.258-63.552 33.481-8.509 12.393-13.495 27.403-13.495 43.577v80.488h-39.394v-80.488c0-31.657 12.64-60.379 33.162-81.364 21.129-21.644 50.633-35.078 83.279-35.078h93.175c3.866 0 7 3.134 7 7z" fill="#92a0b5"/><path d="m283.073 57.742c2.328 4.893 4.378 9.941 6.119 15.123-8.509 12.393-13.495 27.403-13.495 43.577v80.488h-39.394v-80.488c0-31.657 12.64-60.379 33.162-81.364 21.129-21.644 50.633-35.078 83.279-35.078h30.905c-42.896 0-80.374 23.21-100.576 57.742z" fill="#7d8ea5"/><path d="m275.69 116.44v287.4h-39.38v-287.4c0-42.55-34.5-77.05-77.05-77.05h-93.18c-3.87 0-7-3.14-7-7v-25.39c0-3.86 3.13-7 7-7h93.18c64.3 0 116.43 52.13 116.43 116.44z" fill="#92a0b5"/><path d="m66.081 0h13.604v39.384h-13.604c-3.866 0-7-3.134-7-7v-25.384c0-3.866 3.134-7 7-7z" fill="#7d8ea5"/><path d="m256.907 116.441v287.407h-20.604v-287.407c0-42.557-34.49-77.058-77.047-77.058h20.604c42.556.001 77.047 34.502 77.047 77.058z" fill="#7d8ea5"/><g><g><path d="m393.844 204.651c-4.267 0-7.726-3.459-7.726-7.726v-39.385c0-4.268 3.459-7.726 7.726-7.726s7.726 3.459 7.726 7.726v39.384c0 4.268-3.459 7.727-7.726 7.727z" fill="#92a0b5"/></g><g><path d="m447.152 179.191c-1.977 0-3.955-.755-5.463-2.262l-27.849-27.849c-3.018-3.018-3.018-7.91 0-10.928 3.017-3.016 7.909-3.016 10.927 0l27.849 27.849c3.018 3.018 3.018 7.91 0 10.928-1.509 1.508-3.487 2.262-5.464 2.262z" fill="#92a0b5"/></g><g><path d="m340.535 179.191c-1.977 0-3.955-.755-5.463-2.262-3.018-3.018-3.018-7.91 0-10.928l27.849-27.849c3.017-3.016 7.909-3.016 10.927 0 3.018 3.018 3.018 7.91 0 10.928l-27.849 27.849c-1.509 1.508-3.486 2.262-5.464 2.262z" fill="#92a0b5"/></g></g><g><g><path d="m118.156 204.651c-4.267 0-7.726-3.459-7.726-7.726v-39.385c0-4.268 3.459-7.726 7.726-7.726s7.726 3.459 7.726 7.726v39.384c.001 4.268-3.458 7.727-7.726 7.727z" fill="#92a0b5"/></g><g><path d="m64.848 179.191c-1.977 0-3.955-.755-5.463-2.262-3.018-3.018-3.018-7.91 0-10.928l27.849-27.849c3.017-3.016 7.91-3.016 10.927 0 3.018 3.018 3.018 7.91 0 10.928l-27.849 27.849c-1.509 1.508-3.486 2.262-5.464 2.262z" fill="#92a0b5"/></g><g><path d="m171.465 179.191c-1.977 0-3.955-.755-5.463-2.262l-27.849-27.849c-3.018-3.018-3.018-7.91 0-10.928 3.017-3.016 7.91-3.016 10.927 0l27.849 27.849c3.018 3.018 3.018 7.91 0 10.928-1.51 1.508-3.487 2.262-5.464 2.262z" fill="#92a0b5"/></g></g><path d="m236.31 373.84h39.38v30h-39.38z" fill="#7d8ea5"/><path d="m315.076 482.612h-118.152v-81.768c0-3.866 3.134-7 7-7h104.152c3.866 0 7 3.134 7 7z" fill="#8ac9fe"/><path d="m315.081 452.013v30.604h-118.162v-81.768c0-3.866 3.134-7 7-7h34.207v50.953c0 3.983 3.229 7.211 7.211 7.211z" fill="#60b7ff"/><path d="m354.46 511.996h-196.92v-32.384c0-3.866 3.134-7 7-7h182.92c3.866 0 7 3.134 7 7z" fill="#92a0b5"/><path d="m209.044 472.616v39.384h-51.509v-32.384c0-3.866 3.134-7 7-7z" fill="#7d8ea5"/></g></svg>