<svg id="Capa_1" enable-background="new 0 0 512 512" height="512" viewBox="0 0 512 512" width="512" xmlns="http://www.w3.org/2000/svg"><g><path d="m358.732 470.1h-205.464c-4.268 0-7.729 3.46-7.729 7.729 0 4.268 3.46 7.729 7.729 7.729h205.464c4.268 0 7.729-3.46 7.729-7.729-.001-4.269-3.461-7.729-7.729-7.729z" fill="#64758a"/><path d="m383.585 443.657 21.837 58.611c1.756 4.713-1.729 9.732-6.759 9.732h-36.815c-3.438 0-6.397-2.426-7.073-5.796l-12.531-62.546 21.713-10z" fill="#64758a"/><path d="m128.419 443.657-21.837 58.611c-1.756 4.713 1.729 9.732 6.759 9.732h36.815c3.438 0 6.398-2.426 7.073-5.796l12.531-62.546-20.913-10z" fill="#64758a"/><path d="m422.063 39.391h-16.302-228.55-87.271c-17.075 0-30.914 13.85-30.914 30.914v47.815l10.305 98.55-10.305 98.498v125.234c0 17.065 13.839 30.914 30.914 30.914h28.173l10.305-27.658h255.167l10.305 27.658h28.173c17.075 0 30.914-13.849 30.914-30.914v-125.235l-10.305-98.498 10.305-98.488v-47.876c0-17.065-13.839-30.914-30.914-30.914z" fill="#eaf6ff"/><path d="m118.801 469.466-.691 1.845h-28.173c-17.075 0-30.914-13.85-30.914-30.914v-125.235l10.308-98.493-10.308-98.489v-47.88c0-17.065 13.839-30.914 30.914-30.914h39.395c-17.075 0-30.914 13.85-30.914 30.914v370.096c0 13.366 8.491 24.763 20.383 29.07z" fill="#d8ecfe"/><path d="m170.211 394.408h-64.79c-3.866 0-7-3.134-7-7v-25.395c0-3.866 3.134-7 7-7h64.79c3.866 0 7 3.134 7 7v25.395c0 3.866-3.134 7-7 7z" fill="#fee97d"/><path d="m406.583 394.408h-64.79c-3.866 0-7-3.134-7-7v-25.395c0-3.866 3.134-7 7-7h64.79c3.866 0 7 3.134 7 7v25.395c0 3.866-3.134 7-7 7z" fill="#fee97d"/><path d="m59.026 118.181v196.986h224.856 33.718 135.377v-196.986z" fill="#64758a"/><path d="m59.023 118.176h39.395v196.986h-39.395z" fill="#5b6b7c"/><path d="m207.981 157.576h-33.686-75.874v118.186h315.161v-118.186z" fill="#8ac9fe"/><path d="m98.421 157.576h51.524v118.186h-51.524z" fill="#60b7ff"/><path d="m334.792 39.395v32.182c0 3.984-3.23 7.213-7.213 7.213h-143.155c-3.984 0-7.213-3.229-7.213-7.213v-32.182l13.944-34.861c1.096-2.738 3.748-4.534 6.698-4.534h116.297c2.95 0 5.602 1.796 6.697 4.534z" fill="#f07281"/><path d="m244.493 0h-46.64c-2.95 0-5.602 1.796-6.697 4.534l-13.944 34.861v32.182c0 3.984 3.229 7.213 7.213 7.213h44.311v-39.395z" fill="#eb5569"/><g fill="#92a0b5"><path d="m295.397 348.993h-78.791c-4.268 0-7.729 3.46-7.729 7.729 0 4.268 3.46 7.729 7.729 7.729h78.791c4.268 0 7.728-3.46 7.728-7.729.001-4.268-3.46-7.729-7.728-7.729z"/><path d="m295.397 384.971h-78.791c-4.268 0-7.729 3.46-7.729 7.729 0 4.268 3.46 7.729 7.729 7.729h78.791c4.268 0 7.728-3.46 7.728-7.729.001-4.269-3.46-7.729-7.728-7.729z"/><path d="m98.421 71.062c-4.268 0-7.729 3.46-7.729 7.729 0 4.268 3.46 7.728 7.729 7.728h39.395c4.268 0 7.729-3.46 7.729-7.728s-3.46-7.729-7.729-7.729z"/><path d="m366.459 78.791c0 4.268 3.46 7.728 7.729 7.728h39.395c4.268 0 7.728-3.46 7.728-7.728s-3.46-7.729-7.728-7.729h-39.395c-4.269 0-7.729 3.46-7.729 7.729z"/></g></g></svg>