<svg id="Capa_1" enable-background="new 0 0 512 512" height="512" viewBox="0 0 512 512" width="512" xmlns="http://www.w3.org/2000/svg"><g><path d="m170.754 149.776c4.218-9.658 6.573-20.315 6.573-31.527 0-43.553-35.307-78.86-78.861-78.86-43.553 0-78.86 35.307-78.86 78.86 0 11.212 2.355 21.869 6.573 31.527-16.242 17.557-26.172 41.037-26.172 66.84 0 54.378 44.082 98.46 98.46 98.46s98.46-44.082 98.46-98.46c-.001-25.803-9.931-49.283-26.173-66.84z" fill="#ade194"/><path d="m113.92 313.875c-5.027.793-10.199 1.205-15.453 1.205-54.383 0-98.465-44.092-98.465-98.465 0-25.806 9.931-49.284 26.177-66.838-4.213-9.663-6.573-20.315-6.573-31.534 0-43.546 35.304-78.86 78.861-78.86 5.285 0 10.456.525 15.453 1.525-36.16 7.17-63.408 39.075-63.408 77.336 0 11.219 2.359 21.871 6.572 31.534-16.246 17.554-26.177 41.032-26.177 66.838.001 49.119 35.975 89.842 83.013 97.259z" fill="#97da7b"/><g><path d="m98.467 283.418c-1.494 0-2.988-.433-4.286-1.298l-59.076-39.384c-3.55-2.367-4.51-7.164-2.143-10.714 2.368-3.551 7.164-4.509 10.714-2.143l54.791 36.527 54.79-36.527c3.55-2.366 8.347-1.408 10.714 2.143 2.367 3.55 1.407 8.348-2.143 10.714l-59.075 39.384c-1.298.865-2.792 1.298-4.286 1.298z" fill="#c68d7a"/></g><g><path d="m98.467 165.267c-2.049 0-4.014-.814-5.464-2.263l-39.384-39.384c-3.017-3.017-3.017-7.909 0-10.926 3.018-3.017 7.909-3.017 10.928 0l33.921 33.92 33.919-33.92c3.018-3.017 7.909-3.017 10.928 0 3.017 3.017 3.017 7.909 0 10.926l-39.383 39.384c-1.451 1.449-3.416 2.263-5.465 2.263z" fill="#c68d7a"/></g><path d="m118.16 97.89v414.11h-39.39v-414.11c0-10.56 8.56-19.12 19.12-19.12h1.15c3.34 0 6.47.85 9.2 2.36 5.91 3.25 9.92 9.54 9.92 16.76z" fill="#c68d7a"/><path d="m108.77 81.68c-5.64 3.45-9.4 9.69-9.4 16.78v413.54h-20.6v-414.11c0-10.56 8.56-19.12 19.12-19.12h1.15c3.34 0 6.47.85 9.2 2.36.16.24.34.43.53.55z" fill="#bc7c63"/><path d="m315.078 275.692h-32.146c-4.586 0-8.935 2.037-11.871 5.56l-164.486 197.383c-17.616 21.139-43.71 33.361-71.227 33.361h-28.13c-3.983 0-7.211-3.229-7.211-7.211v-24.97c0-3.979 3.224-7.207 7.203-7.211l37.422-.043c9.158-.01 17.84-4.082 23.704-11.117l159.866-191.785c17.616-21.133 43.707-33.351 71.218-33.351h15.658l10.302 8.36v23.351z" fill="#fee97d"/><path d="m315.078 78.772v196.919l7.726 10.302h23.184l8.473-10.302v-78.768c0-21.751 17.633-39.384 39.384-39.384 21.751 0 39.384 17.633 39.384 39.384v78.768l7.726 10.302h23.931l7.726-10.302v-196.919l-7.726-10.302h-139.862z" fill="#f07281"/><path d="m472.618 78.768v20.604h-111.177c-8.534 0-15.453 6.918-15.453 15.453v160.863h-30.905v-196.92z" fill="#eb5569"/><path d="m393.846.004c12.747 0 25.115 4.338 35.069 12.301l67.03 53.624c5.323 4.258 2.312 12.842-4.505 12.842h-195.188c-6.817 0-9.828-8.584-4.505-12.842l67.03-53.624c9.954-7.962 22.322-12.301 35.069-12.301z" fill="#8ac9fe"/><path d="m419.605 6.274c-3.276 1.679-6.398 3.698-9.323 6.037l-83.084 66.457h-30.949c-6.817 0-9.828-8.585-4.504-12.843l67.028-53.614c9.962-7.964 22.324-12.311 35.078-12.311 9.014 0 17.843 2.174 25.754 6.274z" fill="#60b7ff"/><path d="m496.545 275.692h-205.398c-8.534 0-15.453 6.918-15.453 15.453v205.398c0 8.534 6.918 15.453 15.453 15.453h205.398c8.534 0 15.453-6.918 15.453-15.453v-205.398c0-8.535-6.919-15.453-15.453-15.453zm-102.699 175.534c-32.608 0-59.042-26.434-59.042-59.042s26.434-59.042 59.042-59.042 59.042 26.434 59.042 59.042-26.434 59.042-59.042 59.042z" fill="#8ac9fe"/><path d="m327.198 496.547v-205.408c0-8.53 6.923-15.453 15.453-15.453h-51.509c-8.53 0-15.453 6.923-15.453 15.453v205.408c0 8.53 6.923 15.453 15.453 15.453h51.509c-8.53 0-15.453-6.923-15.453-15.453z" fill="#60b7ff"/><g fill="#eaf6ff"><g><path d="m315.078 322.802c-4.267 0-7.726-3.459-7.726-7.726 0-4.267 3.459-7.726 7.726-7.726 4.267 0 7.726 3.459 7.726 7.726.001 4.267-3.459 7.726-7.726 7.726z"/><path d="m472.614 322.802c-4.267 0-7.726-3.459-7.726-7.726 0-4.267 3.459-7.726 7.726-7.726 4.267 0 7.726 3.459 7.726 7.726 0 4.267-3.459 7.726-7.726 7.726z"/><path d="m315.078 480.27c-4.267 0-7.726-3.459-7.726-7.726 0-4.267 3.459-7.726 7.726-7.726 4.267 0 7.726 3.459 7.726 7.726.001 4.267-3.459 7.726-7.726 7.726z"/><path d="m472.614 480.27c-4.267 0-7.726-3.459-7.726-7.726 0-4.267 3.459-7.726 7.726-7.726 4.267 0 7.726 3.459 7.726 7.726 0 4.267-3.459 7.726-7.726 7.726z"/></g><g><path d="m354.462 125.883c-4.267 0-7.726-3.459-7.726-7.726 0-4.267 3.459-7.726 7.726-7.726 4.267 0 7.726 3.459 7.726 7.726 0 4.266-3.459 7.726-7.726 7.726z"/><path d="m433.23 125.883c-4.267 0-7.726-3.459-7.726-7.726 0-4.267 3.459-7.726 7.726-7.726 4.267 0 7.726 3.459 7.726 7.726 0 4.266-3.459 7.726-7.726 7.726z"/></g></g></g></svg>