<svg id="Capa_1" enable-background="new 0 0 512 512" height="512" viewBox="0 0 512 512" width="512" xmlns="http://www.w3.org/2000/svg"><g><ellipse cx="395.424" cy="78.769" fill="#8ac9fe" rx="39.385" ry="39.385" transform="matrix(.23 -.973 .973 .23 227.912 445.518)"/><path d="m410.882 115.007c-4.749 2.019-9.973 3.142-15.453 3.142-21.758 0-39.384-17.627-39.384-39.384 0-21.748 17.627-39.385 39.384-39.385 5.48 0 10.704 1.123 15.453 3.152-14.073 6.006-23.932 19.965-23.932 36.232s9.859 30.237 23.932 36.243z" fill="#60b7ff"/><path d="m395.427 354.46v99.04c0 7.03-3.8 13.18-9.45 16.49-2.84 1.67-6.14 2.63-9.67 2.63h-1.15c-10.56 0-19.12-8.56-19.12-19.12v-99.04z" fill="#8ac9fe"/><path d="m386.037 469.7c-.02.1-.04.19-.06.29-2.84 1.67-6.14 2.63-9.67 2.63h-1.15c-10.56 0-19.12-8.56-19.12-19.12v-98.96l.01-.07h20.6v98.45c0 7.1 3.75 13.32 9.39 16.78z" fill="#60b7ff"/><path d="m434.807 354.46v99.04c0 7.02-3.79 13.16-9.43 16.47-2.84 1.69-6.15 2.65-9.68 2.65h-1.16c-10.55 0-19.11-8.56-19.11-19.12v-99.04z" fill="#8ac9fe"/><path d="m425.417 469.7c-.01.09-.02.18-.04.27-2.84 1.69-6.15 2.65-9.68 2.65h-1.16c-10.55 0-19.11-8.56-19.11-19.12v-99.03h20.61v98.45c0 7.1 3.75 13.33 9.38 16.78z" fill="#60b7ff"/><path d="m117.507 315.08v138.42c0 7.24-4.03 13.55-9.97 16.78-.01 0-.01 0-.01.01-2.71 1.49-5.82 2.33-9.13 2.33h-1.16c-10.55 0-19.11-8.56-19.11-19.12v-138.42z" fill="#8ac9fe"/><path d="m108.117 469.7c-.19.12-.38.31-.58.58-.01 0-.01 0-.01.01-2.71 1.49-5.82 2.33-9.13 2.33h-1.16c-10.55 0-19.11-8.56-19.11-19.12v-138.42h20.6v137.84c0 7.1 3.76 13.32 9.39 16.78z" fill="#60b7ff"/><path d="m237.885 0h39.384v512h-39.384z" fill="#f07281"/><ellipse cx="117.509" cy="78.769" fill="#8ac9fe" rx="39.385" ry="39.385" transform="matrix(.707 -.707 .707 .707 -21.281 106.163)"/><path d="m132.965 115.007c-4.739 2.019-9.962 3.142-15.453 3.142-21.758 0-39.384-17.627-39.384-39.384 0-21.748 17.627-39.385 39.384-39.385 5.491 0 10.714 1.123 15.453 3.152-14.073 6.006-23.932 19.965-23.932 36.232s9.859 30.237 23.932 36.243z" fill="#60b7ff"/><path d="m196.277 197.54v110.54c0 3.86-3.13 7-7 7h-143.54c-3.86 0-7-3.14-7-7v-110.54c0-22.09 17.91-40 40-40h77.54c22.09 0 40 17.91 40 40z" fill="#8ac9fe"/><path d="m99.497 157.54c-22.27.57-40.15 18.8-40.15 41.2v116.34h-13.61c-3.86 0-7-3.14-7-7v-110.54c0-22.09 17.91-40 40-40z" fill="#60b7ff"/><path d="m156.897 315.08v138.42c0 7.32-4.12 13.69-10.17 16.89-2.67 1.43-5.71 2.23-8.95 2.23h-1.15c-10.56 0-19.12-8.56-19.12-19.12v-138.42z" fill="#8ac9fe"/><path d="m147.507 469.7c-.25.15-.51.39-.78.69-2.67 1.43-5.71 2.23-8.95 2.23h-1.15c-10.56 0-19.12-8.56-19.12-19.12v-138.32l.01-.1h20.6v137.84c0 7.1 3.76 13.33 9.39 16.78z" fill="#60b7ff"/><g><path d="m85.847 196.92v118.16h-15.45v-118.16c0-4.26 3.46-7.72 7.73-7.72s7.72 3.46 7.72 7.72z" fill="#60b7ff"/></g><g><path d="m164.617 196.92v118.16h-15.45v-118.16c0-4.26 3.46-7.72 7.73-7.72 4.26 0 7.72 3.46 7.72 7.72z" fill="#60b7ff"/></g><path d="m466.267 315.08h-31.46l5.21 5.21 22.23 22.22c4.41 4.41 1.28 11.95-4.95 11.95h-124.74c-6.09 0-9.27-7.24-5.16-11.73l20.11-21.96 5.21-5.69h-28.13c-4.21 0-7.47-3.69-6.95-7.87l14.2-113.57c2.58-20.63 20.11-36.1 40.89-36.1h45.4c20.78 0 38.31 15.47 40.89 36.1l14.19 113.57c.53 4.18-2.73 7.87-6.94 7.87z" fill="#8ac9fe"/><path d="m352.717 315.082h20.604l-36.057 39.385h-4.705c-6.089 0-9.275-7.236-5.163-11.727z" fill="#60b7ff"/><path d="m337.264 315.082h-12.675c-4.21 0-7.468-3.69-6.946-7.868l14.192-113.582c2.576-20.614 20.109-36.098 40.889-36.098h20.604c-20.779 0-38.313 15.484-40.889 36.098z" fill="#60b7ff"/><g><path d="m376.557 198.16-16.21 118.16c-.62 3.79-3.9 6.48-7.62 6.48-.41 0-.83-.03-1.25-.1-1.54-.25-2.9-.94-3.97-1.93l5.21-5.69h-7.72c0-.41.03-.83.1-1.24l16.21-118.16c.68-4.21 4.65-7.07 8.86-6.38 4.22.68 7.07 4.65 6.39 8.86z" fill="#60b7ff"/></g><g><path d="m434.807 315.08 5.21 5.21c-1.18 1.31-2.82 2.21-4.72 2.45-.33.04-.66.06-.98.06-3.83 0-7.16-2.85-7.66-6.75l-13-118.15c-.54-4.24 2.46-8.1 6.69-8.64s8.1 2.46 8.64 6.69l13 118.15c.04.33.06.65.06.98z" fill="#60b7ff"/></g></g></svg>