<svg id="Capa_1" enable-background="new 0 0 511.991 511.991" height="512" viewBox="0 0 511.991 511.991" width="512" xmlns="http://www.w3.org/2000/svg"><g><path d="m255.996 74.403h50.345c3.866 0 7-3.134 7-7v-24.23c0-3.866-3.134-7-7-7h-50.345z" fill="#f07281"/><path d="m351.576 208.208v19.12l-13.58 10h-163.5l-14.08-10v-19.12c0-48.1 35.55-87.92 81.81-94.59 4.5-.65 9.09-.99 13.77-.99s9.27.34 13.77.99c20.88 3.01 39.58 12.78 53.81 27.01 17.3 17.29 28 41.19 28 67.58z" fill="#eaf6ff"/><path d="m389.801 265.553h-267.611v-31.23c0-3.866 3.134-7 7-7h253.611c3.866 0 7 3.134 7 7z" fill="#8ac9fe"/><path d="m466.261 456.704-10.515 10h-91l-13.175-10v-191.151h114.69z" fill="#eaf6ff"/><path d="m428.031 456.704-7.035 10h-24.5l-6.695-10v-114.691l7.445-10h24.25l6.535 10z" fill="#8ac9fe"/><g fill="#5f99d7"><path d="m236.88 303.783h-38.23l-10-5.954v-24.776l10-7.5h38.23l10 7.5v25.109z"/><path d="m313.341 303.783h-38.23l-10-5.621v-25.109l10-7.5h38.23l10 7.5v25.776z"/><path d="m236.88 456.701h-38.23l-10-4.487v-27.166l10-6.577h38.23l10 6.743v27.834z"/><path d="m313.341 456.701h-38.23l-10-5.487v-27l10-5.743h38.23l10 5.41v27.5z"/></g><path d="m198.65 456.704-7.154 10h-23.5l-7.576-10v-191.151h38.23z" fill="#8ac9fe"/><path d="m275.111 456.704-8.115 10h-21.5l-8.615-10v-191.151h38.23z" fill="#8ac9fe"/><path d="m351.571 456.704-8.075 10h-21.75l-8.405-10v-191.151h38.23z" fill="#8ac9fe"/><path d="m160.42 456.704-9.674 10h-95.75l-9.266-10v-191.151h114.69z" fill="#eaf6ff"/><g><path d="m504.491 273.053h-496.991c-4.142 0-7.5-3.358-7.5-7.5s3.358-7.5 7.5-7.5h496.991c4.142 0 7.5 3.358 7.5 7.5s-3.358 7.5-7.5 7.5z" fill="#5f99d7"/></g><path d="m122.19 456.704-5.694 10h-25.5l-7.036-10v-114.691l8.786-10h21.75l7.694 10z" fill="#8ac9fe"/><path d="m83.96 303.783h38.23v38.23h-38.23z" fill="#5f99d7"/><path d="m389.801 303.783h38.23v38.23h-38.23z" fill="#5f99d7"/><g><path d="m255.996 120.133c-4.142 0-7.5-3.358-7.5-7.5v-95.576c0-4.142 3.358-7.5 7.5-7.5s7.5 3.358 7.5 7.5v95.575c0 4.143-3.358 7.501-7.5 7.501z" fill="#64758a"/></g><g><g><path d="m303.906 219.548-2.4 9.59c-1.01 4.02-5.08 6.47-9.1 5.46-4.02-1-6.46-5.08-5.46-9.09l2.4-9.6c8.82-35.27-4.54-72.43-33.35-94.09-28.81 21.66-42.17 58.82-33.35 94.09l2.4 9.6c1 4.01-1.44 8.09-5.46 9.09-.61.15-1.22.23-1.83.23-3.36 0-6.41-2.28-7.27-5.69l-2.4-9.59c-9.78-39.13 3.85-80.27 34.14-105.93 4.5-.65 9.09-.99 13.77-.99s9.27.34 13.77.99c30.29 25.66 43.92 66.8 34.14 105.93z" fill="#8ac9fe"/></g></g><path d="m351.571 494.934h-191.151l-10-5.246v-26.75l10-6.234h191.151l10 6.734v25.25z" fill="#eaf6ff"/><path d="m351.571 456.704h114.69v38.23h-114.69z" fill="#5f99d7"/><path d="m45.73 456.704h114.69v38.23h-114.69z" fill="#5f99d7"/><g><path d="m504.491 502.434h-496.991c-4.142 0-7.5-3.358-7.5-7.5s3.358-7.5 7.5-7.5h496.991c4.142 0 7.5 3.358 7.5 7.5s-3.358 7.5-7.5 7.5z" fill="#5f99d7"/></g></g></svg>