<svg id="Capa_1" enable-background="new 0 0 512 512" height="512" viewBox="0 0 512 512" width="512" xmlns="http://www.w3.org/2000/svg"><g><path d="m275.695 512v-39.384l-8.484-10.302h-23.174l-7.727 10.302v39.384z" fill="#92a0b5"/><path d="m315.079 39.389-9.284 10.302h-98.898l-9.971-10.302c0-21.751 17.633-39.384 39.384-39.384h39.385c21.751-.001 39.384 17.632 39.384 39.384z" fill="#64758a"/><path d="m315.079 433.232-19.692-10.302h-81.622l-16.839 10.302c0 21.751 17.633 39.384 39.384 39.384h39.385c21.751 0 39.384-17.633 39.384-39.384z" fill="#64758a"/><path d="m267.211 0c-10.879 0-20.717 4.409-27.846 11.538s-11.538 16.978-11.538 27.846h-30.906c0-10.869 4.409-20.717 11.538-27.846s16.968-11.538 27.846-11.538z" fill="#5b6b7c"/><path d="m267.211 472.62h-30.906c-10.879 0-20.717-4.409-27.846-11.538s-11.538-16.967-11.538-27.846h30.906c0 10.879 4.409 20.717 11.538 27.846s16.967 11.538 27.846 11.538z" fill="#5b6b7c"/><path d="m354.463 78.773h71.362c4.12 0 7.41 3.451 7.21 7.566-1.577 32.313-12.671 56.934-37.601 70.372-1.033.557-2.2.83-3.374.83h-37.597l-10.302-8.679v-61.467z" fill="#64758a"/><g><path d="m157.539 78.773h-71.363c-4.12 0-7.41 3.451-7.21 7.566 1.577 32.313 12.671 56.934 37.601 70.372 1.033.557 2.2.83 3.374.83h37.597l10.302-8.679v-61.467z" fill="#64758a"/><path d="m150.851 157.537h-30.906c-1.174 0-2.349-.268-3.379-.824-24.931-13.444-36.026-38.055-37.602-70.372-.196-4.121 3.091-7.572 7.211-7.572h30.906c-4.121 0-7.407 3.451-7.211 7.572 1.576 32.317 12.671 56.928 37.602 70.372 1.03.556 2.205.824 3.379.824z" fill="#5b6b7c"/></g><g><path d="m157.539 196.926h-71.363c-4.12 0-7.41 3.451-7.21 7.566 1.577 32.314 12.671 56.934 37.601 70.372 1.033.557 2.2.83 3.374.83h37.597l10.302-8.679v-61.468z" fill="#64758a"/><path d="m150.851 275.689h-30.906c-1.174 0-2.349-.268-3.379-.824-24.931-13.444-36.026-38.055-37.602-70.372-.196-4.121 3.091-7.572 7.211-7.572h30.906c-4.121 0-7.407 3.451-7.211 7.572 1.576 32.317 12.671 56.928 37.602 70.372 1.03.557 2.205.824 3.379.824z" fill="#5b6b7c"/></g><g><path d="m157.539 315.086h-71.363c-4.12 0-7.41 3.451-7.21 7.566 1.577 32.314 12.671 56.934 37.601 70.372 1.033.557 2.2.83 3.374.83h37.597l10.302-8.679v-61.468z" fill="#64758a"/><path d="m150.851 393.849h-30.906c-1.174 0-2.349-.268-3.379-.824-24.931-13.444-36.026-38.055-37.602-70.372-.196-4.121 3.091-7.572 7.211-7.572h30.906c-4.121 0-7.407 3.451-7.211 7.572 1.576 32.317 12.671 56.928 37.602 70.372 1.03.557 2.205.824 3.379.824z" fill="#5b6b7c"/></g><path d="m354.468 78.768h30.906v78.768h-30.906z" fill="#5b6b7c"/><g><path d="m354.463 196.928h71.362c4.12 0 7.41 3.451 7.21 7.566-1.577 32.314-12.671 56.934-37.601 70.372-1.033.557-2.2.831-3.374.831h-37.597l-10.302-8.679v-61.468z" fill="#64758a"/><path d="m354.468 196.923h30.906v78.768h-30.906z" fill="#5b6b7c"/></g><g><path d="m354.463 315.081h71.362c4.12 0 7.41 3.451 7.21 7.566-1.577 32.313-12.671 56.934-37.601 70.372-1.033.557-2.2.831-3.374.831h-37.597l-10.302-8.679v-61.468z" fill="#64758a"/><path d="m354.468 315.076h30.906v78.768h-30.906z" fill="#5b6b7c"/></g><path d="m354.46 54.39v363.84c0 8.29-6.71 15-15 15h-166.92c-8.28 0-15-6.71-15-15v-363.84c0-8.29 6.72-15 15-15h166.92c8.29 0 15 6.71 15 15z" fill="#92a0b5"/><path d="m224.11 433.23h-51.57c-8.28 0-15-6.71-15-15v-363.84c0-8.29 6.72-15 15-15h51.57c-8.35.2-15.06 7.05-15.06 15.45v362.94c0 8.4 6.71 15.25 15.06 15.45z" fill="#7d8ea5"/><ellipse cx="256.003" cy="118.157" fill="#f07281" rx="39.384" ry="39.384" transform="matrix(.707 -.707 .707 .707 -8.568 215.629)"/><path d="m271.456 154.395c-4.739 2.019-9.962 3.142-15.453 3.142-21.747 0-39.384-17.626-39.384-39.384 0-21.747 17.637-39.384 39.384-39.384 5.491 0 10.714 1.123 15.453 3.142-14.072 6.016-23.931 19.975-23.931 36.242s9.858 30.225 23.931 36.242z" fill="#eb5569"/><circle cx="256.003" cy="236.31" fill="#fee97d" r="39.384"/><path d="m271.456 272.557c-4.739 2.019-9.962 3.142-15.453 3.142-21.747 0-39.384-17.637-39.384-39.384 0-21.758 17.637-39.394 39.384-39.394 5.491 0 10.714 1.123 15.453 3.152-14.072 6.006-23.931 19.975-23.931 36.242s9.858 30.226 23.931 36.242z" fill="#fee45a"/><ellipse cx="256.003" cy="354.463" fill="#ade194" rx="39.384" ry="39.384" transform="matrix(.707 -.707 .707 .707 -175.662 284.841)"/><path d="m271.456 390.7c-4.739 2.03-9.962 3.153-15.453 3.153-21.747 0-39.384-17.637-39.384-39.384 0-21.758 17.637-39.384 39.384-39.384 5.491 0 10.714 1.123 15.453 3.142-14.072 6.016-23.931 19.975-23.931 36.242-.001 16.265 9.858 30.225 23.931 36.231z" fill="#97da7b"/></g></svg>