<svg id="Capa_1" enable-background="new 0 0 512 512" height="512" viewBox="0 0 512 512" width="512" xmlns="http://www.w3.org/2000/svg"><g><path d="m413.539 220.481c-54.379 0-98.462 44.083-98.462 98.462s44.083 98.462 98.462 98.462 98.461-44.083 98.461-98.462-44.083-98.462-98.461-98.462zm0 157.538c-32.627 0-59.077-26.45-59.077-59.077s26.45-59.077 59.077-59.077 59.077 26.45 59.077 59.077-26.45 59.077-59.077 59.077z" fill="#92a0b5"/><path d="m98.461 220.481c-54.378 0-98.461 44.083-98.461 98.462s44.083 98.462 98.461 98.462 98.462-44.083 98.462-98.462-44.083-98.462-98.462-98.462zm0 157.538c-32.627 0-59.077-26.45-59.077-59.077s26.45-59.077 59.077-59.077 59.077 26.45 59.077 59.077-26.449 59.077-59.077 59.077z" fill="#92a0b5"/><path d="m411.145 297.934-61.799-116.589 25.154-41.345c2.21-3.65 1.041-8.401-2.609-10.611-3.651-2.209-8.402-1.042-10.611 2.61l-25.167 41.366h-162.997l30.836-67.846c1.087-2.391.885-5.171-.538-7.38-1.422-2.209-3.869-3.543-6.496-3.543h-59.072c-15.121 0-27.424 12.302-27.424 27.424 0 7.334 2.856 14.22 8.032 19.381 5.18 5.18 12.067 8.032 19.392 8.032 4.267 0 7.727-3.459 7.727-7.727 0-4.267-3.459-7.727-7.727-7.727-3.198 0-6.204-1.245-8.473-3.514-2.256-2.249-3.498-5.249-3.498-8.446 0-6.601 5.37-11.971 11.971-11.971h47.073l-85.342 187.772c-1.766 3.884-.048 8.465 3.837 10.23 1.037.471 2.123.695 3.192.695 2.937 0 5.744-1.684 7.038-4.531l48.886-107.56 71.048 102.117c1.501 2.159 3.905 3.314 6.349 3.314 1.523 0 3.061-.449 4.405-1.384 3.503-2.437 4.367-7.253 1.93-10.755l-70.36-101.128h150.858l-60.664 100.235c-.811 1.223-1.284 2.69-1.284 4.268 0 4.267 3.464 7.727 7.732 7.727 2.703 0 5.21-1.413 6.61-3.726l60.868-100.571 57.468 108.421c1.387 2.617 4.065 4.109 6.834 4.109 1.22 0 2.458-.29 3.612-.901 3.77-1.999 5.207-6.675 3.209-10.446z" fill="#64758a"/><g><path d="m286.991 326.669c-4.268 0-7.726-3.459-7.726-7.727s3.459-7.727 7.726-7.727h106.855c4.268 0 7.727 3.459 7.727 7.727 0 4.267-3.459 7.727-7.727 7.727z" fill="#64758a"/></g><g fill="#8ac9fe"><ellipse cx="98.461" cy="318.943" rx="19.692" ry="19.692" transform="matrix(.159 -.987 .987 .159 -232.089 365.371)"/><ellipse cx="413.538" cy="318.943" rx="19.692" ry="19.692" transform="matrix(.23 -.973 .973 .23 8.116 648.141)"/><path d="m413.54 121.44v1.16c0 10.55-8.56 19.11-19.12 19.11h-60.23c-10.55 0-19.11-8.56-19.11-19.11v-1.16c0-10.55 8.56-19.11 19.11-19.11h60.23c10.56 0 19.12 8.56 19.12 19.11z"/></g><path d="m365.67 141.71h-31.48c-10.55 0-19.11-8.56-19.11-19.11v-1.16c0-10.55 8.56-19.11 19.11-19.11h31.14c-5.3.08-10.09 2.27-13.58 5.76-3.56 3.57-5.76 8.49-5.76 13.93 0 10.88 8.81 19.69 19.68 19.69z" fill="#60b7ff"/><circle cx="257.025" cy="318.943" fill="#8ac9fe" r="29.966"/><path d="m275.692 370.293h-10.941v-51.35c0-4.267-3.459-7.727-7.727-7.727-4.267 0-7.727 3.459-7.727 7.727v51.35h-12.991c-4.267 0-7.726 3.459-7.726 7.727 0 4.267 3.459 7.727 7.726 7.727h39.385c4.268 0 7.727-3.459 7.727-7.727.001-4.268-3.458-7.727-7.726-7.727z" fill="#64758a"/></g></svg>