<svg id="Capa_1" enable-background="new 0 0 512 512" height="512" viewBox="0 0 512 512" width="512" xmlns="http://www.w3.org/2000/svg"><g><path d="m423.535 438.037-10 31.225h-.01c-3.255-1.308-6.408 7.033-9.405 5.035l-.855-.577c-8.808-5.872-18.966-18.808-29.113-18.808v-16.874c0-32.636-13.228-62.171-34.604-83.548-21.387-21.387-50.922-34.604-83.548-34.604-65.252 0-118.152 52.889-118.152 118.151v16.874c-10.147 0-20.305 12.936-29.113 18.808l-.855.577c-2.998 1.999-6.16-6.343-9.416-5.024l-10-31.235c0-87.009 80.526-167.546 167.535-167.546 43.504 0 82.893 17.632 111.393 46.142 28.507 28.516 56.143 77.9 56.143 121.404z" fill="#fedba6"/><path d="m492.303 455.488v-253.764l-19.691-10h-437.462l-15.453 10v253.764l78.768 33.504v-50.955c0-87.009 70.526-157.546 157.535-157.546 43.504 0 82.888 17.637 111.393 46.142 28.505 28.515 46.142 67.899 46.142 111.404v50.955z" fill="#c68d7a"/><path d="m492.303 201.724v20.604h-413.886c-3.983 0-7.211 3.229-7.211 7.211v246.553l27.259 11.589v1.308l-78.768-33.501v-253.764l15.453-10h437.462z" fill="#bc7c63"/><g fill="#c68d7a"><path d="m118.156 73.577h39.384v98.768h-39.384z"/><path d="m275.692 73.577h39.384v98.768h-39.384z"/><path d="m433.228 73.577h39.384v98.768h-39.384z"/><path d="m39.388 73.577h39.384v98.768h-39.384z"/><path d="m196.924 73.577h39.384v98.768h-39.384z"/><path d="m354.46 73.577h39.384v98.768h-39.384z"/></g><path d="m118.151 73.572h20.604v98.768h-20.604z" fill="#bc7c63"/><path d="m275.687 73.572h20.604v98.768h-20.604z" fill="#bc7c63"/><path d="m433.232 73.572h20.604v98.768h-20.604z" fill="#bc7c63"/><path d="m39.384 73.572h20.604v98.768h-20.604z" fill="#bc7c63"/><path d="m196.919 73.572h20.604v98.768h-20.604z" fill="#bc7c63"/><path d="m354.465 73.572h20.604v98.768h-20.604z" fill="#bc7c63"/><path d="m98.464 162.345h78.768v39.384h-78.768z" fill="#fedba6"/><path d="m98.465 162.34h30.905v39.384h-30.905z" fill="#fece85"/><path d="m256 162.345h78.768v39.384h-78.768z" fill="#fedba6"/><path d="m256 162.34h30.905v39.384h-30.905z" fill="#fece85"/><path d="m492.303 201.729h-78.768v-39.384h71.768c3.866 0 7 3.134 7 7z" fill="#fedba6"/><path d="m413.535 162.34h30.905v39.384h-30.905z" fill="#fece85"/><path d="m98.464 201.729h-78.768v-32.384c0-3.866 3.134-7 7-7h71.768z" fill="#fedba6"/><path d="m50.602 162.34v39.384h-30.905v-32.384c0-3.866 3.134-7 7-7z" fill="#fece85"/><path d="m177.232 162.345h78.768v39.384h-78.768z" fill="#fedba6"/><path d="m177.232 162.34h30.905v39.384h-30.905z" fill="#fece85"/><path d="m334.768 162.345h78.768v39.384h-78.768z" fill="#fedba6"/><path d="m334.768 162.34h30.905v39.384h-30.905z" fill="#fece85"/><path d="m0 493.762c6.552-2.792 13.547-4.193 20.552-4.193 10.137 0 20.284 2.936 29.113 8.818 2.998 1.999 6.15 3.657 9.416 4.966 15.875 6.439 34.171 4.78 48.8-4.966l.855-.577c8.808-5.882 18.966-8.818 29.113-8.818s20.305 2.936 29.113 8.818l.855.577c14.629 9.746 32.925 11.404 48.8 4.966 3.266-1.308 6.418-2.967 9.416-4.966l.855-.577c17.626-11.754 40.599-11.754 58.226 0l.855.577c2.998 1.999 6.15 3.657 9.416 4.966 15.875 6.439 34.171 4.78 48.8-4.966l.855-.577c8.808-5.882 18.966-8.818 29.113-8.818s20.305 2.936 29.113 8.818l.855.577c8.818 5.872 18.955 8.808 29.113 8.808 6.686 0 13.382-1.277 19.687-3.842 3.266-1.308 6.418-2.967 9.416-4.966 14.917-9.952 33.615-11.456 49.665-4.625v-34.078c-16.05-6.84-34.748-5.336-49.665 4.615-2.998 1.999-6.15 3.657-9.416 4.965-6.305 2.575-13.001 3.853-19.687 3.853-10.158 0-20.295-2.946-29.113-8.818l-.855-.577c-8.808-5.872-18.966-8.808-29.113-8.808s-20.305 2.936-29.113 8.808l-.855.577c-14.629 9.756-32.925 11.414-48.8 4.965-3.266-1.308-6.418-2.967-9.416-4.965l-.855-.577c-17.626-11.744-40.599-11.744-58.226 0l-.855.577c-2.998 1.999-6.15 3.657-9.416 4.965-15.875 6.449-34.171 4.79-48.8-4.965l-.855-.577c-8.808-5.872-18.966-8.808-29.113-8.808s-20.305 2.936-29.113 8.808l-.855.577c-14.629 9.756-32.925 11.414-48.8 4.965-3.266-1.308-6.418-2.967-9.416-4.965-8.818-5.882-18.966-8.818-29.103-8.818-7.005 0-14.01 1.401-20.562 4.203v34.078z" fill="#8ac9fe"/><path d="m485.303 4.809h-458.607c-3.866 0-7 3.134-7 7v32.384l15.453 10h437.462l19.692-10v-32.384c0-3.866-3.134-7-7-7z" fill="#c68d7a"/><path d="m71.206 4.805v49.384h-36.056l-15.453-10v-32.384c0-3.866 3.134-7 7-7z" fill="#bc7c63"/><path d="m98.464 44.193h78.768v39.384h-78.768z" fill="#fedba6"/><path d="m98.465 44.188h30.905v39.384h-30.905z" fill="#fece85"/><path d="m256 44.193h78.768v39.384h-78.768z" fill="#fedba6"/><path d="m256 44.188h30.905v39.384h-30.905z" fill="#fece85"/><path d="m485.303 83.577h-71.768v-39.384h78.768v32.384c0 3.866-3.134 7-7 7z" fill="#fedba6"/><path d="m413.535 44.188h30.905v39.384h-30.905z" fill="#fece85"/><path d="m98.464 83.577h-71.768c-3.866 0-7-3.134-7-7v-32.384h78.768z" fill="#fedba6"/><path d="m50.602 44.188v39.384h-23.905c-3.866 0-7-3.134-7-7v-32.384z" fill="#fece85"/><path d="m177.232 44.193h78.768v39.384h-78.768z" fill="#fedba6"/><path d="m177.232 44.193h78.768v39.384h-78.768z" fill="#fedba6"/><path d="m177.232 44.188h30.905v39.384h-30.905z" fill="#fece85"/><path d="m334.768 44.193h78.768v39.384h-78.768z" fill="#fedba6"/><path d="m334.768 44.188h30.905v39.384h-30.905z" fill="#fece85"/></g></svg>