<svg id="Capa_1" enable-background="new 0 0 512 512" height="512" viewBox="0 0 512 512" width="512" xmlns="http://www.w3.org/2000/svg"><g><path d="m512 403.787c0 16.256-13.186 29.443-29.443 29.443h-141.928c-23.54 0-42.619-19.089-42.619-42.619 0-23.54 19.079-42.629 42.619-42.629 4.667 0 9.148.762 13.351 2.153 1.216-14.072 9.406-26.156 21.088-32.78 6.068-3.431 13.083-5.388 20.552-5.388 21.685 0 39.507 16.504 41.609 37.633 4.584-2.946 10.034-4.687 15.896-4.687 16.256 0 29.432 13.186 29.432 29.443 16.257-.001 29.443 13.175 29.443 29.431z" fill="#ade194"/><path d="m414.452 380.454v52.776h-73.823c-24.523 0-44.205-20.718-42.518-45.59 1.424-20.979 18.339-37.976 39.308-39.538 5.825-.434 11.402.327 16.56 2.033 1.216-14.072 9.406-26.156 21.088-32.78v9.292c0 3.983 3.229 7.211 7.211 7.211h5.264c3.983 0 7.211 3.229 7.211 7.211v24.961c0 3.983 3.229 7.211 7.211 7.211h5.275c3.985.002 7.213 3.23 7.213 7.213z" fill="#97da7b"/><path d="m354.46 174.35v190.11h-196.92v-190.11c0-41.19 26.05-76.28 62.56-89.72 10.29-3.79 21.41-5.86 33.02-5.86h5.76c52.79 0 95.58 42.79 95.58 95.58z" fill="#92a0b5"/><path d="m354.46 333.86v30.6h-196.92v-190.11c0-41.19 26.05-76.28 62.56-89.72-17.11 18.02-31.66 45.81-31.66 72v170.02c0 3.98 3.23 7.21 7.21 7.21z" fill="#7d8ea5"/><path d="m307.865 177.23h-24.961c-3.983 0-7.211-3.229-7.211-7.211v-24.961c0-3.983-3.229-7.211-7.211-7.211h-24.961c-3.983 0-7.211 3.229-7.211 7.211v24.961c0 3.983-3.229 7.211-7.211 7.211h-24.962c-3.983 0-7.211 3.229-7.211 7.211v24.962c0 3.983 3.229 7.211 7.211 7.211h24.962c3.983 0 7.211 3.229 7.211 7.211v64.345c0 3.983 3.229 7.211 7.211 7.211h24.961c3.983 0 7.211-3.229 7.211-7.211v-64.345c0-3.983 3.229-7.211 7.211-7.211h24.961c3.983 0 7.211-3.229 7.211-7.211v-24.962c0-3.983-3.229-7.211-7.211-7.211z" fill="#fedba6"/><path d="m374.151 361.462v32.384l-17.92 10h-198.696l-19.687-10v-39.384h229.303c3.866 0 7 3.134 7 7z" fill="#64758a"/><path d="m393.849 400.846v32.384h-275.698v-39.384h268.697c3.867 0 7.001 3.134 7.001 7z" fill="#92a0b5"/><path d="m234.51 393.846c-.762 15.133-6.871 28.876-16.483 39.384h-99.876v-39.384z" fill="#7d8ea5"/><path d="m234.593 390.611c0 1.082-.031 2.163-.082 3.235h-96.662v-39.384h85.361c7.169 10.251 11.383 22.726 11.383 36.149z" fill="#5b6b7c"/><path d="m171.367 347.988c-4.665 0-9.15.76-13.351 2.145-1.85-21.381-19.781-38.162-41.642-38.162-21.681 0-39.505 16.503-41.602 37.632-4.588-2.953-10.035-4.686-15.896-4.686-16.257 0-29.436 13.179-29.436 29.436-16.257 0-29.436 13.179-29.436 29.436s13.179 29.436 29.436 29.436h141.927c23.538 0 42.619-19.081 42.619-42.619s-19.081-42.618-42.619-42.618z" fill="#ade194"/><path d="m142.134 320.837c-8.746 6.851-14.69 17.101-15.854 28.763-4.584-2.946-10.034-4.687-15.896-4.687-16.256 0-29.432 13.186-29.432 29.443-16.256 0-29.443 13.176-29.443 29.432s13.186 29.443 29.443 29.443h-51.509c-16.257-.001-29.443-13.187-29.443-29.444 0-16.256 13.186-29.432 29.443-29.432 0-16.256 13.176-29.443 29.432-29.443 5.862 0 11.311 1.741 15.896 4.687 2.102-21.129 19.924-37.633 41.609-37.633 9.714.001 18.666 3.319 25.754 8.871z" fill="#97da7b"/></g></svg>