<svg id="Capa_1" enable-background="new 0 0 512 512" height="512" viewBox="0 0 512 512" width="512" xmlns="http://www.w3.org/2000/svg"><g><g><path d="m431.227 54.022c-4.204 0-7.611-3.408-7.611-7.612v-38.798c0-4.204 3.407-7.612 7.611-7.612s7.612 3.408 7.612 7.612v38.798c0 4.204-3.407 7.612-7.612 7.612z" fill="#92a0b5"/></g><path d="m126.078 135.516 16.296-18.377c7.651-8.628 19.521-12.193 30.66-9.209l8.361 2.24c5.026 1.347 6.878 7.512 3.426 11.406l-21.266 23.981-10.222 1.065-22.359-5.991z" fill="#d8ecfe"/><path d="m238.508 165.642 4.152 4.916 24.37 6.53 8.955-1.404 21.266-23.981c3.452-3.893 1.601-10.059-3.426-11.406l-12.801-3.43c-7.097-1.902-14.668.181-19.795 5.445z" fill="#5f99d7"/><path d="m5.341 136.39c-3.766 14.055 4.575 28.498 18.633 32.252 46.432 12.4 133.265 35.572 170.069 45.3 18.364 4.854 37.935.261 52.228-12.249l29.713-26.009s-173.55-46.502-215.713-57.799c-5.918-1.586-12.195-1.056-17.765 1.494l-19.056 8.722z" fill="#eaf6ff"/><path d="m232.398 210.663c-11.874 5.43-25.412 6.698-38.352 3.278-36.81-9.722-123.642-32.902-170.073-45.304-14.056-3.745-22.398-18.196-18.633-32.242l18.105-8.292 19.059-8.728c5.572-2.547 11.854-3.075 17.77-1.492 5.562 1.492 13.417 3.593 22.865 6.12l-8.951 4.1-18.105 8.292c-3.765 14.046 4.577 28.498 18.633 32.243 41.804 11.163 116.377 31.075 157.682 42.025z" fill="#d8ecfe"/><path d="m43.24 385.599h368.588v126.396h-368.588z" fill="#92a0b5"/><path d="m411.828 385.604v30.298h-322.685c-3.924 0-7.104 3.181-7.104 7.104v88.994h-38.804v-126.396z" fill="#7d8ea5"/><g fill="#8ac9fe"><path d="m113.838 473.197h-24.799c-3.866 0-7-3.134-7-7v-24.799c0-3.866 3.134-7 7-7h24.799c3.866 0 7 3.134 7 7v24.799c0 3.866-3.134 7-7 7z"/><path d="m191.435 473.197h-24.799c-3.866 0-7-3.134-7-7v-24.799c0-3.866 3.134-7 7-7h24.799c3.866 0 7 3.134 7 7v24.799c0 3.866-3.134 7-7 7z"/><path d="m269.033 473.197h-24.799c-3.866 0-7-3.134-7-7v-24.799c0-3.866 3.134-7 7-7h24.799c3.866 0 7 3.134 7 7v24.799c0 3.866-3.134 7-7 7z"/><path d="m346.63 473.197h-24.799c-3.866 0-7-3.134-7-7v-24.799c0-3.866 3.134-7 7-7h24.799c3.866 0 7 3.134 7 7v24.799c0 3.866-3.134 7-7 7z"/></g><path d="m11.441 395.599h410.387v-38.799h-410.387c-3.866 0-7 3.134-7 7v24.799c0 3.866 3.134 7 7 7z" fill="#eaf6ff"/><path d="m55.181 356.805v38.799h-43.744c-3.866 0-7-3.134-7-7v-24.799c0-3.866 3.134-7 7-7z" fill="#d8ecfe"/><path d="m411.828 230.404h38.799v281.591h-38.799z" fill="#92a0b5"/><path d="m450.627 240.409v20.298h-11.501c-3.866 0-7 3.134-7 7v244.293h-20.298v-271.591z" fill="#7d8ea5"/><path d="m463.435 240.404h-64.415c-3.866 0-7-3.134-7-7v-41.799h78.415v41.799c0 3.866-3.134 7-7 7z" fill="#64758a"/><path d="m470.437 191.601v30.297h-40.973c-3.866 0-7 3.134-7 7v11.511h-23.446c-3.866 0-7-3.134-7-7v-41.809h78.419z" fill="#5b6b7c"/><path d="m470.435 95.209h-78.415v-41.799c0-3.866 3.134-7 7-7h64.415c3.866 0 7 3.134 7 7z" fill="#64758a"/><path d="m470.437 64.907v30.298h-78.419v-41.799c0-3.866 3.134-7 7-7h23.446v11.501c0 3.866 3.134 7 7 7z" fill="#5b6b7c"/><path d="m483.496 201.605h-105.313c-3.44 0-6.37-2.499-6.912-5.896l-16.347-102.396c-.679-4.252 2.606-8.104 6.913-8.104h138.726c4.326 0 7.616 3.884 6.905 8.151l-17.066 102.396c-.564 3.375-3.484 5.849-6.906 5.849z" fill="#8ac9fe"/><path d="m422.951 201.601h-44.772c-3.44 0-6.371-2.5-6.913-5.897l-5.25-32.902-6.191-38.799-4.898-30.696c-.678-4.252 2.607-8.103 6.913-8.103h42.538l6.191 38.799 6.191 38.799z" fill="#60b7ff"/><path d="m359.824 124.008h142.535l-6.467 38.799h-129.874z" fill="#5f99d7"/><path d="m416.76 162.802h-50.743l-6.191-38.799h50.743z" fill="#3c87d0"/><path d="m135.516 231.872 13.956 3.739c4.61 1.235 9.078-2.404 8.8-7.169l-3.024-51.885-37.477-10.042 2.735 46.931c.51 8.736 6.559 16.161 15.01 18.426z" fill="#eaf6ff"/></g></svg>