<svg id="Capa_1" enable-background="new 0 0 512 512" height="512" viewBox="0 0 512 512" width="512" xmlns="http://www.w3.org/2000/svg"><g><path d="m393.844 196.924h118.151v315.071h-118.151z" fill="#eaf6ff"/><path d="m512 196.919v20.604h-80.035c-3.983 0-7.211 3.229-7.211 7.211v287.266h-30.905v-315.081z" fill="#d8ecfe"/><path d="m511.995 196.924h-118.151l-10-5.924v-25.779l10-7.681h111.152c3.866 0 7 3.134 7 7v32.384z" fill="#92a0b5"/><path d="m424.754 157.535v39.384h-30.905l-10-6.919v-24.779l10-7.686z" fill="#7d8ea5"/><path d="m118.156 511.995h-118.151v-315.071l15.495-10h87l15.656 10z" fill="#eaf6ff"/><path d="m118.151 196.919v315.081h-30.905v-287.266c0-3.983-3.229-7.211-7.211-7.211h-80.035v-20.604l14.5-10h90z" fill="#d8ecfe"/><path d="m118.156 196.924h-118.152v-32.384c0-3.866 3.134-7 7-7h111.152l10 9.96v19.424z" fill="#92a0b5"/><path d="m41.207 157.535v39.384h-41.207v-32.384c0-3.866 3.134-7 7-7z" fill="#7d8ea5"/><path d="m393.849 78.768v433.232h-275.698v-433.232l21.521-10h233.828z" fill="#fedba6"/><path d="m393.849 78.768-17.349-10h-236.828l-21.521 10v433.232h30.905v-405.417c0-3.983 3.229-7.211 7.211-7.211h13.047c3.866 0 7 3.134 7 7v25.384c0 3.866 3.134 7 7 7h145.369c3.866 0 7-3.134 7-7v-25.384c0-3.866 3.134-7 7-7h51.164v-20.604z" fill="#fece85"/><path d="m315.081 433.228v78.772h-118.162v-78.772l13.081-10h91z" fill="#eaf6ff"/><path d="m406.536 78.772h-301.072c-3.866 0-7-3.134-7-7v-25.384c0-3.866 3.134-7 7-7h301.072c3.866 0 7 3.134 7 7v25.384c0 3.866-3.134 7-7 7z" fill="#92a0b5"/><path d="m139.672 39.384v39.384h-34.207c-3.866 0-7-3.134-7-7v-25.384c0-3.866 3.134-7 7-7z" fill="#7d8ea5"/><path d="m308.076 118.156h-104.152c-3.866 0-7-3.134-7-7v-104.151c0-3.866 3.134-7 7-7h104.152c3.866 0 7 3.134 7 7v104.152c0 3.865-3.134 6.999-7 6.999z" fill="#eaf6ff"/><path d="m227.825 0v118.152h-23.906c-3.866 0-7-3.134-7-7v-104.152c0-3.866 3.134-7 7-7z" fill="#d8ecfe"/><path d="m275.692 31.662c-4.267 0-7.726 3.459-7.726 7.726v11.966h-23.932v-11.966c0-4.267-3.459-7.726-7.726-7.726s-7.726 3.459-7.726 7.726v39.384c0 4.267 3.459 7.726 7.726 7.726s7.726-3.459 7.726-7.726v-11.965h23.932v11.966c0 4.267 3.459 7.726 7.726 7.726s7.726-3.459 7.726-7.726v-39.385c0-4.267-3.459-7.726-7.726-7.726z" fill="#5f99d7"/><g><path d="m263.726 433.232v78.768h-15.453v-78.768c0-4.275 3.461-7.726 7.726-7.726 4.266 0 7.727 3.451 7.727 7.726z" fill="#5f99d7"/></g><path d="m315.076 433.228h-118.152v-32.384c0-3.866 3.134-7 7-7h104.152c3.866 0 7 3.134 7 7z" fill="#d8ecfe"/><g><path d="m186.924 226.308h-19.384l-10-29.384v-32.384c0-3.866 3.134-7 7-7h25.384c3.866 0 7 3.134 7 7v32.384z" fill="#5f99d7"/><path d="m157.54 196.924h39.384v32.384c0 3.866-3.134 7-7 7h-25.384c-3.866 0-7-3.134-7-7z" fill="#eaf6ff"/></g><g><path d="m68.768 305.076h-19.384l-10-29.384v-32.384c0-3.866 3.134-7 7-7h25.384c3.866 0 7 3.134 7 7v32.384z" fill="#5f99d7"/><path d="m39.384 275.692h39.384v32.384c0 3.866-3.134 7-7 7h-25.384c-3.866 0-7-3.134-7-7z" fill="#eaf6ff"/></g><g><path d="m68.768 423.227h-19.384l-10-29.384v-32.384c0-3.866 3.134-7 7-7h25.384c3.866 0 7 3.134 7 7v32.384z" fill="#5f99d7"/><path d="m39.384 393.843h39.384v32.384c0 3.866-3.134 7-7 7h-25.384c-3.866 0-7-3.134-7-7z" fill="#eaf6ff"/></g><g><path d="m462.788 305.076h-19.384l-10-29.384v-32.384c0-3.866 3.134-7 7-7h25.384c3.866 0 7 3.134 7 7v32.384z" fill="#5f99d7"/><path d="m433.404 275.692h39.384v32.384c0 3.866-3.134 7-7 7h-25.384c-3.866 0-7-3.134-7-7z" fill="#eaf6ff"/></g><g><path d="m462.788 423.227h-19.384l-10-29.384v-32.384c0-3.866 3.134-7 7-7h25.384c3.866 0 7 3.134 7 7v32.384z" fill="#5f99d7"/><path d="m433.404 393.843h39.384v32.384c0 3.866-3.134 7-7 7h-25.384c-3.866 0-7-3.134-7-7z" fill="#eaf6ff"/></g><g><path d="m265.692 226.308h-19.384l-10-29.384v-32.384c0-3.866 3.134-7 7-7h25.384c3.866 0 7 3.134 7 7v32.384z" fill="#5f99d7"/><path d="m236.308 196.924h39.384v32.384c0 3.866-3.134 7-7 7h-25.384c-3.866 0-7-3.134-7-7z" fill="#eaf6ff"/></g><g><path d="m344.46 226.308h-19.384l-10-29.384v-32.384c0-3.866 3.134-7 7-7h25.384c3.866 0 7 3.134 7 7v32.384z" fill="#5f99d7"/><path d="m315.076 196.924h39.384v32.384c0 3.866-3.134 7-7 7h-25.384c-3.866 0-7-3.134-7-7z" fill="#eaf6ff"/></g><g><path d="m186.924 344.46h-19.384l-10-29.384v-32.384c0-3.866 3.134-7 7-7h25.384c3.866 0 7 3.134 7 7v32.384z" fill="#5f99d7"/><path d="m157.54 315.076h39.384v32.384c0 3.866-3.134 7-7 7h-25.384c-3.866 0-7-3.134-7-7z" fill="#eaf6ff"/></g><g><path d="m265.692 344.46h-19.384l-10-29.384v-32.384c0-3.866 3.134-7 7-7h25.384c3.866 0 7 3.134 7 7v32.384z" fill="#5f99d7"/><path d="m236.308 315.076h39.384v32.384c0 3.866-3.134 7-7 7h-25.384c-3.866 0-7-3.134-7-7z" fill="#eaf6ff"/></g><g><path d="m344.46 344.46h-19.384l-10-29.384v-32.384c0-3.866 3.134-7 7-7h25.384c3.866 0 7 3.134 7 7v32.384z" fill="#5f99d7"/><path d="m315.076 315.076h39.384v32.384c0 3.866-3.134 7-7 7h-25.384c-3.866 0-7-3.134-7-7z" fill="#eaf6ff"/></g></g></svg>