<svg id="Capa_1" enable-background="new 0 0 512 512" height="512" viewBox="0 0 512 512" width="512" xmlns="http://www.w3.org/2000/svg"><g><path d="m157.62 95.972v122.91c0 35.77-24.56 65.8-57.73 74.14-5.99 1.52-12.27 2.32-18.73 2.32h-4.7c-42.22 0-76.46-34.23-76.46-76.46v-122.91c0-42.22 34.24-76.46 76.46-76.46h4.7c7.02 0 13.81.95 20.27 2.72 32.39 8.88 56.19 38.54 56.19 73.74z" fill="#ade194"/><path d="m99.89 293.022c-5.99 1.52-12.27 2.32-18.73 2.32h-4.7c-42.22 0-76.46-34.23-76.46-76.46v-122.91c0-42.22 34.24-76.46 76.46-76.46h4.7c7.02 0 13.81.95 20.27 2.72-32.32 10.04-60.2 40.88-60.2 76.21v118.22c0 35.85 25.84 66.8 58.66 76.36z" fill="#97da7b"/><path d="m191.023 492.484h-27.403c-3.314 0-6-2.686-6-6v-33.404h39.403v33.404c0 3.313-2.687 6-6 6z" fill="#c68d7a"/><path d="m348.638 492.484h-27.404c-3.314 0-6-2.686-6-6v-33.404h39.404v33.404c0 3.313-2.687 6-6 6z" fill="#c68d7a"/><path d="m157.619 374.272h39.404v39.404h-39.404z" fill="#bc7c63"/><path d="m315.234 374.272h39.404v39.404h-39.404z" fill="#bc7c63"/><path d="m433.193 295.465c-43.524 0-78.807-35.283-78.807-78.807v-118.211c0-43.524 35.283-78.807 78.807-78.807 43.524 0 78.807 35.283 78.807 78.807v118.211c0 43.524-35.283 78.807-78.807 78.807z" fill="#ade194"/><path d="m453.806 292.739c-6.566 1.783-13.482 2.731-20.614 2.731-43.526 0-78.807-35.291-78.807-78.807v-118.221c0-43.516 35.281-78.807 78.807-78.807 7.133 0 14.048.948 20.614 2.731-33.529 9.06-58.193 39.692-58.193 76.076v118.221c0 36.384 24.665 67.016 58.193 76.076z" fill="#97da7b"/><path d="m367.34 453.08h-222.422c-3.866 0-7-3.134-7-7v-25.404c0-3.866 3.134-7 7-7h222.422c3.866 0 7 3.134 7 7v25.404c0 3.866-3.134 7-7 7z" fill="#fedba6"/><path d="m179.146 413.681v39.404h-34.228c-3.866 0-7-3.134-7-7v-25.404c0-3.866 3.134-7 7-7z" fill="#fece85"/><path d="m367.34 374.273h-222.422c-3.866 0-7-3.134-7-7v-45.106c0-3.866 3.134-7 7-7h222.422c3.866 0 7 3.134 7 7v45.106c0 3.866-3.134 7-7 7z" fill="#fedba6"/><path d="m374.339 353.664v13.614c0 3.866-3.134 7-7 7h-222.421c-3.866 0-7-3.134-7-7v-45.111c0-3.866 3.134-7 7-7h34.228v31.282c0 3.985 3.23 7.215 7.215 7.215z" fill="#fece85"/><g><path d="m98.514 244.09c-1.978 0-3.957-.754-5.466-2.264-3.019-3.019-3.019-7.913 0-10.932l19.702-19.702c3.019-3.019 7.913-3.02 10.932 0 3.019 3.019 3.019 7.913 0 10.932l-19.702 19.702c-1.51 1.509-3.488 2.264-5.466 2.264z" fill="#bc7c63"/></g><g><path d="m59.11 244.09c-1.978 0-3.957-.755-5.466-2.264l-19.702-19.702c-3.019-3.019-3.019-7.913 0-10.932s7.913-3.019 10.932 0l19.702 19.702c3.019 3.019 3.019 7.913 0 10.932-1.509 1.509-3.488 2.264-5.466 2.264z" fill="#c68d7a"/></g><g><path d="m59.11 165.283c-1.978 0-3.957-.755-5.466-2.264l-19.702-19.702c-3.019-3.019-3.019-7.913 0-10.932s7.913-3.019 10.932 0l19.702 19.702c3.019 3.019 3.019 7.913 0 10.932-1.509 1.509-3.488 2.264-5.466 2.264z" fill="#c68d7a"/></g><g><path d="m98.514 165.283c-1.978 0-3.957-.755-5.466-2.264-3.019-3.019-3.019-7.913 0-10.932l19.702-19.702c3.019-3.019 7.913-3.019 10.932 0s3.019 7.913 0 10.932l-19.702 19.702c-1.51 1.509-3.488 2.264-5.466 2.264z" fill="#bc7c63"/></g><g><path d="m452.894 244.09c-1.978 0-3.957-.754-5.466-2.264-3.019-3.019-3.019-7.913 0-10.932l19.702-19.702c3.019-3.019 7.914-3.02 10.932 0 3.019 3.019 3.019 7.913 0 10.932l-19.702 19.702c-1.509 1.509-3.488 2.264-5.466 2.264z" fill="#bc7c63"/></g><g><path d="m413.491 244.09c-1.978 0-3.957-.755-5.466-2.264l-19.702-19.702c-3.019-3.019-3.019-7.913 0-10.932s7.914-3.019 10.932 0l19.702 19.702c3.019 3.019 3.019 7.913 0 10.932-1.509 1.509-3.488 2.264-5.466 2.264z" fill="#c68d7a"/></g><g><path d="m413.491 165.283c-1.978 0-3.957-.755-5.466-2.264l-19.702-19.702c-3.019-3.019-3.019-7.913 0-10.932s7.914-3.019 10.932 0l19.702 19.702c3.019 3.019 3.019 7.913 0 10.932-1.509 1.509-3.488 2.264-5.466 2.264z" fill="#c68d7a"/></g><g><path d="m452.894 165.283c-1.978 0-3.957-.755-5.466-2.264-3.019-3.019-3.019-7.913 0-10.932l19.702-19.702c3.019-3.019 7.914-3.019 10.932 0 3.019 3.019 3.019 7.913 0 10.932l-19.702 19.702c-1.509 1.509-3.487 2.264-5.466 2.264z" fill="#bc7c63"/></g><path d="m92.514 492.484h-27.404c-3.314 0-6-2.686-6-6v-368.922c0-10.557 8.558-19.115 19.115-19.115h1.174c10.557 0 19.115 8.558 19.115 19.115v368.922c0 3.313-2.686 6-6 6z" fill="#c68d7a"/><path d="m89.114 101.359c-5.628 3.463-9.39 9.688-9.39 16.79v374.34h-14.613c-3.314 0-6-2.686-6-6v-368.34c0-10.884 8.823-19.707 19.697-19.707 3.782 0 7.307 1.062 10.306 2.917z" fill="#bc7c63"/><path d="m446.894 492.484h-27.404c-3.314 0-6-2.686-6-6v-368.922c0-10.557 8.558-19.115 19.115-19.115h1.174c10.557 0 19.115 8.558 19.115 19.115v368.922c0 3.313-2.686 6-6 6z" fill="#c68d7a"/><path d="m443.499 101.359c-5.638 3.463-9.39 9.688-9.39 16.79v374.34h-14.614c-3.314 0-6-2.686-6-6v-367.884c0-10.746 8.41-19.868 19.152-20.156 3.99-.107 7.71.966 10.852 2.91z" fill="#bc7c63"/></g></svg>