<svg id="Capa_1" enable-background="new 0 0 512 512" height="512" viewBox="0 0 512 512" width="512" xmlns="http://www.w3.org/2000/svg"><g><path d="m120.797 508.194h-28.199c-8.284 0-15-6.716-15-15v-23.799l11.94-10h35.462l10.797 10v23.799c0 8.284-6.716 15-15 15z" fill="#92a0b5"/><path d="m295.393 508.194h-28.199c-8.284 0-15-6.716-15-15v-23.799l12.806-10h33.709l11.684 10v23.799c0 8.284-6.716 15-15 15z" fill="#92a0b5"/><path d="m339.04 170.24v128.89l10.15 15.07v58.2l-10.15 6.4v24.78l10.15 7.62v42.97c0 8.41-6.81 15.22-15.22 15.22h-81.78l-14.32-10.14h-89.19l-12.88 10.14h-81.78c-8.41 0-15.22-6.81-15.22-15.22v-42.97l10.15-7.62v-24.78l-10.15-6.4v-58.2l10.15-13.55v-130.41l-10.15-11.24v-47.15c0-16.81 13.63-30.45 30.45-30.45h66.55l11.86 10.15h93.88l10.65-10.15h66.56c16.81 0 30.44 13.64 30.44 30.45v47.15z" fill="#f07281"/><path d="m104.37 469.39h-50.35c-8.41 0-15.22-6.81-15.22-15.22v-42.97l10.15-7.62v-24.78l-10.15-6.4v-58.2l10.15-13.55v-130.41l-10.15-11.24v-47.15c0-16.81 13.63-30.45 30.45-30.45h50.74c-16.81 0-30.45 13.64-30.45 30.45v342.33c0 8.27 6.61 15.01 14.83 15.21z" fill="#eb5569"/><path d="m252.194 469.399h-116.397l7.855-31.421 3.745-14.99 6.455-25.809c.792-3.166 3.633-5.379 6.891-5.379h66.505c3.258 0 6.1 2.212 6.891 5.379l6.455 25.809 3.745 14.99z" fill="#8ac9fe"/><path d="m237.874 412.099h-46.685c-3.268 0-6.11 2.223-6.901 5.379l-1.38 5.511-3.796 15.223-7.794 31.187h-35.521l7.855-31.421 3.745-14.99 6.445-25.809c.791-3.156 3.633-5.379 6.901-5.379h66.505c3.268 0 6.11 2.223 6.901 5.379z" fill="#60b7ff"/><path d="m245.194 120.203h-102.397c-3.866 0-7-3.134-7-7v-31.799h116.397v31.799c0 3.866-3.134 7-7 7z" fill="#fee97d"/><path d="m186.541 81.4v38.799h-43.64c-3.924 0-7.104-3.181-7.104-7.104v-31.695z" fill="#fee45a"/><path d="m15.223 275.4h23.576l10.149-11.788v-55.289l-10.149-10.522h-23.576c-8.407 0-15.223 6.816-15.223 15.224v47.152c0 8.407 6.816 15.223 15.223 15.223z" fill="#92a0b5"/><path d="m372.767 275.4h-23.576l-10.149-12.803v-51.759l10.149-13.036h23.576c8.408 0 15.223 6.816 15.223 15.223v47.152c.001 8.407-6.815 15.223-15.223 15.223z" fill="#92a0b5"/><path d="m92.607 411.196h-53.808v-38.799h66.103c5.281 0 8.716 5.558 6.354 10.281l-12.295 24.591c-1.203 2.407-3.663 3.927-6.354 3.927z" fill="#fee97d"/><path d="m38.794 372.397h50.744v38.799h-50.744z" fill="#fee45a"/><path d="m349.192 411.196h-53.808c-2.691 0-5.151-1.52-6.354-3.927l-12.295-24.591c-2.362-4.724 1.073-10.281 6.354-10.281h66.103z" fill="#fee97d"/><path d="m321.439 411.196h-26.055c-2.691 0-5.151-1.521-6.354-3.928l-12.292-24.591c-2.361-4.724 1.074-10.281 6.355-10.281h18.953z" fill="#fee45a"/><path d="m38.799 159.002h310.392v155.196h-310.392z" fill="#eaf6ff"/><path d="m38.794 158.997h50.744v155.206h-50.744z" fill="#d8ecfe"/><g><path d="m426.789 477.007c-4.204 0-7.612-3.408-7.612-7.612v-47.152c0-20.986 17.073-38.058 38.058-38.058h47.152c4.204 0 7.612 3.408 7.612 7.612s-3.407 7.612-7.612 7.612h-47.152c-12.591 0-22.835 10.243-22.835 22.835v47.152c.001 4.203-3.406 7.611-7.611 7.611z" fill="#92a0b5"/></g><g><path d="m504.388 477.007c-4.204 0-7.612-3.408-7.612-7.612v-387.991c0-4.204 3.407-7.612 7.612-7.612 4.204 0 7.612 3.408 7.612 7.612v387.991c0 4.204-3.407 7.612-7.612 7.612z" fill="#92a0b5"/></g><g><path d="m244.339 437.979c-.589.152-1.208.233-1.847.233h-96.992c-.639 0-1.258-.081-1.847-.233l3.745-14.99h93.197z" fill="#eaf6ff"/></g><g><path d="m182.908 422.989-3.796 15.223h-33.613c-.639 0-1.258-.081-1.847-.233l3.745-14.99z" fill="#d8ecfe"/></g><path d="m512 508.194h-116.397v-31.799c0-3.866 3.134-7 7-7h109.397z" fill="#92a0b5"/><path d="m436.203 469.399v38.799h-40.595v-31.695c0-3.923 3.181-7.104 7.104-7.104z" fill="#7d8ea5"/><path d="m512 81.404h-109.397c-3.866 0-7-3.134-7-7v-50.598c0-11.046 8.954-20 20-20h76.397c11.046 0 20 8.954 20 20z" fill="#8ac9fe"/><path d="m456.501 3.802c-11.215 0-20.298 9.093-20.298 20.298v57.3h-33.491c-3.924 0-7.104-3.181-7.104-7.104v-50.197c0-11.204 9.083-20.298 20.298-20.298h40.595z" fill="#60b7ff"/></g></svg>