<svg id="Capa_1" enable-background="new 0 0 511.992 511.992" height="512" viewBox="0 0 511.992 511.992" width="512" xmlns="http://www.w3.org/2000/svg"><g><path d="m361.576 271.363-10 76.46c0-26.39-10.7-50.28-28-67.58-17.3-17.29-41.19-27.99-67.58-27.99-52.78 0-95.58 42.79-95.58 95.57l-10-76.46c0-52.78 52.8-105.58 105.58-105.58 26.39 0 50.28 10.7 67.58 28 17.3 17.29 38 51.19 38 77.58z" fill="#c68d7a"/><path d="m275.996 177.883c-42.78 9.11-74.97 46.84-75.56 92.18-24.23 17.33-40.02 45.7-40.02 77.76l-10-76.46c0-52.78 52.8-105.58 105.58-105.58 6.86 0 13.55 10.72 20 12.1z" fill="#bc7c63"/><g><path d="m351.571 290.478h114.69v191.151h-114.69z" fill="#fedba6"/></g><g><path d="m45.731 290.478h114.69v191.151h-114.69z" fill="#fedba6"/></g><path d="m45.731 137.558v152.92h114.69v-19.115c0-52.785 42.79-95.575 95.575-95.575 52.785 0 95.575 42.79 95.575 95.575v19.115h114.69v-152.92l-14.265-10h-391.5z" fill="#fedba6"/><path d="m466.266 137.553v20h-375.305c-3.866 0-7 3.134-7 7v125.92h-38.235v-152.92l15.27-10h391.5z" fill="#fece85"/><path d="m122.191 481.629h-38.23v-145.921c0-3.866 3.134-7 7-7h24.23c3.866 0 7 3.134 7 7z" fill="#c68d7a"/><path d="m428.031 481.629h-38.23v-145.921c0-3.866 3.134-7 7-7h24.23c3.866 0 7 3.134 7 7z" fill="#c68d7a"/><g><g><path d="m122.19 259.748h-38.229c-4.143 0-7.5-3.358-7.5-7.5s3.357-7.5 7.5-7.5h38.229c4.143 0 7.5 3.358 7.5 7.5s-3.357 7.5-7.5 7.5z" fill="#c68d7a"/></g><g><path d="m122.19 221.518h-38.229c-4.143 0-7.5-3.358-7.5-7.5s3.357-7.5 7.5-7.5h38.229c4.143 0 7.5 3.358 7.5 7.5s-3.357 7.5-7.5 7.5z" fill="#c68d7a"/></g><g><path d="m428.031 259.748h-38.23c-4.143 0-7.5-3.358-7.5-7.5s3.357-7.5 7.5-7.5h38.23c4.142 0 7.5 3.358 7.5 7.5s-3.357 7.5-7.5 7.5z" fill="#c68d7a"/></g><g><path d="m428.031 221.518h-38.23c-4.143 0-7.5-3.358-7.5-7.5s3.357-7.5 7.5-7.5h38.23c4.142 0 7.5 3.358 7.5 7.5s-3.357 7.5-7.5 7.5z" fill="#c68d7a"/></g></g><g><path d="m504.492 489.129h-152.921c-4.143 0-7.5-3.358-7.5-7.5s3.357-7.5 7.5-7.5h152.921c4.143 0 7.5 3.358 7.5 7.5s-3.357 7.5-7.5 7.5z" fill="#c68d7a"/></g><path d="m466.261 109.328h-420.53v-79.46c0-3.866 3.134-7 7-7h406.531c3.866 0 7 3.134 7 7v79.46z" fill="#fedba6"/><path d="m466.266 79.323v30h-420.54v-79.46c0-3.866 3.134-7 7-7h33v49.46c0 3.866 3.134 7 7 7z" fill="#fece85"/><path d="m478.377 137.558h-444.761c-3.866 0-7-3.134-7-7v-24.23c0-3.866 3.134-7 7-7h444.761c3.866 0 7 3.134 7 7v24.23c0 3.866-3.134 7-7 7z" fill="#c68d7a"/><path d="m76.616 99.323v38.23h-43c-3.866 0-7-3.134-7-7v-24.23c0-3.866 3.134-7 7-7z" fill="#bc7c63"/><g><g><path d="m83.961 106.828c-4.143 0-7.5-3.358-7.5-7.5v-38.23c0-4.142 3.357-7.5 7.5-7.5s7.5 3.358 7.5 7.5v38.23c0 4.142-3.357 7.5-7.5 7.5z" fill="#c68d7a"/></g><g><path d="m122.19 106.828c-4.143 0-7.5-3.358-7.5-7.5v-38.23c0-4.142 3.357-7.5 7.5-7.5s7.5 3.358 7.5 7.5v38.23c0 4.142-3.357 7.5-7.5 7.5z" fill="#c68d7a"/></g><g><path d="m160.421 106.828c-4.143 0-7.5-3.358-7.5-7.5v-38.23c0-4.142 3.357-7.5 7.5-7.5s7.5 3.358 7.5 7.5v38.23c0 4.142-3.357 7.5-7.5 7.5z" fill="#c68d7a"/></g><g><path d="m198.651 106.828c-4.143 0-7.5-3.358-7.5-7.5v-38.23c0-4.142 3.357-7.5 7.5-7.5s7.5 3.358 7.5 7.5v38.23c0 4.142-3.357 7.5-7.5 7.5z" fill="#c68d7a"/></g><g><path d="m236.881 106.828c-4.143 0-7.5-3.358-7.5-7.5v-38.23c0-4.142 3.357-7.5 7.5-7.5s7.5 3.358 7.5 7.5v38.23c0 4.142-3.358 7.5-7.5 7.5z" fill="#c68d7a"/></g><g><path d="m275.111 106.828c-4.142 0-7.5-3.358-7.5-7.5v-38.23c0-4.142 3.358-7.5 7.5-7.5 4.143 0 7.5 3.358 7.5 7.5v38.23c0 4.142-3.357 7.5-7.5 7.5z" fill="#c68d7a"/></g><g><path d="m313.342 106.828c-4.143 0-7.5-3.358-7.5-7.5v-38.23c0-4.142 3.357-7.5 7.5-7.5s7.5 3.358 7.5 7.5v38.23c0 4.142-3.358 7.5-7.5 7.5z" fill="#c68d7a"/></g><g><path d="m351.571 106.828c-4.143 0-7.5-3.358-7.5-7.5v-38.23c0-4.142 3.357-7.5 7.5-7.5s7.5 3.358 7.5 7.5v38.23c0 4.142-3.357 7.5-7.5 7.5z" fill="#c68d7a"/></g><g><path d="m389.802 106.828c-4.143 0-7.5-3.358-7.5-7.5v-38.23c0-4.142 3.357-7.5 7.5-7.5s7.5 3.358 7.5 7.5v38.23c0 4.142-3.358 7.5-7.5 7.5z" fill="#c68d7a"/></g><g><path d="m428.031 106.828c-4.143 0-7.5-3.358-7.5-7.5v-38.23c0-4.142 3.357-7.5 7.5-7.5 4.142 0 7.5 3.358 7.5 7.5v38.23c0 4.142-3.357 7.5-7.5 7.5z" fill="#c68d7a"/></g></g><g><path d="m45.726 290.473h38.235v191.16h-38.235z" fill="#fece85"/></g><g><path d="m160.421 489.129h-152.921c-4.143 0-7.5-3.358-7.5-7.5s3.357-7.5 7.5-7.5h152.921c4.143 0 7.5 3.358 7.5 7.5s-3.357 7.5-7.5 7.5z" fill="#c68d7a"/></g></g></svg>