<svg id="Capa_1" enable-background="new 0 0 512 512" height="512" viewBox="0 0 512 512" width="512" xmlns="http://www.w3.org/2000/svg"><g><path d="m315.079 443.529h-118.153l-10.302-10.339v-226.126l10.302-10.143h118.153l10.302 12.203v224.103z" fill="#ade194"/><path d="m325.386 196.916v20.604h-90.348c-3.983 0-7.211 3.229-7.211 7.211v218.802h-30.906l-10.302-10.307v-225.132l10.302-11.178z" fill="#97da7b"/><g fill="#5f99d7"><path d="m157.542 196.921h39.384v246.607h-39.384z"/><path d="m315.079 196.921h39.384v246.608h-39.384z"/><path d="m78.773 186.62h39.384v217.525h-39.384z"/><path d="m393.847 186.62h39.384v217.525h-39.384z"/></g><path d="m157.542 433.227-11.77 10.302h-97.868l-8.515-10.302v-32.173c0-3.983 3.229-7.211 7.211-7.211h110.941v39.384z" fill="#eaf6ff"/><path d="m157.542 196.921h-111.153c-3.866 0-7-3.134-7-7v-42.686h118.153z" fill="#eaf6ff"/><path d="m472.616 433.227-11.606 10.302h-93.747l-12.8-10.302v-39.384h110.941c3.983 0 7.211 3.229 7.211 7.211v32.173z" fill="#eaf6ff"/><path d="m465.616 196.921h-111.153v-49.686h118.153v42.686c0 3.866-3.134 7-7 7z" fill="#eaf6ff"/><path d="m273.992 0h-35.979c-1.12 0-2.224.261-3.225.761l-230.797 115.399c-2.443 1.222-3.986 3.719-3.986 6.45v27.716c0 3.983 3.229 7.211 7.211 7.211h497.573c3.983 0 7.211-3.229 7.211-7.211v-27.716c0-2.731-1.543-5.228-3.986-6.45l-230.797-115.399c-1.001-.5-2.105-.761-3.225-.761z" fill="#5f99d7"/><path d="m123.116 102.668 121.399-60.699c1.001-.501 2.105-.761 3.225-.761h16.524c1.119 0 2.224.261 3.225.761l121.399 60.699c6.806 3.403 4.385 13.661-3.225 13.661h-259.322c-7.609 0-10.031-10.258-3.225-13.661z" fill="#eaf6ff"/><path d="m265.987 307.348h-19.969c-6.522 0-11.827-5.306-11.827-11.828v-.276c0-6.522 5.305-11.828 11.827-11.828h39.523c4.267 0 7.726-3.459 7.726-7.726s-3.459-7.727-7.726-7.727h-21.812v-11.966c0-4.267-3.459-7.726-7.726-7.726s-7.726 3.459-7.726 7.726v11.966h-2.258c-15.042 0-27.28 12.238-27.28 27.281v.276c0 15.042 12.238 27.28 27.28 27.28h19.969c6.522 0 11.827 5.306 11.827 11.828 0 3.191-1.251 6.182-3.523 8.422-2.271 2.24-5.243 3.476-8.47 3.405l-39.248-.551c-.037-.001-.074-.001-.111-.001-4.217 0-7.664 3.388-7.723 7.618-.06 4.267 3.35 7.774 7.617 7.835l21.92.308v12.488c0 4.267 3.459 7.726 7.726 7.726s7.726-3.459 7.726-7.726v-12.271l1.875.026c.131.002.262.003.394.003 7.212 0 13.997-2.781 19.143-7.856 5.24-5.167 8.126-12.065 8.126-19.425 0-15.043-12.238-27.281-27.28-27.281z" fill="#fee97d"/><path d="m492.308 472.611-12.754 10.302h-448.133l-11.724-10.302v-32.173c0-3.983 3.229-7.211 7.211-7.211h458.189c3.983 0 7.211 3.229 7.211 7.211z" fill="#92a0b5"/><path d="m71.207 433.232v39.384h-51.51v-32.173c0-3.983 3.229-7.211 7.211-7.211z" fill="#7d8ea5"/><path d="m512 511.996h-511.996v-32.384c0-3.866 3.134-7 7-7h497.996c3.866 0 7 3.134 7 7z" fill="#eaf6ff"/><path d="m51.509 472.616v39.384h-51.509v-32.173c0-3.983 3.229-7.211 7.211-7.211z" fill="#d8ecfe"/></g></svg>