<svg id="Capa_1" enable-background="new 0 0 512 512" height="512" viewBox="0 0 512 512" width="512" xmlns="http://www.w3.org/2000/svg"><g><path d="m472.61 157.54v315.07l-16.11 10h-396.51l-20.6-10v-315.07z" fill="#fedba6"/><path d="m472.61 157.54v76.37c-4.3 1.22-8.78 1.84-13.33 1.84h-.28c-10.61-.05-20.69-3.46-29.03-9.7-8.1 5.89-18.04 9.39-28.77 9.39h-.28c-10.45-.06-20.38-3.38-28.65-9.44-8.16 6.04-18.23 9.62-29.14 9.62-10.86 0-20.9-3.56-29.03-9.55-8.14 6-18.19 9.55-29.05 9.55s-20.91-3.55-29.04-9.55c-8.14 6-18.18 9.55-29.05 9.55-10.86 0-20.9-3.56-29.03-9.55-8.14 6-18.18 9.55-29.05 9.55-10.86 0-20.91-3.55-29.04-9.55-8.14 6-18.18 9.55-29.04 9.55-12.24 0-23.43-4.51-32.03-11.94v258.94h-19.69l-19.69-10v-315.08z" fill="#fece85"/><path d="m393.846 118.156-19.507 10h-236.421l-19.759-10v-111.152c0-3.866 3.134-7 7-7h261.687c3.866 0 7 3.134 7 7z" fill="#eaf6ff"/><path d="m393.851 97.548v20.604l-15.351 10h-243l-17.346-10v-111.152c0-3.866 3.134-7 7-7h34.207v90.337c0 3.983 3.229 7.211 7.211 7.211z" fill="#d8ecfe"/><path d="m511.998 511.996h-511.991v-39.384h504.991c3.866 0 7 3.134 7 7z" fill="#ade194"/><path d="m41.21 472.616v39.384h-41.208v-32.384c0-3.866 3.134-7 7-7z" fill="#97da7b"/><path d="m413.285 384.152h-137.591v-121.152c0-3.866 3.134-7 7-7h123.591c3.866 0 7 3.134 7 7z" fill="#eaf6ff"/><path d="m316.896 256v128.151h-41.207v-121.151c0-3.866 3.134-7 7-7z" fill="#d8ecfe"/><g><path d="m354.21 47.115h-78.515c-4.267 0-7.726-3.459-7.726-7.726s3.459-7.726 7.726-7.726h78.515c4.267 0 7.726 3.459 7.726 7.726s-3.459 7.726-7.726 7.726z" fill="#c68d7a"/></g><g><path d="m354.21 86.499h-78.515c-4.267 0-7.726-3.459-7.726-7.726s3.459-7.726 7.726-7.726h78.515c4.267 0 7.726 3.459 7.726 7.726s-3.459 7.726-7.726 7.726z" fill="#c68d7a"/></g><path d="m216.618 511.996h-137.843v-248.996c0-3.866 3.134-7 7-7h123.844c3.866 0 7 3.134 7 7v248.996z" fill="#c68d7a"/><path d="m99.977 256v256h-21.207v-249c0-3.866 3.134-7 7-7z" fill="#bc7c63"/><path d="m426.23 413.536h-162.73c-3.866 0-7-3.134-7-7v-25.384c0-3.866 3.134-7 7-7h162.73c3.866 0 7 3.134 7 7v25.384c0 3.866-3.134 7-7 7z" fill="#c68d7a"/><g fill="#bc7c63"><path d="m297.704 374.151v39.384h-34.207c-3.866 0-7-3.134-7-7v-25.384c0-3.866 3.134-7 7-7z"/><path d="m170.234 392.184h-45.076c-3.866 0-7-3.134-7-7v-84.46c0-3.866 3.134-7 7-7h45.076c3.866 0 7 3.134 7 7v84.46c0 3.866-3.134 7-7 7z"/><path d="m170.234 472.612h-45.076c-3.866 0-7-3.134-7-7v-27.043c0-3.866 3.134-7 7-7h45.076c3.866 0 7 3.134 7 7v27.043c0 3.866-3.134 7-7 7z"/></g><path d="m236.31 59.08c0 13.18-12.8 24.22-30.04 27.2-2.99.53-4.717-3.113-7.937-3.113-2.63 0-6.603 3.733-9.083 3.373-18.08-2.53-31.71-13.86-31.71-27.46 0-13.17 12.79-24.22 30.03-27.2 3-.52 4.7 3.787 7.93 3.787 2.63 0 6.64-4.407 9.13-4.047 18.06 2.54 31.68 13.86 31.68 27.46z" fill="#c68d7a"/><g><path d="m209.24 73.11c0 4.5-1.01 8.96-2.97 13.17-2.99.53-6.12.8-9.34.8-2.63 0-5.2-.18-7.68-.54.09-1.34.53-2.67 1.35-3.85 2.12-3.07 3.19-6.29 3.19-9.58s-1.08-6.52-3.22-9.59c-6.84-9.84-7.84-21.32-3-31.64 3-.52 6.13-.8 9.36-.8 2.63 0 5.21.18 7.7.54-.1 1.45-.6 2.81-1.4 3.93-4.27 6.18-4.26 12.98.04 19.15 3.91 5.64 5.97 12 5.97 18.41z" fill="#fedba6"/></g><path d="m110.797 215.622c-16.039 0-29.041-13.002-29.041-29.041l-10-10.581v-18.465l10-9.995h58.082l10 9.995v20.215l-10 8.831c0 16.039-13.002 29.041-29.041 29.041z" fill="#f07281"/><path d="m108.76 167.54c-3.866 0-7 3.134-7 7v12.04c0 12.53 7.93 23.2 19.04 27.28-3.12 1.14-6.49 1.76-10 1.76-16.04 0-29.04-13-29.04-29.04l-10-10.58v-18.46l10-10h58.08l10 10v10z" fill="#eb5569"/><path d="m52.715 215.622c-16.039 0-29.041-13.002-29.041-29.041v-39.041h58.082v39.041c0 16.039-13.002 29.041-29.041 29.041z" fill="#ade194"/><path d="m50.67 167.54c-3.866 0-7 3.134-7 7v12.04c0 12.53 7.94 23.2 19.05 27.27-3.12 1.15-6.49 1.77-10.01 1.77-16.03 0-29.04-13-29.04-29.04v-39.04h58.09v20z" fill="#97da7b"/><path d="m226.965 215.622c-16.039 0-29.041-13.002-29.041-29.041l-10-10.581v-18.465l10-9.995h58.082l10 9.995v20.215l-10 8.831c0 16.039-13.002 29.041-29.041 29.041z" fill="#f07281"/><path d="m224.928 167.54c-3.866 0-7 3.134-7 7v12.04c0 12.53 7.93 23.2 19.04 27.28-3.12 1.14-6.49 1.76-10 1.76-16.04 0-29.04-13-29.04-29.04l-10-10.58v-18.46l10-10h58.08l10 10v10z" fill="#eb5569"/><path d="m168.883 215.622c-16.039 0-29.041-13.002-29.041-29.041v-39.041h58.082v39.041c0 16.039-13.002 29.041-29.041 29.041z" fill="#ade194"/><path d="m166.838 167.54c-3.866 0-7 3.134-7 7v12.04c0 12.53 7.94 23.2 19.05 27.27-3.12 1.15-6.49 1.77-10.01 1.77-16.03 0-29.04-13-29.04-29.04v-39.04h58.09v20z" fill="#97da7b"/><path d="m343.133 215.622c-16.039 0-29.041-13.002-29.041-29.041l-10-10.581v-18.465l10-9.995h58.082l10 9.995v20.215l-10 8.831c0 16.039-13.002 29.041-29.041 29.041z" fill="#f07281"/><path d="m341.096 167.54c-3.866 0-7 3.134-7 7v12.04c0 12.53 7.93 23.2 19.04 27.28-3.12 1.14-6.49 1.76-10 1.76-16.04 0-29.04-13-29.04-29.04l-10-10.58v-18.46l10-10h58.08l10 10v10z" fill="#eb5569"/><path d="m285.051 215.622c-16.039 0-29.041-13.002-29.041-29.041v-39.041h58.082v39.041c0 16.039-13.003 29.041-29.041 29.041z" fill="#ade194"/><path d="m283.006 167.54c-3.866 0-7 3.134-7 7v12.04c0 12.53 7.94 23.2 19.05 27.27-3.12 1.15-6.49 1.77-10.01 1.77-16.03 0-29.04-13-29.04-29.04v-39.04h58.09v20z" fill="#97da7b"/><path d="m488.53 147.83-.11 20-.11 19.04c-.06 12.53-8.06 23.16-19.21 27.17-3.12 1.13-6.48 1.73-9.99 1.71-16.03-.08-28.97-13.16-28.88-29.2l-9.94-10.63.1-18.47 10.06-9.94z" fill="#f07281"/><path d="m450.3 174.62-.06 12.04c-.07 12.52 7.79 23.23 18.86 27.38-3.12 1.13-6.48 1.73-9.99 1.71-16.03-.08-28.97-13.16-28.88-29.2l-9.94-10.63.11-18.46 10.05-9.95 58.08.32-.11 20-31.08-.17c-3.87-.02-7.02 3.1-7.04 6.96z" fill="#eb5569"/><path d="m401.033 215.436c-16.039-.088-28.969-13.161-28.882-29.2l.214-39.04 58.081.318-.214 39.04c-.088 16.039-13.161 28.969-29.199 28.882z" fill="#ade194"/><path d="m399.251 167.343c-3.866-.021-7.017 3.096-7.038 6.961l-.066 12.04c-.069 12.53 7.813 23.243 18.9 27.374-3.126 1.133-6.5 1.734-10.02 1.715-16.03-.088-28.968-13.159-28.881-29.199l.214-39.039 58.089.318-.11 20z" fill="#97da7b"/><path d="m504.998 157.54h-497.991c-3.866 0-7-3.134-7-7v-25.384c0-3.866 3.134-7 7-7h497.991c3.866 0 7 3.134 7 7v25.384c0 3.866-3.134 7-7 7z" fill="#fedba6"/><path d="m51.511 118.151v39.384h-44.509c-3.866 0-7-3.134-7-7v-25.384c0-3.866 3.134-7 7-7z" fill="#fece85"/></g></svg>