<svg id="Capa_1" enable-background="new 0 0 512 512" height="512" viewBox="0 0 512 512" width="512" xmlns="http://www.w3.org/2000/svg"><g><path d="m236.603 346.8h38.799v78.198h-38.799z" fill="#64758a"/><path d="m236.6 346.8h20v78.2h-20z" fill="#5b6b7c"/><path d="m372.4 288.6v38.2c0 16.57-13.43 30-30 30h-172.79c-16.57 0-30-13.43-30-30v-38.2z" fill="#92a0b5"/><path d="m197.35 318.9c-3.866 0-7 3.134-7 7v20.75c0 3.56.61 6.98 1.74 10.15h-22.48c-16.569 0-30-13.431-30-30v-38.2h232.79v30.3z" fill="#7d8ea5"/><path d="m236.61 186.41h38.79v83.39h-38.79z" fill="#64758a"/><path d="m236.61 186.41h20v83.39h-20z" fill="#5b6b7c"/><path d="m256.002 201.605c-21.428 0-38.799-17.371-38.799-38.799v-29.399h77.597v29.399c.001 21.428-17.37 38.799-38.798 38.799z" fill="#92a0b5"/><path d="m294.801 133.407v29.394c-.351.351-.552.552-.903.903h-39.248c-3.866 0-7 3.134-7 7v12.394c0 6.627 1.664 12.859 4.587 18.319-19.658-1.888-35.033-18.45-35.033-38.616v-29.394z" fill="#7d8ea5"/><g><g fill="#8ac9fe"><path d="m403.586 85.209v77.598c0 4.204 3.407 7.611 7.612 7.611s7.612-3.408 7.612-7.611v-77.598c-.001-46.985-38.226-85.209-85.21-85.209-34.461 0-64.187 20.575-77.597 50.075-13.411-29.5-43.138-50.075-77.599-50.075-46.984 0-85.208 38.224-85.208 85.209v77.598c0 4.204 3.408 7.611 7.612 7.611s7.612-3.408 7.612-7.611v-77.598c0-38.591 31.396-69.986 69.986-69.986s69.986 31.395 69.986 69.986v19.399c0 4.204 3.408 7.612 7.612 7.612s7.612-3.408 7.612-7.612v-19.399c0-38.591 31.396-69.986 69.986-69.986 38.589 0 69.984 31.395 69.984 69.986z"/><path d="m333.6 54.022c17.197 0 31.188 13.991 31.188 31.187v38.798c0 4.204 3.407 7.612 7.612 7.612s7.612-3.408 7.612-7.612v-38.798c0-25.591-20.82-46.41-46.411-46.41-25.59 0-46.41 20.819-46.41 46.41v19.399c0 4.204 3.407 7.612 7.612 7.612 4.204 0 7.612-3.408 7.612-7.612v-19.399c-.002-17.197 13.988-31.187 31.185-31.187z"/><path d="m178.404 38.799c-25.591 0-46.41 20.819-46.41 46.41v38.798c0 4.204 3.408 7.612 7.612 7.612s7.611-3.408 7.611-7.612v-38.798c0-17.196 13.991-31.187 31.188-31.187 17.196 0 31.187 13.991 31.187 31.187v19.399c0 4.204 3.408 7.612 7.612 7.612s7.611-3.408 7.611-7.612v-19.399c0-25.591-20.82-46.41-46.411-46.41z"/><path d="m401.498 193.994c-30.94 0-56.111 25.171-56.111 56.11v9.7c0 4.204 3.407 7.612 7.612 7.612s7.612-3.408 7.612-7.612v-9.7c0-22.545 18.342-40.887 40.887-40.887s40.886 18.342 40.886 40.887v48.498c0 4.204 3.407 7.612 7.612 7.612s7.612-3.408 7.612-7.612v-48.498c0-30.94-25.171-56.11-56.11-56.11z"/><path d="m380.01 162.807c0-4.204-3.407-7.612-7.612-7.612-36.288 0-65.81 29.522-65.81 65.81v38.798c0 4.204 3.407 7.612 7.612 7.612s7.612-3.408 7.612-7.612v-38.798c0-27.894 22.693-50.587 50.587-50.587 4.204 0 7.611-3.408 7.611-7.611z"/><path d="m449.996 320.09c-4.204 0-7.612 3.408-7.612 7.612v48.498c0 4.204 3.407 7.612 7.612 7.612s7.612-3.408 7.612-7.612v-48.498c0-4.205-3.408-7.612-7.612-7.612z"/><path d="m110.507 193.994c-30.939 0-56.11 25.171-56.11 56.11v48.498c0 4.204 3.408 7.612 7.612 7.612s7.612-3.408 7.612-7.612v-48.498c0-22.545 18.342-40.887 40.887-40.887s40.887 18.342 40.887 40.887v9.7c0 4.204 3.408 7.612 7.611 7.612 4.204 0 7.612-3.408 7.612-7.612v-9.7c-.001-30.94-25.172-56.11-56.111-56.11z"/><path d="m139.606 155.195c-4.204 0-7.612 3.408-7.612 7.612s3.408 7.611 7.612 7.611c27.894 0 50.587 22.693 50.587 50.587v38.798c0 4.204 3.408 7.612 7.612 7.612s7.612-3.408 7.612-7.612v-38.798c-.001-36.288-29.524-65.81-65.811-65.81z"/><path d="m62.008 320.09c-4.204 0-7.612 3.408-7.612 7.612v48.498c0 4.204 3.408 7.612 7.612 7.612s7.612-3.408 7.612-7.612v-48.498c0-4.205-3.408-7.612-7.612-7.612z"/></g></g><path d="m294.801 143.407h-77.598c-10.714 0-19.399-8.685-19.399-19.399 0-10.714 8.685-19.399 19.399-19.399h77.598c10.714 0 19.4 8.685 19.4 19.399 0 10.713-8.686 19.399-19.4 19.399z" fill="#eaf6ff"/><path d="m267.947 143.408h-50.744c-10.717 0-19.404-8.687-19.404-19.404 0-5.348 2.172-10.2 5.683-13.711s8.363-5.683 13.721-5.683h50.744c-5.359 0-10.21 2.172-13.721 5.683s-5.683 8.363-5.683 13.711c0 10.716 8.687 19.404 19.404 19.404z" fill="#d8ecfe"/><path d="m372.398 298.602h-232.792c-10.714 0-19.399-8.685-19.399-19.399 0-10.714 8.685-19.399 19.399-19.399h232.792c10.714 0 19.399 8.685 19.399 19.399.001 10.714-8.684 19.399-19.399 19.399z" fill="#eaf6ff"/><path d="m190.35 298.602h-50.744c-10.717 0-19.404-8.687-19.404-19.404 0-5.348 2.172-10.2 5.683-13.711 3.512-3.511 8.363-5.683 13.721-5.683h50.744c-5.359 0-10.21 2.172-13.721 5.683-3.511 3.512-5.683 8.363-5.683 13.711 0 10.717 8.687 19.404 19.404 19.404z" fill="#d8ecfe"/><path d="m469.4 443.8v38.2c0 16.56-13.44 30-30 30h-366.79c-16.57 0-30-13.44-30-30v-38.2z" fill="#92a0b5"/><path d="m100.35 474.09c-3.866 0-7 3.134-7 7v20.76c0 3.56.61 6.97 1.74 10.15h-22.48c-16.57 0-30-13.44-30-30v-38.2h426.79v30.29z" fill="#7d8ea5"/><path d="m488.795 453.797h-465.586c-10.714 0-19.399-8.685-19.399-19.399 0-10.714 8.685-19.399 19.399-19.399h465.585c10.714 0 19.399 8.685 19.399 19.399.001 10.714-8.684 19.399-19.398 19.399z" fill="#eaf6ff"/><path d="m73.954 453.797h-50.744c-10.717 0-19.404-8.687-19.404-19.394 0-5.358 2.172-10.21 5.683-13.721s8.363-5.683 13.721-5.683h50.744c-5.358 0-10.21 2.172-13.721 5.683-3.511 3.512-5.683 8.363-5.683 13.721-.001 10.707 8.687 19.394 19.404 19.394z" fill="#d8ecfe"/></g></svg>