<svg id="Capa_1" enable-background="new 0 0 512 512" height="512" viewBox="0 0 512 512" width="512" xmlns="http://www.w3.org/2000/svg"><g><path d="m383.85 75.67v6.66l10 4.17v31.66h-275.69v-31.66l10-3.83v-7l-10-4.62v-11.05c0-33.13 26.86-60 60-60h155.69c33.13 0 60 26.87 60 60v11.05z" fill="#f07281"/><path d="m138.16 60v11.05l10 4.62v7l-10 3.83v31.66h-20v-31.66l10-3.83v-7l-10-4.62v-11.05c0-33.13 26.86-60 60-60h20c-33.14 0-60 26.87-60 60z" fill="#eb5569"/><path d="m118.159 118.156h275.687v364.455h-275.687z" fill="#f07281"/><path d="m138.16 145.16v300.45c0 3.866 3.134 7 7 7h248.69v30h-275.69v-364.45h275.69v20h-248.69c-3.866 0-7 3.134-7 7z" fill="#eb5569"/><path d="m347.462 433.228h-181.101c-3.866 0-7-3.134-7-7v-261.688c0-3.866 3.134-7 7-7h181.101c3.866 0 7 3.134 7 7v261.687c0 3.867-3.134 7.001-7 7.001z" fill="#eb5569"/><path d="m433.23 511.996h-354.455v-32.384c0-3.866 3.134-7 7-7h340.455c3.866 0 7 3.134 7 7z" fill="#92a0b5"/><path d="m130.279 472.616v39.384h-51.509v-32.384c0-3.866 3.134-7 7-7z" fill="#7d8ea5"/><path d="m308.078 354.46h-104.152c-3.866 0-7-3.134-7-7v-64.768c0-3.866 3.134-7 7-7h104.152c3.866 0 7 3.134 7 7v64.768c0 3.866-3.134 7-7 7z" fill="#eaf6ff"/><path d="m227.827 275.697v78.768h-23.906c-3.866 0-7-3.134-7-7v-64.768c0-3.866 3.134-7 7-7z" fill="#d8ecfe"/><g><path d="m256.002 322.802c-1.494 0-2.988-.433-4.286-1.298l-59.077-39.384c-3.55-2.367-4.51-7.164-2.143-10.714 2.367-3.551 7.165-4.51 10.714-2.143l54.791 36.527 54.791-36.527c3.55-2.367 8.348-1.408 10.714 2.143 2.367 3.55 1.408 8.348-2.143 10.714l-59.077 39.384c-1.296.866-2.79 1.298-4.284 1.298z" fill="#eb5569"/></g><path d="m308.078 236.308h-104.152c-3.866 0-7-3.134-7-7v-25.384c0-3.866 3.134-7 7-7h104.152c3.866 0 7 3.134 7 7v25.384c0 3.866-3.134 7-7 7z" fill="#92a0b5"/><path d="m238.129 196.919v39.384h-34.207c-3.866 0-7-3.134-7-7v-25.384c0-3.866 3.134-7 7-7z" fill="#7d8ea5"/><g><path d="m118.16 71.05h275.69v15.45h-275.69z" fill="#eaf6ff"/></g></g></svg>