<svg id="Capa_1" enable-background="new 0 0 512 512" height="512" viewBox="0 0 512 512" width="512" xmlns="http://www.w3.org/2000/svg"><g><path d="m137.347 460.601h-49.908c-8.892 0-16.101-7.209-16.101-16.101v-44.294l11.845-10.734h58.704l11.561 10.734v44.294c0 8.892-7.209 16.101-16.101 16.101z" fill="#64758a"/><path d="m424.58 460.601h-49.908c-8.892 0-16.101-7.209-16.101-16.101v-44.294l14.966-10.734h53.133l14.011 10.734v44.294c0 8.892-7.209 16.101-16.101 16.101z" fill="#64758a"/><path d="m470.96 326.1v24.15l10.74 8.92v21.04c0 11.04-8.96 20-20 20h-103.13l-14.01-10.74h-175.5l-15.61 10.74-95.02-.27c-17.79 0-28.13-14.15-28.13-31.94v-8.83l10.74-9.99v-22.54l-10.74-8.51v-52.07c0-16.57 13.43-30 30-30h391.4c16.57 0 30 13.43 30 30v52.07z" fill="#fee97d"/><path d="m481.7 378.74v1.47c0 11.04-8.96 20-20 20h-103.13l-14.01-10.74h-175.5l-15.61 10.74-95.02-.27c-17.79 0-28.13-14.15-28.13-31.94v-8.83l10.74-9.99v-22.54l-10.74-8.51v-52.07c0-16.57 13.43-30 30-30h31.79l.01.01c-5.14 7.67-8.13 16.9-8.13 26.83v83.64c0 4.49.92 8.76 2.58 12.63 4.91 11.51 16.33 19.57 29.62 19.57z" fill="#fee45a"/><path d="m314.862 51.399h-117.724c-13.861 0-26.166 8.869-30.549 22.019l-13.178 39.535 16.361 10.734h172.101l16.718-10.734-13.178-39.535c-4.384-13.149-16.69-22.019-30.551-22.019z" fill="#eaf6ff"/><path d="m358.595 112.948-16.095 10h-172.5l-16.595-10 13.181-39.533c4.39-13.149 16.691-22.015 30.549-22.015h23.314c-.064.182-.129.365-.193.547l-9.884 29.643c-1.622 4.866 1.999 9.89 7.128 9.89h133.935z" fill="#d8ecfe"/><path d="m82.072 236.061h-53.399c-15.836 0-28.673-12.837-28.673-28.672v-4.209c0-15.835 12.837-28.673 28.673-28.673h24.727c15.836 0 28.673 12.837 28.673 28.673v32.881z" fill="#fee97d"/><path d="m429.928 236.061h53.399c15.835 0 28.673-12.837 28.673-28.673v-4.209c0-15.835-12.837-28.673-28.673-28.673h-24.727c-15.835 0-28.673 12.837-28.673 28.673v32.882z" fill="#fee97d"/><path d="m105.374 359.169h-75.072v-41.036h75.072c3.866 0 7 3.134 7 7v27.036c0 3.866-3.134 7-7 7z" fill="#f07281"/><path d="m86.554 359.174h-56.257v-41.036h53.67v28.402c0 4.487.923 8.759 2.587 12.634z" fill="#eb5569"/><path d="m481.698 359.169h-75.072c-3.866 0-7-3.134-7-7v-27.036c0-3.866 3.134-7 7-7h75.072z" fill="#f07281"/><path d="m442.567 318.138v41.036h-35.422c-4.15 0-7.514-3.364-7.514-7.514v-26.008c0-4.15 3.364-7.514 7.514-7.514z" fill="#eb5569"/><path d="m440.662 236.061h-369.324l33.696-101.089c4.383-13.149 16.689-22.019 30.549-22.019h240.832c13.861 0 26.166 8.869 30.549 22.019z" fill="#fee97d"/><path d="m440.667 236.056h-369.334l33.705-101.082c4.379-13.149 16.681-22.026 30.549-22.026h1.846c-.064.182-.129.376-.193.558l-33.705 101.082h329.973z" fill="#fee45a"/><path d="m385.947 236.061-14.021 10.734h-227.56l-18.314-10.734 23.687-71.062c2.191-6.575 8.344-11.009 15.275-11.009h181.97c6.93 0 13.083 4.435 15.275 11.009z" fill="#8ac9fe"/><path d="m385.945 236.056-15.092 10.734h-226.486l-18.312-10.734 7.159-21.468h245.572z" fill="#60b7ff"/><path d="m71.338 236.061 41.036 41.037h287.252l41.036-41.037z" fill="#fee45a"/><path d="m358.59 400.206h-205.18v-37.924c0-1.993.792-3.904 2.201-5.313l36.634-36.634c1.409-1.409 3.32-2.201 5.313-2.201h116.884c1.993 0 3.904.792 5.313 2.201l36.634 36.635c1.409 1.409 2.201 3.32 2.201 5.313z" fill="#92a0b5"/><path d="m358.595 378.742v21.468h-205.19v-37.924c0-1.993.792-3.904 2.201-5.313l36.634-36.634c1.409-1.409 3.32-2.201 5.313-2.201h18.356l-17.518 17.518c-1.313 1.313-2.05 3.093-2.05 4.95v31.136c0 3.866 3.134 7 7 7z" fill="#7d8ea5"/></g></svg>