<svg id="Capa_1" enable-background="new 0 0 512 512" height="512" viewBox="0 0 512 512" width="512" xmlns="http://www.w3.org/2000/svg"><path d="m352.997 511.996h116.396v-178.124l-116.396-58.198z" fill="#eaf6ff"/><path d="m393.597 305.97v206.03h-40.595v-226.327z" fill="#d8ecfe"/><path d="m401.552 473.197h24.799c3.866 0 7-3.134 7-7v-51.198c0-10.714-8.685-19.399-19.399-19.399-10.714 0-19.399 8.685-19.399 19.399v51.198c-.001 3.866 3.133 7 6.999 7z" fill="#fee97d"/><path d="m411.55 473.2h-10c-3.86 0-7-3.14-7-7v-51.2c0-5.36 2.17-10.21 5.68-13.72s8.37-5.68 13.72-5.68c1.73 0 3.4.23 5 .65-3.35.89-6.34 2.65-8.72 5.03-3.51 3.51-5.68 8.36-5.68 13.72v51.2c0 3.86 3.14 7 7 7z" fill="#fee45a"/><g><path d="m494.122 348.294 10.893-21.786c1.755-3.509.332-7.777-3.177-9.531l-148.841-74.42-10 8.693v29l10 5.424 131.594 65.797c3.509 1.754 7.776.332 9.531-3.177z" fill="#5f99d7"/></g><path d="m353 172.21v339.786l-194 .004v-339.79l97-55.43 29.16 16.66z" fill="#eaf6ff"/><path d="m275.4 19.4h-11.788v-11.788c0-4.205-3.408-7.612-7.612-7.612s-7.612 3.407-7.612 7.612v11.788h-11.788c-4.204 0-7.611 3.407-7.611 7.612s3.408 7.612 7.611 7.612h11.788v50.586c0 4.204 3.408 7.611 7.612 7.611s7.612-3.407 7.612-7.611v-50.587h11.788c4.204 0 7.612-3.407 7.612-7.612s-3.409-7.611-7.612-7.611z" fill="#fee97d"/><path d="m159.003 511.996h-116.396v-178.124l116.396-58.198z" fill="#eaf6ff"/><path d="m158.998 275.673v30.297l-77.592 37.906v168.124h-38.803v-178.124z" fill="#d8ecfe"/><path d="m113.204 473.197h-24.798c-3.866 0-7-3.134-7-7v-51.198c0-10.714 8.685-19.399 19.399-19.399 10.714 0 19.399 8.685 19.399 19.399v51.198c0 3.866-3.133 7-7 7z" fill="#fee97d"/><path d="m98.41 473.2h-10c-3.87 0-7-3.14-7-7v-51.2c0-10.72 8.68-19.4 19.4-19.4 1.73 0 3.41.23 5 .65-8.29 2.2-14.4 9.76-14.4 18.75v51.2c0 3.86 3.13 7 7 7z" fill="#fee45a"/><g><path d="m17.878 348.294-10.893-21.786c-1.755-3.509-.332-7.777 3.177-9.531l148.841-74.42 10 7.693v28.948l-10 6.476-131.594 65.797c-3.509 1.754-7.776.332-9.531-3.177z" fill="#5f99d7"/></g><path d="m314.203 363.805v148.195h-116.406v-148.195c0-3.866 3.134-7 7-7h102.406c3.866 0 7 3.134 7 7z" fill="#8ac9fe"/><path d="m228.243 356.805v155.195h-30.446v-148.195c0-3.866 3.134-7 7-7z" fill="#60b7ff"/><ellipse cx="256" cy="240.404" fill="#fee97d" rx="38.799" ry="38.799" transform="matrix(.924 -.383 .383 .924 -72.512 116.267)"/><path d="m271.223 276.103c-4.668 1.989-9.814 3.095-15.223 3.095-21.424 0-38.799-17.365-38.799-38.799 0-21.424 17.375-38.799 38.799-38.799 5.409 0 10.555 1.106 15.223 3.106-13.863 5.917-23.576 19.668-23.576 35.693.001 16.025 9.713 29.777 23.576 35.704z" fill="#fee45a"/><g><path d="m248.388 356.805h15.223v155.195h-15.223z" fill="#5f99d7"/></g><path d="m285.16 133.44-87.36 48.77v329.79h-38.8v-339.79l97-55.43z" fill="#d8ecfe"/><g><path d="m377.165 195.476-120.151-68.658-120.151 68.658c-3.357 1.918-7.633.752-9.551-2.605l-12.188-21.329c-1.918-3.357-.752-7.633 2.605-9.551l129.718-74.124c5.929-3.388 13.205-3.388 19.134 0l129.719 74.124c3.357 1.918 4.523 6.194 2.605 9.551l-12.188 21.329c-1.919 3.357-6.195 4.523-9.552 2.605z" fill="#5f99d7"/></g></svg>