<svg id="Capa_1" enable-background="new 0 0 512 512" height="512" viewBox="0 0 512 512" width="512" xmlns="http://www.w3.org/2000/svg"><g><path d="m433.231 511.257h-118.152l-12.079-10h-94.667l-11.407 10h-118.153v-246.305h354.458z" fill="#eaf6ff"/><path d="m361.91 214.965c-1.63 7.02-4.1 13.93-7.44 20.61l-10.47 9.99h-173.33l-13.13-10c-22.07-44.14-5.68-97.83 37.27-122.13l62.6-35.4 7.47 4.31 53.37 30.81c35.99 20.78 52.75 62.78 43.66 101.81z" fill="#fee97d"/><path d="m361.91 214.965c-1.63 7.02-4.1 13.93-7.44 20.61l-10.47 9.99h-173.33l-13.13-10c-22.07-44.14-5.68-97.83 37.27-122.13l62.6-35.4 7.47 4.31-18.56 10.49c-42.95 24.3-59.34 77.99-37.27 122.12v.01z" fill="#fee45a"/><path d="m294.65 55.275c-4.85 10.41-14.13 18.35-25.41 21.4-3.99 1.08-8.24 1.54-12.63 1.29-19.64-1.14-35.63-16.97-36.95-36.59-1.29-19.04 10.97-35.42 28.09-40.49 2.51-.74 4.93 1.42 4.54 4.01-.28 1.87-.43 3.78-.44 5.74v.13c0 21.75 17.63 39.39 39.39 39.39h.05c2.66-.01 4.49 2.7 3.36 5.12z" fill="#fee97d"/><path d="m269.24 76.655v.02c-3.99 1.08-8.24 1.54-12.63 1.29-19.64-1.14-35.63-16.97-36.95-36.59-1.29-19.04 10.97-35.42 28.09-40.49 2.51-.74 4.93 1.42 4.54 4.01-.28 1.87-.43 3.78-.44 5.74v.03c-7.21 7.13-11.68 17.03-11.68 27.98 0 18.18 12.32 33.49 29.07 38.01z" fill="#fee45a"/><path d="m433.236 264.947v30.604h-316.26c-3.866 0-7 3.134-7 7v208.712h-31.208v-246.316z" fill="#d8ecfe"/><path d="m315.079 511.257h-118.153v-86.536c0-59.45 41.412-96.73 54.892-107.29 2.475-1.939 5.941-1.986 8.464-.108 13.577 10.103 54.797 45.844 54.797 107.398z" fill="#c68d7a"/><path d="m271.32 326.575c-17.49 16.73-44.39 50.24-44.39 98.15v86.53h-30v-86.53c0-59.45 41.41-96.73 54.89-107.29 2.47-1.94 5.94-1.99 8.46-.11 2.74 2.04 6.61 5.12 11.04 9.25z" fill="#bc7c63"/><path d="m150.542 432.489h-25.384c-3.866 0-7-3.134-7-7v-52.654c0-10.557 8.558-19.115 19.115-19.115h1.154c10.557 0 19.115 8.558 19.115 19.115v52.654c0 3.866-3.134 7-7 7z" fill="#ade194"/><path d="m386.847 432.489h-25.384c-3.866 0-7-3.134-7-7v-52.654c0-10.557 8.558-19.115 19.115-19.115h1.154c10.557 0 19.115 8.558 19.115 19.115v52.654c0 3.866-3.134 7-7 7z" fill="#ade194"/><path d="m135.16 432.485h-10c-3.87 0-7-3.13-7-7v-52.65c0-10.56 8.56-19.12 19.11-19.12h1.16c1.52 0 3 .18 4.42.52-8.42 1.99-14.69 9.56-14.69 18.6v52.65c0 3.87 3.13 7 7 7z" fill="#97da7b"/><path d="m371.46 432.485h-10c-3.86 0-7-3.13-7-7v-52.65c0-10.56 8.56-19.12 19.12-19.12h1.15c1.53 0 3.01.18 4.43.52-8.43 1.99-14.7 9.56-14.7 18.6v52.65c0 3.87 3.14 7 7 7z" fill="#97da7b"/><path d="m433.231 274.952h-354.458l-10-7.881v-23.231l10-8.273h354.458l10 9.998v21.506z" fill="#ade194"/><path d="m119.976 235.573v39.374h-41.208l-10-7.876v-23.231l10-8.267z" fill="#97da7b"/><g><g><path d="m49.235 85.757c-4.267 0-7.726-3.459-7.726-7.726v-39.385c0-4.268 3.459-7.726 7.726-7.726s7.727 3.459 7.727 7.726v39.385c-.001 4.267-3.46 7.726-7.727 7.726z" fill="#c68d7a"/></g><g><path d="m462.77 85.757c-4.268 0-7.726-3.459-7.726-7.726v-39.385c0-4.268 3.459-7.726 7.726-7.726 4.268 0 7.726 3.459 7.726 7.726v39.385c0 4.267-3.459 7.726-7.726 7.726z" fill="#c68d7a"/></g></g><path d="m78.773 117.415-10.773 10h-36.667l-11.636-10 19.692-39.385h19.692z" fill="#fee97d"/><path d="m19.697 146.799h59.076v364.458h-59.076z" fill="#eaf6ff"/><path d="m78.768 146.794v20.604h-31.467c-3.866 0-7 3.134-7 7v336.864h-20.604v-364.468z" fill="#d8ecfe"/><path d="m91.465 156.799h-84.461c-3.866 0-7-3.134-7-7v-25.384c0-3.866 3.134-7 7-7h84.461c3.866 0 7 3.134 7 7v25.384c0 3.866-3.134 7-7 7z" fill="#ade194"/><path d="m41.208 117.41v39.384h-34.208c-3.866 0-7-3.134-7-7v-25.384c0-3.866 3.134-7 7-7z" fill="#97da7b"/><path d="m492.308 117.415-9.641 10h-39l-10.436-10 19.693-39.385h19.692z" fill="#fee97d"/><path d="m433.231 146.799h59.076v364.458h-59.076z" fill="#eaf6ff"/><path d="m492.307 146.794v20.604h-31.467c-3.866 0-7 3.134-7 7v336.864h-20.604v-364.468z" fill="#d8ecfe"/><path d="m505 156.799h-84.461c-3.866 0-7-3.134-7-7v-25.384c0-3.866 3.134-7 7-7h84.461c3.866 0 7 3.134 7 7v25.384c0 3.866-3.134 7-7 7z" fill="#ade194"/><path d="m454.746 117.41v39.384h-34.208c-3.866 0-7-3.134-7-7v-25.384c0-3.866 3.134-7 7-7z" fill="#97da7b"/></g></svg>