<svg id="Capa_1" enable-background="new 0 0 512 512" height="512" viewBox="0 0 512 512" width="512" xmlns="http://www.w3.org/2000/svg"><g><path d="m68.773 216.421h59.384v39.384h-59.384z" fill="#60b7ff"/><path d="m383.847 216.421h59.384v39.384h-59.384z" fill="#60b7ff" transform="matrix(-1 0 0 -1 827.079 472.226)"/><path d="m216.618 68.883v-33.541c0-8.534 6.919-15.453 15.453-15.453h47.863c8.534 0 15.453 6.919 15.453 15.453v33.541z" fill="#ade194"/><path d="m295.386 48.285v20.604h-78.768v-33.55c0-8.534 6.919-15.453 15.453-15.453h15.453v21.399c0 3.866 3.134 7 7 7z" fill="#97da7b"/><path d="m393.85 88.27v295.07c0 16.57-13.43 30-30 30h-215.69c-16.57 0-30-13.43-30-30v-295.07z" fill="#ade194"/><path d="m149.06 118.88v284.16c0 3.62.62 7.07 1.77 10.3h-2.67c-16.57 0-30-13.43-30-30v-295.07h275.69v30.61z" fill="#97da7b"/><path d="m275.69 157.34v196.93c0 7.1-3.75 13.32-9.39 16.78-.03.02-.06.04-.09.06-2.98 1.81-6.47 2.85-10.21 2.85-10.87 0-19.69-8.82-19.69-19.69v-196.93c0-10.87 8.82-19.69 19.69-19.69 3.72 0 7.2 1.04 10.17 2.83.01.01.03.02.04.02 1.35.83 2.6 1.81 3.71 2.92 3.57 3.56 5.77 8.48 5.77 13.92z" fill="#97da7b"/><path d="m266.3 371.05c-.03.02-.06.04-.09.06-2.98 1.81-6.47 2.85-10.21 2.85-10.87 0-19.69-8.82-19.69-19.69v-196.93c0-10.87 8.82-19.69 19.69-19.69 3.72 0 7.2 1.04 10.17 2.83.01.01.03.02.04.02.03.03.06.05.09.07-5.63 3.45-9.38 9.68-9.38 16.77v196.92c0 7.1 3.75 13.34 9.38 16.79z" fill="#80d261"/><path d="m354.46 157.34v196.93c0 7.1-3.75 13.32-9.39 16.78-.03.02-.06.04-.09.06-2.98 1.81-6.47 2.85-10.21 2.85-10.87 0-19.69-8.82-19.69-19.69v-196.93c0-10.87 8.82-19.69 19.69-19.69 3.72 0 7.2 1.04 10.17 2.83.01.01.03.02.04.02 1.36.83 2.6 1.81 3.72 2.92 3.56 3.56 5.76 8.48 5.76 13.92z" fill="#97da7b"/><path d="m345.07 371.05c-.03.02-.06.04-.09.06-2.98 1.81-6.47 2.85-10.21 2.85-10.87 0-19.69-8.82-19.69-19.69v-196.93c0-10.87 8.82-19.69 19.69-19.69 3.72 0 7.2 1.04 10.17 2.83.01.01.03.02.04.02.03.03.06.05.09.07-5.63 3.45-9.38 9.68-9.38 16.77v196.92c0 7.1 3.75 13.34 9.38 16.79z" fill="#80d261"/><path d="m196.93 157.34v196.93c0 7.1-3.76 13.32-9.39 16.78-.03.02-.06.04-.09.06-2.98 1.81-6.48 2.85-10.22 2.85-10.87 0-19.69-8.82-19.69-19.69v-196.93c0-10.87 8.82-19.69 19.69-19.69 3.72 0 7.21 1.04 10.18 2.83.01.01.03.02.04.02 1.35.83 2.6 1.81 3.71 2.92 3.56 3.56 5.77 8.48 5.77 13.92z" fill="#97da7b"/><path d="m187.54 371.05c-.03.02-.06.04-.09.06-2.98 1.81-6.48 2.85-10.22 2.85-10.87 0-19.69-8.82-19.69-19.69v-196.93c0-10.87 8.82-19.69 19.69-19.69 3.72 0 7.21 1.04 10.18 2.83.01.01.03.02.04.02.03.03.06.05.09.07-5.64 3.45-9.4 9.68-9.4 16.77v196.92c0 7.1 3.76 13.34 9.4 16.79z" fill="#80d261"/><path d="m78.77 156.77v305.96h-39.38v-305.96c0-10.56 8.56-19.12 19.11-19.12h1.16c.1 0 .2 0 .3.01 10.42.15 18.81 8.65 18.81 19.11z" fill="#eaf6ff"/><path d="m78.77 442.13v20.6h-39.38v-305.96c0-10.56 8.56-19.12 19.12-19.12h1.15c.1 0 .2 0 .3.01.01.01.02.02.03.02v297.45c0 3.866 3.134 7 7 7z" fill="#d8ecfe"/><path d="m472.62 156.77v305.96h-39.39v-305.96c0-10.56 8.56-19.12 19.12-19.12h1.15c.11 0 .22 0 .32.01 10.41.16 18.8 8.66 18.8 19.11z" fill="#eaf6ff"/><path d="m472.62 442.13v20.6h-39.38l-.01-.3v-305.66c0-10.56 8.56-19.12 19.12-19.12h1.15c.11 0 .22 0 .32.01 0 .01.01.02.02.02v297.45c0 3.866 3.134 7 7 7z" fill="#d8ecfe"/><path d="m111.157 492.11h-111.152v-32.384c0-3.866 3.134-7 7-7h104.153c3.866 0 7 3.134 7 7v25.384c-.001 3.866-3.135 7-7.001 7z" fill="#8ac9fe"/><path d="m41.208 452.73v39.384h-34.208c-3.866 0-7-3.134-7-7v-25.384c0-3.866 3.134-7 7-7z" fill="#60b7ff"/><path d="m400.847 492.11h104.153c3.866 0 7-3.134 7-7v-25.384c0-3.866-3.134-7-7-7h-104.153c-3.866 0-7 3.134-7 7v25.384c0 3.866 3.134 7 7 7z" fill="#8ac9fe"/><path d="m435.06 452.73v39.384h-34.208c-3.866 0-7-3.134-7-7v-25.384c0-3.866 3.134-7 7-7z" fill="#60b7ff"/><path d="m393.847 98.268h-275.69c-10.876 0-19.692-8.816-19.692-19.692 0-10.876 8.816-19.692 19.692-19.692h275.69c10.876 0 19.692 8.816 19.692 19.692 0 10.875-8.816 19.692-19.692 19.692z" fill="#80d261"/><path d="m169.662 98.273h-51.51c-10.868 0-19.687-8.818-19.687-19.697 0-5.439 2.204-10.364 5.769-13.918 3.565-3.564 8.489-5.769 13.918-5.769h51.51c-5.429 0-10.353 2.205-13.918 5.769-3.564 3.554-5.769 8.478-5.769 13.918 0 10.878 8.819 19.697 19.687 19.697z" fill="#68ca44"/></g></svg>