<svg id="Capa_1" enable-background="new 0 0 512 512" height="512" viewBox="0 0 512 512" width="512" xmlns="http://www.w3.org/2000/svg"><g><path d="m433.228 482.612h-354.456v-467.607c0-8.284 6.716-15 15-15h324.455c8.284 0 15 6.716 15 15v467.607z" fill="#eaf6ff"/><path d="m433.232 452.013v30.604h-354.464v-467.164c0-8.535 6.918-15.453 15.452-15.453h23.931v444.801c0 3.983 3.229 7.211 7.211 7.211h307.87z" fill="#d8ecfe"/><path d="m393.84 54.39v245.69c0 8.28-6.71 15-15 15h-245.68c-8.29 0-15-6.72-15-15v-245.69c0-8.29 6.71-15 15-15h245.68c8.29 0 15 6.71 15 15z" fill="#92a0b5"/><path d="m154.21 315.08h-21.05c-8.29 0-15-6.72-15-15v-245.69c0-8.29 6.71-15 15-15h20.65c-8.34.21-15.05 7.05-15.05 15.45v244.79c0 8.53 6.92 15.45 15.45 15.45z" fill="#7d8ea5"/><path d="m268.692 196.924h-104.152c-3.866 0-7-3.134-7-7v-104.152c0-3.866 3.134-7 7-7h104.152c3.866 0 7 3.134 7 7v104.152c0 3.866-3.134 7-7 7z" fill="#8ac9fe"/><path d="m198.742 78.768v118.151h-34.207c-3.866 0-7-3.134-7-7v-104.151c0-3.866 3.134-7 7-7z" fill="#60b7ff"/><g><g><path d="m354.46 86.499h-39.383c-4.268 0-7.726-3.459-7.726-7.726s3.459-7.726 7.726-7.726h39.383c4.268 0 7.726 3.459 7.726 7.726s-3.459 7.726-7.726 7.726z" fill="#eaf6ff"/></g><g><path d="m354.46 125.882h-39.383c-4.268 0-7.726-3.459-7.726-7.726s3.459-7.726 7.726-7.726h39.383c4.268 0 7.726 3.459 7.726 7.726s-3.459 7.726-7.726 7.726z" fill="#eaf6ff"/></g><g><path d="m354.46 165.267h-39.383c-4.268 0-7.726-3.459-7.726-7.726 0-4.268 3.459-7.726 7.726-7.726h39.383c4.268 0 7.726 3.459 7.726 7.726s-3.459 7.726-7.726 7.726z" fill="#eaf6ff"/></g></g><circle cx="334.768" cy="256" fill="#f07281" r="19.692"/><path d="m452.92 511.996h-393.84v-32.384c0-3.866 3.134-7 7-7h379.84c3.866 0 7 3.134 7 7z" fill="#8ac9fe"/><path d="m110.59 472.616v39.384h-51.509v-32.384c0-3.866 3.134-7 7-7z" fill="#60b7ff"/><path d="m157.54 243.309h118.152v-13.309c0-3.866-3.134-7-7-7h-104.152c-3.866 0-7 3.134-7 7z" fill="#7d8ea5"/><path d="m236.311 433.228h-39.384l-39.384-39.579v-117.762l39.384-39.579h39.384l39.383 39.579v117.762z" fill="#ade194"/><path d="m198.745 236.308v196.919h-1.818l-39.389-39.578v-117.762l39.389-39.579z" fill="#97da7b"/><path d="m236.311 433.228v-24.008c0-8.504 6.872-15.41 15.376-15.453l24.008-.119v32.579c0 3.866-3.134 7-7 7h-32.384z" fill="#fee97d"/><path d="m196.927 433.228v-24.008c0-8.504-6.872-15.41-15.376-15.453l-24.007-.119v32.579c0 3.866 3.134 7 7 7h32.383z" fill="#fee45a"/><path d="m236.311 236.308v24.008c0 8.504 6.872 15.41 15.376 15.453l24.008.119v-39.579h-39.384z" fill="#fee97d"/><path d="m196.927 236.308v24.008c0 8.504-6.872 15.41-15.376 15.453l-24.007.119v-39.579h39.383z" fill="#fee45a"/><ellipse cx="217.021" cy="335.171" fill="#fee97d" rx="20.095" ry="20.095" transform="matrix(.23 -.973 .973 .23 -159.044 469.38)"/></g></svg>