<svg id="Capa_1" enable-background="new 0 0 512 512" height="512" viewBox="0 0 512 512" width="512" xmlns="http://www.w3.org/2000/svg"><g><path d="m413.532 313.251h30.561c3.866 0 7-3.134 7-7v-23.561c0-3.866-3.134-7-7-7h-30.561l-10 5.31v27.5z" fill="#92a0b5"/><path d="m98.468 313.251h-30.561c-3.866 0-7-3.134-7-7v-23.561c0-3.866 3.134-7 7-7h30.561l10 5.644v26.333z" fill="#92a0b5"/><path d="m105.468 354.458h62.076v-118.152h-62.076c-3.866 0-7 3.134-7 7v104.153c0 3.865 3.134 6.999 7 6.999z" fill="#f07281"/><path d="m126.634 236.311h40.906v118.152h-40.906z" fill="#eb5569"/><path d="m275.697 49.384h-39.384v-42.384c0-3.866 3.134-7 7-7h25.384c3.866 0 7 3.134 7 7z" fill="#92a0b5"/><path d="m275.695 29.38v20h-39.38v-42.38c0-3.866 3.134-7 7-7h20c-3.87 0-7 3.13-7 7v15.38c0 3.866 3.134 7 7 7z" fill="#7d8ea5"/><path d="m354.465 115.84v2.31h-196.92v-2.31c0-41.56 33.17-75.39 74.49-76.44h.18c.59-.01 1.19-.02 1.79-.02h44c42.23 0 76.46 34.24 76.46 76.46z" fill="#f07281"/><path d="m354.475 118.15h-.01l-11.79 10h-173.01l-12.12-10v-2.31c0-41.56 33.17-75.39 74.49-76.44h.18c.86.02 1.69.02 2.49 0-.88.79-1.75 1.62-2.58 2.45-12.5 12.49-20.82 29.17-22.68 47.75-.43 4.25 2.91 7.94 7.18 7.94h135.12c1.67 6.16 2.61 12.62 2.72 19.27.01.45.01.89.01 1.34z" fill="#eb5569"/><path d="m406.542 354.458h-62.076v-118.152h62.076c3.866 0 7 3.134 7 7v104.153c0 3.865-3.134 6.999-7 6.999z" fill="#f07281"/><path d="m344.471 236.311h40.906v118.152h-40.906z" fill="#eb5569"/><path d="m157.544 147.537h196.921v335.074h-196.921z" fill="#f07281"/><path d="m188.747 185.347v266.665h165.724v30.604h-196.931v-335.084h196.931v30.604h-158.513c-3.982 0-7.211 3.229-7.211 7.211z" fill="#eb5569"/><g><path d="m216.621 470.342c-4.267 0-7.726-3.459-7.726-7.727v-133.203c0-4.268 3.459-7.727 7.726-7.727s7.727 3.459 7.727 7.727v133.203c-.001 4.268-3.46 7.727-7.727 7.727z" fill="#eb5569"/></g><g><path d="m216.621 269.078c-4.267 0-7.726-3.459-7.726-7.726v-93.82c0-4.268 3.459-7.726 7.726-7.726s7.727 3.459 7.727 7.726v93.82c-.001 4.268-3.46 7.726-7.727 7.726z" fill="#eb5569"/></g><g><path d="m295.389 470.342c-4.267 0-7.727-3.459-7.727-7.727v-133.203c0-4.268 3.459-7.727 7.727-7.727 4.267 0 7.726 3.459 7.726 7.727v133.203c.001 4.268-3.459 7.727-7.726 7.727z" fill="#eb5569"/></g><g><path d="m295.389 269.078c-4.267 0-7.727-3.459-7.727-7.726v-93.82c0-4.268 3.459-7.726 7.727-7.726 4.267 0 7.726 3.459 7.726 7.726v93.82c.001 4.268-3.459 7.726-7.726 7.726z" fill="#eb5569"/></g><ellipse cx="256.005" cy="295.382" fill="#eaf6ff" rx="59.076" ry="59.076" transform="matrix(.707 -.707 .707 .707 -133.885 267.538)"/><path d="m271.458 352.413c-4.924 1.339-10.106 2.05-15.453 2.05-32.626 0-59.081-26.455-59.081-59.081s26.455-59.071 59.081-59.071c5.347 0 10.529.711 15.453 2.05-25.137 6.789-43.629 29.742-43.629 57.021s18.492 50.242 43.629 57.031z" fill="#d8ecfe"/><path d="m256.005 313.251c-9.853 0-17.869-8.016-17.869-17.868 0-9.853 8.016-17.869 17.869-17.869s17.868 8.016 17.868 17.869c0 9.852-8.015 17.868-17.868 17.868z" fill="#92a0b5"/><path d="m386.85 157.537h-261.69c-3.866 0-7-3.134-7-7v-25.384c0-3.866 3.134-7 7-7h261.69c3.866 0 7 3.134 7 7v25.384c0 3.866-3.134 7-7 7z" fill="#f07281"/><path d="m169.665 118.148v39.384h-44.509c-3.866 0-7-3.134-7-7v-25.384c0-3.866 3.134-7 7-7z" fill="#eb5569"/><path d="m393.85 511.996h-275.69v-32.384c0-3.866 3.134-7 7-7h261.69c3.866 0 7 3.134 7 7z" fill="#92a0b5"/><path d="m169.665 472.616v39.384h-51.509v-32.384c0-3.866 3.134-7 7-7z" fill="#7d8ea5"/></g></svg>