<svg id="Capa_1" enable-background="new 0 0 512 512" height="512" viewBox="0 0 512 512" width="512" xmlns="http://www.w3.org/2000/svg"><g><path d="m472.616 354.459-11.966 10.301h-409.141l-12.12-10.301v-236.306l15.039-10.302h406.222l11.966 10.302z" fill="#eaf6ff"/><path d="m90.894 145.752v181.108c0 3.866 3.134 7 7 7h374.726v20.604l-11.97 10.302h-409.141l-12.125-10.302v-236.316l15.731-10.302h405.535l11.97 10.302v20.604h-374.726c-3.866 0-7 3.134-7 7z" fill="#d8ecfe"/><g><path d="m196.926 440.953h-78.768c-4.267 0-7.726-3.459-7.726-7.726v-39.384c0-4.268 3.459-7.726 7.726-7.726s7.726 3.459 7.726 7.726v31.657h71.042c4.267 0 7.726 3.459 7.726 7.727 0 4.267-3.459 7.726-7.726 7.726z" fill="#5f99d7"/></g><g><path d="m393.848 440.953c-.031 0-.061 0-.092-.001l-78.768-.948c-4.268-.051-7.684-3.551-7.633-7.818.05-4.235 3.5-7.634 7.723-7.634.032 0 .063 0 .095.001l70.949.853v-31.564c0-4.268 3.459-7.726 7.726-7.726 4.268 0 7.727 3.459 7.727 7.726v39.384c0 2.065-.827 4.044-2.296 5.496-1.447 1.43-3.399 2.231-5.431 2.231z" fill="#5f99d7"/></g><g><path d="m59.081 86.495c-4.267 0-7.726-3.459-7.726-7.726v-39.385c0-4.268 3.459-7.727 7.726-7.727s7.726 3.459 7.726 7.727v39.385c0 4.267-3.459 7.726-7.726 7.726z" fill="#5f99d7"/></g><g><path d="m157.542 86.495c-4.267 0-7.726-3.459-7.726-7.726v-39.385c0-4.268 3.459-7.727 7.726-7.727s7.727 3.459 7.727 7.727v39.385c-.001 4.267-3.46 7.726-7.727 7.726z" fill="#5f99d7"/></g><g><path d="m256.002 86.495c-4.267 0-7.727-3.459-7.727-7.726v-39.385c0-4.268 3.459-7.727 7.727-7.727s7.726 3.459 7.726 7.727v39.385c.001 4.267-3.458 7.726-7.726 7.726z" fill="#5f99d7"/></g><g><path d="m354.463 86.495c-4.268 0-7.726-3.459-7.726-7.726v-39.385c0-4.268 3.459-7.727 7.726-7.727 4.268 0 7.726 3.459 7.726 7.727v39.385c0 4.267-3.459 7.726-7.726 7.726z" fill="#5f99d7"/></g><g><path d="m452.923 86.495c-4.268 0-7.726-3.459-7.726-7.726v-39.385c0-4.268 3.459-7.727 7.726-7.727 4.268 0 7.726 3.459 7.726 7.727v39.385c.001 4.267-3.458 7.726-7.726 7.726z" fill="#5f99d7"/></g><g fill="#f07281"><path d="m465.616 39.384h-25.384c-3.866 0-7-3.134-7-7v-13.269c0-10.557 8.558-19.115 19.115-19.115h1.154c10.557 0 19.115 8.558 19.115 19.115v13.269c0 3.866-3.134 7-7 7z"/><path d="m367.155 39.384h-25.384c-3.866 0-7-3.134-7-7v-13.269c0-10.557 8.558-19.115 19.115-19.115h1.154c10.557 0 19.115 8.558 19.115 19.115v13.269c0 3.866-3.134 7-7 7z"/><path d="m268.694 39.384h-25.384c-3.866 0-7-3.134-7-7v-13.269c0-10.557 8.558-19.115 19.115-19.115h1.154c10.557 0 19.115 8.558 19.115 19.115v13.269c0 3.866-3.134 7-7 7z"/><path d="m170.234 39.384h-25.384c-3.866 0-7-3.134-7-7v-13.269c-.001-10.557 8.558-19.115 19.114-19.115h1.154c10.557 0 19.115 8.558 19.115 19.115v13.269c.001 3.866-3.133 7-6.999 7z"/><path d="m71.773 39.384h-25.384c-3.866 0-7-3.134-7-7v-13.269c0-10.557 8.558-19.115 19.115-19.115h1.154c10.557 0 19.115 8.558 19.115 19.115v13.269c0 3.866-3.134 7-7 7z"/></g><g><path d="m315.079 393.842v118.154h-118.153v-118.154l17.525-10.301h84.476z" fill="#92a0b5"/></g><g><path d="m315.084 393.848v20.604h-59.442c-3.983 0-7.211 3.229-7.211 7.211v90.337h-51.509v-118.152l15.47-10.302h87.223z" fill="#7d8ea5"/></g><path d="m505 118.153h-497.996c-3.866 0-7-3.134-7-7v-25.384c0-3.866 3.134-7 7-7h497.996c3.866 0 7 3.134 7 7v25.384c0 3.866-3.134 7-7 7z" fill="#8ac9fe"/><path d="m51.509 78.764v39.384h-44.298c-3.983 0-7.211-3.229-7.211-7.211v-24.962c0-3.983 3.229-7.211 7.211-7.211z" fill="#60b7ff"/><path d="m505 393.843h-497.996c-3.866 0-7-3.134-7-7v-25.384c0-3.866 3.134-7 7-7h497.996c3.866 0 7 3.134 7 7v25.384c0 3.866-3.134 7-7 7z" fill="#8ac9fe"/><path d="m51.509 354.463v39.384h-44.298c-3.983 0-7.211-3.229-7.211-7.211v-24.962c0-3.983 3.229-7.211 7.211-7.211z" fill="#60b7ff"/></g></svg>