<svg id="Capa_1" enable-background="new 0 0 512 512" height="512" viewBox="0 0 512 512" width="512" xmlns="http://www.w3.org/2000/svg"><g><path d="m236.311.004h39.384v442.275h-39.384z" fill="#92a0b5"/><path d="m236.316 0h20.604v442.285h-20.604z" fill="#7d8ea5"/><path d="m285.54 482.612h-59.076v-42.384c0-3.866 3.134-7 7-7h45.076c3.866 0 7 3.134 7 7z" fill="#eaf6ff"/><path d="m285.54 462.61v20h-59.08v-42.38c0-3.866 3.134-7 7-7h13v22.38c0 3.866 3.134 7 7 7z" fill="#d8ecfe"/><path d="m364.667 275.692h-200.124c-3.866 0-7-3.134-7-7v-64.768c0-3.866 3.134-7 7-7h200.124z" fill="#eaf6ff"/><path d="m147.5 157.54h199.962c3.866 0 7-3.134 7-7v-64.768c0-3.866-3.134-7-7-7h-199.962z" fill="#eaf6ff"/><path d="m354.462 512h-196.919v-32.388c0-3.866 3.134-7 7-7h182.919c3.866 0 7 3.134 7 7z" fill="#8ac9fe"/><path d="m209.047 472.616v39.384h-51.509v-32.384c0-3.866 3.134-7 7-7z" fill="#60b7ff"/><path d="m364.667 255.083.028 20.604h-200.157c-3.866 0-7-3.134-7-7v-64.768c0-3.866 3.134-7 7-7h44.509v50.953c0 3.983 3.229 7.211 7.211 7.211z" fill="#d8ecfe"/><path d="m354.462 275.692v-78.768h36.484c1.857 0 3.637.738 4.95 2.05l32.384 32.384c2.734 2.734 2.734 7.166 0 9.9l-32.384 32.384c-1.313 1.313-3.093 2.05-4.95 2.05z" fill="#f07281"/><path d="m414.455 255.083-18.554 18.554c-1.312 1.312-3.092 2.05-4.948 2.05l-36.485.01v-20.614z" fill="#eb5569"/><path d="m354.467 136.932v13.604c0 3.866-3.134 7-7 7h-199.967v-78.766l10.042.002-.005 46.034 12.125 12.125h184.805z" fill="#d8ecfe"/><path d="m157.542 157.54v-78.768h-36.484c-1.856 0-3.637.738-4.95 2.05l-32.384 32.384c-2.734 2.734-2.734 7.166 0 9.9l32.384 32.384c1.313 1.313 3.093 2.05 4.95 2.05z" fill="#ade194"/><path d="m157.538 124.806v32.729h-36.484c-1.856 0-3.637-.738-4.95-2.05l-32.384-32.384c-2.734-2.734-2.734-7.166 0-9.899l32.384-32.384c1.313-1.313 3.093-2.05 4.95-2.05h28.006l-18.78 18.78z" fill="#97da7b"/></g></svg>