<svg id="Capa_1" enable-background="new 0 0 512.077 512.077" height="512" viewBox="0 0 512.077 512.077" width="512" xmlns="http://www.w3.org/2000/svg"><g><path d="m111.854 443.573-23.636-47.25-.043-201.783 23.615-47.26 288.426-.062 23.636 47.25.043 201.784-23.616 47.26z" fill="#fedba6"/><path d="m118.16 157.58-19.683 39.389.042 196.921 19.7 39.38 275.69-.059 19.684-39.388-.042-196.921-19.701-39.381z" fill="#fedba6"/><path d="m139.685 196.955.042 196.931 19.687-.004.008 39.384-41.208.009-.007-32.384c-.001-3.866-3.135-6.999-7.001-6.999l-12.687.003-.042-196.931 12.687-.003c3.866-.001 6.999-3.135 6.998-7.002l-.007-32.384 41.208-.009.008 39.384z" fill="#fece85"/><path d="m354.481 204.12.031 143.124c.001 2.38-1.163 4.502-2.945 5.811-1.195.886-2.668 1.402-4.264 1.402l-182.509.039c-1.803 0-3.461-.659-4.729-1.771-1.515-1.318-2.484-3.265-2.484-5.439l-.031-143.124c-.001-3.976 3.233-7.212 7.21-7.213l182.509-.039c3.975 0 7.211 3.234 7.212 7.21z" fill="#eaf6ff"/><path d="m351.566 353.056c-1.195.886-2.668 1.402-4.264 1.402l-182.509.039c-1.803 0-3.461-.659-4.729-1.771l72.823-52.009c2.132-1.515 4.924-1.763 7.294-.64z" fill="#ade194"/><path d="m59.113 186.671h39.384v217.525h-39.384z" fill="#92a0b5"/><path d="m59.114 186.668h20.604v217.535h-20.604z" fill="#7d8ea5"/><path d="m413.572 196.897h39.384v196.921h-39.384z" fill="#92a0b5"/><path d="m413.571 196.894h20.604v196.931h-20.604z" fill="#7d8ea5"/><path d="m118.219 433.27-11.516 10.304-55.13.012-12.123-10.299-.007-32.173c-.001-3.983 3.227-7.212 7.21-7.213l64.557-.014c3.866-.001 7.001 3.133 7.002 6.999z" fill="#64758a"/><path d="m80.645 393.899.011 49.686-29.082.006-12.128-10.299-.007-32.173c-.001-3.983 3.227-7.212 7.21-7.213z" fill="#5b6b7c"/><path d="m111.169 196.966-64.557.014c-3.983.001-7.212-3.227-7.213-7.21l-.007-32.173 12.118-10.305 54.428-.012 12.222 10.299.007 32.384c.001 3.868-3.132 7.002-6.998 7.003z" fill="#64758a"/><path d="m80.595 157.583.008 39.384-33.996.007c-3.983.001-7.212-3.227-7.213-7.21l-.007-32.173z" fill="#5b6b7c"/><path d="m472.678 433.194-10.917 10.304-56.332.012-11.52-10.299-.007-32.384c-.001-3.866 3.133-7.001 6.999-7.001l64.557-.014c3.983-.001 7.212 3.227 7.213 7.21z" fill="#64758a"/><path d="m435.113 393.823.011 49.686-29.697.006-11.513-10.299-.007-32.384c-.001-3.866 3.133-7.001 6.999-7.001z" fill="#5b6b7c"/><path d="m465.416 196.891-64.557.014c-3.866.001-7.001-3.132-7.001-6.998l-.007-32.384 14.964-10.305 51.509-.011 12.295 10.299.007 32.173c0 3.981-3.228 7.211-7.21 7.212z" fill="#64758a"/><path d="m435.06 147.206.011 49.686-34.208.007c-3.866.001-7.001-3.132-7.001-6.998l-.007-32.384 14.96-10.305z" fill="#5b6b7c"/><path d="m273.961.01-35.979.008c-1.119 0-2.224.261-3.225.762l-230.772 115.447c-2.443 1.222-3.986 3.719-3.985 6.451l.006 27.716c.001 3.983 3.23 7.211 7.213 7.21l497.573-.106c3.983-.001 7.211-3.23 7.21-7.213l-.006-27.716c-.001-2.731-1.544-5.228-3.988-6.449l-230.822-115.349c-1.001-.501-2.105-.761-3.225-.761z" fill="#92a0b5"/><path d="m123.108 102.711 121.386-60.725c1.001-.501 2.105-.762 3.225-.762l16.524-.004c1.119 0 2.224.26 3.225.761l121.412 60.673c6.807 3.402 4.388 13.66-3.222 13.662l-259.322.055c-7.61.002-10.034-10.256-3.228-13.66z" fill="#eaf6ff"/><circle cx="295.41" cy="255.092" fill="#fedba6" r="19.692"/><path d="m492.378 472.574-14.126 10.305-447.274.096-11.211-10.3-.007-32.173c-.001-3.983 3.227-7.212 7.21-7.213l458.188-.098c3.983-.001 7.212 3.227 7.213 7.21z" fill="#92a0b5"/><path d="m71.269 433.285.011 49.686-40.301.009-11.211-10.3-.007-32.173c-.001-3.983 3.227-7.212 7.21-7.213z" fill="#7d8ea5"/><path d="m512.072 479.569.005 25.39c.001 3.86-3.128 7.001-6.998 7.001l-498 .107c-3.86.001-7.001-3.138-7.002-6.999l-.006-25.39c-.001-3.86 3.139-7.001 6.998-7.002l498-.107c3.871.001 7.002 3.14 7.003 7z" fill="#64758a"/><path d="m51.58 472.678.008 39.38-44.51.01c-3.86.001-7.001-3.138-7.002-6.999l-.006-25.39c-.001-3.86 3.139-7.001 6.998-7.002l44.46-.01z" fill="#5b6b7c"/></g></svg>