<svg id="Capa_1" enable-background="new 0 0 512 512" height="512" viewBox="0 0 512 512" width="512" xmlns="http://www.w3.org/2000/svg"><g><path d="m472.99 109.306v8.74l-13.09 10h-248.23l-14.74-10v-8.74c0-16.57 13.43-30 30-30h216.06c16.57 0 30 13.43 30 30z" fill="#8ac9fe"/><path d="m279.34 79.306c-17.06 0-30.91 13.84-30.91 30.9v17.84h-36.76l-14.74-10v-8.74c0-16.57 13.43-30 30-30z" fill="#60b7ff"/><path d="m502 322.006v25.7l10 6.65v32.38c0 3.866-3.134 7-7 7h-190.041l-9.625-10h-98.667l-9.741 10h-189.926c-3.866 0-7-3.134-7-7v-32.38l10-6.65v-26.36l-10-6.38v-39.38l10-8.24v-101.34l-10-8.58v-9.38c0-16.568 13.432-30 30-30h452c16.568 0 30 13.431 30 30v166.92z" fill="#f07281"/><path d="m72.11 118.046c-17.06 0-30.9 13.84-30.9 30.9v244.79h-34.21c-3.866 0-7-3.134-7-7v-32.38l10-6.65v-26.36l-10-6.38v-39.38l10-8.24v-101.34l-10-8.58v-9.38c0-16.568 13.432-30 30-30z" fill="#eb5569"/><path d="m32.389 354.352h-32.385v-39.384h32.384c3.866 0 7 3.134 7 7v25.384c.001 3.866-3.133 7-6.999 7z" fill="#fee97d"/><path d="m512 354.352h-32.384c-3.866 0-7-3.134-7-7v-25.384c0-3.866 3.134-7 7-7h32.384z" fill="#fee97d"/><path d="m472.62 164.426v104.163c0 3.866-3.134 7-7 7h-465.62v-118.163h465.62c3.866 0 7 3.134 7 7z" fill="#8ac9fe"/><path d="m0 157.426h41.208v118.163h-41.208z" fill="#60b7ff"/><path d="m196.926 157.431h118.033v236.306h-118.033z" fill="#8ac9fe"/><path d="m196.921 157.436h51.509v236.305h-51.509z" fill="#60b7ff"/><g><path d="m125.879 157.426v182.55c0 4.265-3.451 7.726-7.726 7.726-4.265 0-7.726-3.461-7.726-7.726v-182.55z" fill="#60b7ff"/></g><g><path d="m386.126 157.426h15.453v118.163h-15.453z" fill="#60b7ff"/></g><g><path d="m314.96 157.426h15.453v118.163h-15.453z" fill="#60b7ff"/></g><circle cx="118.157" cy="386.336" fill="#64758a" r="46.359"/><ellipse cx="118.158" cy="386.336" fill="#eaf6ff" rx="17.513" ry="17.513" transform="matrix(.16 -.987 .987 .16 -282.116 441.084)"/><circle cx="413.539" cy="386.336" fill="#64758a" r="46.359"/><ellipse cx="413.54" cy="386.336" fill="#eaf6ff" rx="17.513" ry="17.513" transform="matrix(.16 -.987 .987 .16 -34.049 732.652)"/></g></svg>