<svg id="Capa_1" enable-background="new 0 0 512 512" height="512" viewBox="0 0 512 512" width="512" xmlns="http://www.w3.org/2000/svg"><g><ellipse cx="413.18" cy="407.478" fill="#64758a" rx="46.706" ry="46.706" transform="matrix(.707 -.707 .707 .707 -167.113 411.51)"/><ellipse cx="413.18" cy="407.478" fill="#eaf6ff" rx="17.644" ry="17.644" transform="matrix(.25 -.968 .968 .25 -84.499 705.927)"/><g><path d="m214.784 361.528c-4.299 0-7.784-3.485-7.784-7.784v-57.847c0-4.3 3.485-7.784 7.784-7.784s7.784 3.485 7.784 7.784v57.847c0 4.299-3.485 7.784-7.784 7.784z" fill="#60b7ff"/></g><path d="m283.126 295.897h-81.182c-3.866 0-7-3.134-7-7v-25.679c0-3.866 3.134-7 7-7h81.182z" fill="#8ac9fe"/><path d="m441.131 128.632v177.648h-69.301c-31.947 0-47.464 25.896-47.464 57.843h-51.615v-276.893l126.863-.114c25.585 0 41.517 10.384 41.517 41.516z" fill="#fee97d"/><path d="m472.415 295.897.289-175.806c0-34.393-27.881-62.274-62.275-62.274h-281.479c-12.175 0-23.233 7.096-28.306 18.164l-9.861 21.515 5.606 9.587-43.749 95.447-16.418 14.003v53.899c0 68.834 51.179 124.611 114.274 124.549l358.819-.155c1.46-.001 2.65-1.173 2.671-2.634.526-36.158-13.773-70.954-39.571-96.295zm-44.336 0h-56.25c-31.948 0-57.847 25.899-57.847 57.848h-151.457c-4.013 0-7.265-3.253-7.265-7.265v-241.72c0-4.013 3.253-7.265 7.265-7.265h237.089c17.197 0 31.137 13.941 31.137 31.137v164.592c.001 1.476-1.196 2.673-2.672 2.673z" fill="#ade194"/><ellipse cx="82.933" cy="407.478" fill="#64758a" rx="46.706" ry="46.706" transform="matrix(.225 -.974 .974 .225 -332.755 396.499)"/><ellipse cx="82.933" cy="407.478" fill="#eaf6ff" rx="17.644" ry="17.644" transform="matrix(.707 -.707 .707 .707 -263.84 177.99)"/><path d="m108.969 386.521-103.199-21.642c-4.141-.868-6.64-5.071-5.489-9.143 6.378-22.555 20.541-41.849 39.397-54.791 3.908 16.929 26.695 21.256 36.223 34.63 12.565 17.637 13.677 42.712 33.068 50.946z" fill="#fee97d"/><path d="m371.83 295.902c-31.947 0-57.843 25.896-57.843 57.843h31.137c0-31.947 25.896-57.843 57.843-57.843zm-304.471-25.471v-53.899l48.221-105.202 16.202-35.351c5.075-11.064 16.129-18.163 28.304-18.163h-31.137c-12.175 0-23.228 7.099-28.304 18.163l-9.86 21.516-54.563 119.038v53.899c0 68.834 51.179 124.611 114.274 124.549l30.11-.01c-62.618-.541-113.247-56.079-113.247-124.54z" fill="#97da7b"/><path d="m36.222 216.533h48.226c17.197 0 31.137-13.941 31.137-31.137v-80.896c0-3.866-3.134-7-7-7h-17.805z" fill="#8ac9fe"/><path d="m115.581 104.495v6.835l-48.222 105.203h-31.137l54.563-119.038h17.796c3.866 0 7 3.134 7 7z" fill="#60b7ff"/><circle cx="95.746" cy="276.057" fill="#fee97d" r="19.84"/><path d="m100.75 295.27c-1.6.41-3.27.63-5 .63-10.96 0-19.84-8.89-19.84-19.84 0-10.96 8.88-19.84 19.84-19.84 1.73 0 3.4.22 5 .63-8.54 2.22-14.84 9.98-14.84 19.21 0 9.22 6.3 16.99 14.84 19.21z" fill="#fee45a"/><g><path d="m272.751 208.754h158.001v15.569h-158.001z" fill="#fee45a"/></g></g></svg>