<svg id="Capa_1" enable-background="new 0 0 512 512" height="512" viewBox="0 0 512 512" width="512" xmlns="http://www.w3.org/2000/svg"><g><path d="m512 186.838v207.22l-10.31 10.3v20.46l10.31 8.62v23.93c0 8.54-6.92 15.46-15.46 15.46h-181.46l-8.22-10.3h-31.66l-11.47 10.3h-15.46l-11.96-10.3h-26.35l-13.04 10.3h-181.46c-8.54 0-15.46-6.92-15.46-15.46v-23.93l10.31-11.37v-17.71l-10.31-10.3v-31.05c0-5.2 2.62-10.06 6.97-12.91l52.94-34.81 10.3-11.96v-53.64l-10.3-13.17v-49.68z" fill="#f07281"/><path d="m512 186.828v30.91h-421.19v114.375c0 2.356-1.185 4.554-3.154 5.849l-49.786 32.736c-4.35 2.85-6.96 7.72-6.96 12.91v89.22h-15.45c-8.538 0-15.46-6.922-15.46-15.46v-23.93l10.31-11.37v-17.71l-10.31-10.3v-31.05c0-5.2 2.62-10.06 6.97-12.91l52.94-34.81 10.3-11.96v-53.64l-10.3-13.17v-49.69z" fill="#eb5569"/><path d="m32.388 433.441h-32.384v-39.384h32.384c3.866 0 7 3.134 7 7v25.384c0 3.866-3.134 7-7 7z" fill="#fee97d"/><path d="m479.612 433.441h32.384v-39.384h-32.384c-3.866 0-7 3.134-7 7v25.384c0 3.866 3.134 7 7 7z" fill="#fee97d"/><path d="m151.339 315.289h-91.46v-78.768h91.46c3.866 0 7 3.134 7 7v64.768c0 3.866-3.134 7-7 7z" fill="#8ac9fe"/><path d="m59.874 236.516h30.936v78.778h-30.936z" fill="#60b7ff"/><g fill="#8ac9fe"><path d="m354.46 236.521h51.349v78.768h-51.349z"/><path d="m421.262 236.521v78.768h44.138c3.983 0 7.211-3.229 7.211-7.211v-64.345c0-3.983-3.229-7.211-7.211-7.211h-44.138z"/></g><g fill="#8ac9fe"><path d="m248.274 236.521h-44.138c-3.983 0-7.211 3.229-7.211 7.211v229.092h51.35v-236.303z"/><path d="m263.726 236.521v236.304h51.35v-229.092c0-3.983-3.229-7.211-7.211-7.211h-44.139z"/></g><ellipse cx="105.439" cy="465.424" fill="#64758a" rx="46.358" ry="46.358" transform="matrix(.234 -.972 .972 .234 -371.734 458.832)"/><ellipse cx="105.439" cy="465.424" fill="#eaf6ff" rx="17.513" ry="17.513" transform="matrix(.707 -.707 .707 .707 -298.222 210.876)"/><ellipse cx="413.536" cy="465.424" fill="#64758a" rx="46.358" ry="46.358" transform="matrix(.23 -.973 .973 .23 -134.449 760.965)"/><ellipse cx="413.536" cy="465.424" fill="#eaf6ff" rx="17.513" ry="17.513" transform="matrix(.23 -.973 .973 .23 -134.449 760.965)"/><path d="m227.825 236.527v236.303h-30.905v-229.092c0-3.983 3.229-7.211 7.211-7.211z" fill="#60b7ff"/><path d="m354.465 236.527h30.905v78.768h-30.905z" fill="#60b7ff"/><path d="m.004 394.057h30.906v39.384h-30.906z" fill="#fee45a"/><path d="m512 15.668v181.47h-496.54c-8.54 0-15.46-6.92-15.46-15.45v-43.63l10.31-11.99v-50.14l-10.31-13.9v-46.36c0-8.53 6.92-15.45 15.46-15.45h481.08c8.54 0 15.46 6.92 15.46 15.45z" fill="#f07281"/><path d="m45.46 197.138h-30c-8.54 0-15.46-6.92-15.46-15.45v-43.63l10.31-11.99v-50.14l-10.31-13.9v-46.36c0-8.53 6.92-15.45 15.46-15.45h30c-8.54 0-15.46 6.92-15.46 15.45v166.02c0 8.53 6.92 15.45 15.46 15.45z" fill="#eb5569"/><path d="m71.046 138.061v-76.032h-71.042v76.032z" fill="#8ac9fe"/><path d="m0 62.028h30v76.03h-30z" fill="#60b7ff"/><g fill="#8ac9fe"><path d="m149.434 138.061v-76.032h-62.935v76.032z"/><path d="m228.581 138.061v-76.032h-63.695v76.032z"/><path d="m306.86 138.552v-76.033h-63.316v76.033z"/><path d="m385.288 138.061v-75.542h-62.975v76.033h63c-.011-.163-.025-.325-.025-.491z"/><path d="m400.74 62.519v75.542c0 .166-.014.328-.025.491h64.194c3.983 0 7.211-3.229 7.211-7.211v-61.611c0-3.983-3.229-7.211-7.211-7.211z"/></g></g></svg>