<svg id="Capa_1" enable-background="new 0 0 511.992 511.992" height="512" viewBox="0 0 511.992 511.992" width="512" xmlns="http://www.w3.org/2000/svg"><g><path d="m83.961 386.051 19.116-114.695 11.477-8.86 3.644-21.865-8.751-7.495 11.769-70.616c.563-3.375 3.483-5.849 6.905-5.849h26.37c3.422 0 6.342 2.474 6.905 5.849l11.768 70.611-8.75 7.5 3.644 21.865 11.513 9.077 19.08 114.478-19.08 10h-76.496z" fill="#eaf6ff"/><path d="m198.646 386.056-19.075 10h-76.495l-19.12-10 19.12-114.7 6.37-38.22 11.765-70.62c.562-3.376 3.483-5.85 6.905-5.85h20.74l-12.75 76.47-6.38 38.3-14.412 86.469c-.711 4.267 2.579 8.151 6.905 8.151h73.097z" fill="#d8ecfe"/><path d="m109.447 233.131h63.717l6.407 38.442-76.495-.212z" fill="#8ac9fe"/><path d="m136.106 233.136-6.38 38.3-26.65-.08 6.37-38.22z" fill="#60b7ff"/><path d="m398.031 233.131h-16.46c-16.568 0-30 13.432-30 30v122.92l16.092 10h47.333l13.035-10v-122.92c0-16.569-13.431-30-30-30z" fill="#f07281"/><path d="m428.036 366.056v20l-13.04 10h-46l-17.42-10v-122.92c0-16.569 13.431-30 30-30h1.71c-1.11 3.12-1.71 6.49-1.71 10v115.92c0 3.866 3.134 7 7 7z" fill="#eb5569"/><path d="m283.341 233.131h-16.46c-16.568 0-30 13.432-30 30v122.92l19.115 10h47l10.345-10v-122.92c0-16.569-13.431-30-30-30z" fill="#f07281"/><path d="m313.346 366.056v20l-9.017 10h-51.333l-16.11-10v-122.92c0-16.569 13.432-30 30-30h1.71c-1.11 3.12-1.71 6.49-1.71 10v115.92c0 3.866 3.134 7 7 7z" fill="#eb5569"/><g><path d="m389.802 240.631c-4.143 0-7.5-3.357-7.5-7.5v-27.345c0-12.406-10.094-22.5-22.5-22.5h-54.69c-12.406 0-22.5 10.094-22.5 22.5v27.345c0 4.143-3.357 7.5-7.5 7.5-4.142 0-7.5-3.357-7.5-7.5v-27.345c0-20.678 16.822-37.5 37.5-37.5h54.69c20.678 0 37.5 16.822 37.5 37.5v27.345c0 4.142-3.358 7.5-7.5 7.5z" fill="#8ac9fe"/></g><g><g><path d="m313.342 297.976h-76.461c-4.143 0-7.5-3.358-7.5-7.5 0-4.143 3.357-7.5 7.5-7.5h76.461c4.143 0 7.5 3.357 7.5 7.5s-3.358 7.5-7.5 7.5z" fill="#8ac9fe"/></g></g><g><g><path d="m313.342 355.321h-76.461c-4.143 0-7.5-3.357-7.5-7.5s3.357-7.5 7.5-7.5h76.461c4.143 0 7.5 3.357 7.5 7.5s-3.358 7.5-7.5 7.5z" fill="#8ac9fe"/></g></g><g><g><path d="m428.031 297.976h-76.46c-4.143 0-7.5-3.358-7.5-7.5 0-4.143 3.357-7.5 7.5-7.5h76.46c4.142 0 7.5 3.357 7.5 7.5s-3.357 7.5-7.5 7.5z" fill="#8ac9fe"/></g></g><g><g><path d="m428.031 355.321h-76.46c-4.143 0-7.5-3.357-7.5-7.5s3.357-7.5 7.5-7.5h76.46c4.142 0 7.5 3.357 7.5 7.5s-3.357 7.5-7.5 7.5z" fill="#8ac9fe"/></g></g><path d="m466.266 455.016-10 7.5 10 7.5v30.73h-420.54v-30.73l10-7.5-10-7.5v-61.96c0-3.87 3.14-7 7-7h406.54c3.86 0 7 3.13 7 7z" fill="#92a0b5"/><path d="m160.421 118.44c0-10.521 8.594-19.016 19.114-18.894l58.676.679c20.31.235 36.9-16.164 36.9-36.476h131.15c33.137 0 60-26.863 60-60h-191.15c-31.671 0-57.345 25.674-57.345 57.345h-38.23c-31.671 0-57.345 25.674-57.345 57.345h38.23z" fill="#92a0b5"/><path d="m466.266 480.746v20h-420.54v-30.73l10-7.5-10-7.5v-61.96c0-3.87 3.14-7 7-7h23v94.69z" fill="#7d8ea5"/><g fill="#8ac9fe"><path d="m115.191 424.281h-24.23c-3.866 0-7 3.134-7 7v31.23h38.23v-31.23c0-3.866-3.134-7-7-7z"/><path d="m191.651 424.281h-24.23c-3.866 0-7 3.134-7 7v31.23h38.23v-31.23c0-3.866-3.134-7-7-7z"/><path d="m268.111 424.281h-24.23c-3.866 0-7 3.134-7 7v31.23h38.23v-31.23c0-3.866-3.134-7-7-7z"/><path d="m344.571 424.281h-24.23c-3.866 0-7 3.134-7 7v31.23h38.23v-31.23c0-3.866-3.134-7-7-7z"/><path d="m421.031 424.281h-24.23c-3.866 0-7 3.134-7 7v31.23h38.23v-31.23c0-3.866-3.134-7-7-7z"/></g><g><g><path d="m504.492 508.242h-496.992c-4.143 0-7.5-3.357-7.5-7.5s3.357-7.5 7.5-7.5h496.992c4.143 0 7.5 3.357 7.5 7.5s-3.357 7.5-7.5 7.5z" fill="#8ac9fe"/></g></g><g><path d="m45.726 455.016h420.54v15h-420.54z" fill="#eaf6ff"/></g><g><path d="m45.726 455.016h30v15h-30z" fill="#d8ecfe"/></g></g></svg>