<svg id="Capa_1" enable-background="new 0 0 511.991 511.991" height="512" viewBox="0 0 511.991 511.991" width="512" xmlns="http://www.w3.org/2000/svg"><g><path d="m122.191 73.96h38.23v134.69h-38.23z" fill="#92a0b5"/><path d="m160.416 73.956v30h-11.23c-3.866 0-7 3.134-7 7v97.69h-20v-134.69z" fill="#7d8ea5"/><path d="m351.571 73.96h38.23v134.69h-38.23z" fill="#92a0b5"/><path d="m389.806 73.956v30h-11.23c-3.866 0-7 3.134-7 7v97.69h-20v-134.69z" fill="#7d8ea5"/><path d="m466.262 35.73h-420.531v41.23c0 3.866 3.134 7 7 7h406.531c3.866 0 7-3.134 7-7z" fill="#f07281"/><path d="m95.726 35.726v48.23h-43c-3.866 0-7-3.134-7-7v-41.23z" fill="#eb5569"/><path d="m495.261 258.332-23.691-15.618c-.711-.712-1.567-1.277-2.516-1.659l-36.894-24.322c-3.457-2.278-8.109-1.323-10.39 2.134-2.28 3.458-1.324 8.11 2.134 10.39l34.858 22.98v59.299c0 4.242 3.451 7.694 7.694 7.694h30.535v70.571c0 6.404-5.21 11.614-11.614 11.614s-11.615-5.21-11.615-11.614c0-25.216-20.515-45.73-45.73-45.73-4.143 0-7.5 3.357-7.5 7.5s3.357 7.5 7.5 7.5c16.945 0 30.73 13.785 30.73 30.73 0 14.675 11.94 26.614 26.615 26.614s26.614-11.939 26.614-26.614v-100.246c0-12.567-6.242-24.231-16.73-31.223zm-21.499 45.898v-42.105l13.211 8.709c6.273 4.183 10.019 11.181 10.019 18.721v14.675z" fill="#5f99d7"/><path d="m83.961 344.071c-25.216 0-45.73 20.515-45.73 45.73 0 6.404-5.211 11.614-11.615 11.614s-11.616-5.209-11.616-11.614v-70.571h30.536c4.243 0 7.694-3.452 7.694-7.694v-59.299l34.858-22.98c3.458-2.279 4.414-6.932 2.134-10.39-2.279-3.457-6.931-4.412-10.39-2.134l-36.894 24.322c-.95.382-1.806.947-2.517 1.659l-23.723 15.639c-10.455 6.972-16.698 18.636-16.698 31.202v100.246c0 14.675 11.939 26.614 26.615 26.614s26.615-11.939 26.615-26.614c0-16.945 13.785-30.73 30.73-30.73 4.143 0 7.5-3.357 7.5-7.5s-3.356-7.5-7.499-7.5zm-58.974-73.215 13.243-8.73v42.104h-23.23v-14.675c0-7.54 3.745-14.538 9.987-18.699z" fill="#5f99d7"/><path d="m497.492 45.73h-482.992c-3.866 0-7-3.134-7-7v-24.23c0-3.866 3.134-7 7-7h482.991c3.866 0 7 3.134 7 7v24.23c.001 3.866-3.133 7-6.999 7z" fill="#92a0b5"/><path d="m67.496 7.496v38.23h-53c-3.866 0-7-3.134-7-7v-24.23c0-3.866 3.134-7 7-7z" fill="#7d8ea5"/><path d="m236.881 438.031h-152.92v-224.381c0-8.284 6.716-15 15-15h122.92c8.284 0 15 6.716 15 15z" fill="#eaf6ff"/><path d="m236.876 408.036v30h-152.92v-224.39c0-8.28 6.72-15 15-15h25v202.39c0 3.87 3.13 7 7 7z" fill="#d8ecfe"/><path d="m428.031 438.031h-152.92v-224.381c0-8.284 6.716-15 15-15h122.92c8.284 0 15 6.716 15 15z" fill="#eaf6ff"/><path d="m428.036 408.036v30h-152.93v-224.39c0-8.28 6.72-15 15-15h25v202.39c0 3.87 3.13 7 7 7z" fill="#d8ecfe"/><path d="m191.651 237.571h-62.46c-3.866 0-7 3.134-7 7v43.345c0 3.866 3.134 7 7 7h62.46c3.866 0 7-3.134 7-7v-43.345c0-3.866-3.134-7-7-7z" fill="#8ac9fe"/><path d="m152.186 237.576v57.34h-23c-3.866 0-7-3.134-7-7v-43.34c0-3.866 3.134-7 7-7z" fill="#60b7ff"/><g><g><path d="m198.65 359.071h-76.46c-4.143 0-7.5-3.357-7.5-7.5s3.357-7.5 7.5-7.5h76.46c4.143 0 7.5 3.357 7.5 7.5s-3.357 7.5-7.5 7.5z" fill="#8ac9fe"/></g></g><g><path d="m123.956 344.076v15h-1.77c-4.14 0-7.5-3.36-7.5-7.5 0-4.15 3.36-7.5 7.5-7.5z" fill="#60b7ff"/></g><path d="m382.801 237.571h-62.46c-3.866 0-7 3.134-7 7v43.345c0 3.866 3.134 7 7 7h62.46c3.866 0 7-3.134 7-7v-43.345c0-3.866-3.134-7-7-7z" fill="#8ac9fe"/><path d="m343.346 237.576v57.34h-23c-3.866 0-7-3.134-7-7v-43.34c0-3.866 3.134-7 7-7z" fill="#60b7ff"/><g><g><path d="m389.802 359.071h-76.461c-4.143 0-7.5-3.357-7.5-7.5s3.357-7.5 7.5-7.5h76.461c4.143 0 7.5 3.357 7.5 7.5s-3.358 7.5-7.5 7.5z" fill="#8ac9fe"/></g></g><g><path d="m315.106 344.076v15h-1.77c-4.14 0-7.5-3.36-7.5-7.5 0-4.15 3.36-7.5 7.5-7.5z" fill="#60b7ff"/></g><circle cx="255.996" cy="64.845" fill="#fee97d" r="57.345"/><path d="m270.996 120.196c-4.78 1.3-9.81 1.99-15 1.99-31.67 0-57.35-25.67-57.35-57.34s25.68-57.35 57.35-57.35c5.19 0 10.22.69 15 1.99-24.4 6.59-42.35 28.88-42.35 55.36s17.95 48.76 42.35 55.35z" fill="#fee45a"/><path d="m275.111 64.845c0 10.557-8.558 19.115-19.115 19.115s-19.115-8.558-19.115-19.115 19.115-30.115 19.115-30.115 19.115 19.558 19.115 30.115z" fill="#8ac9fe"/><path d="m255.996 476.261h-191.15v-41.23c0-3.866 3.134-7 7-7h177.15c3.866 0 7 3.134 7 7z" fill="#f07281"/><path d="m114.846 428.036v48.23h-50v-41.23c0-3.866 3.134-7 7-7z" fill="#eb5569"/><path d="m447.147 476.261h-191.151v-41.23c0-3.866 3.134-7 7-7h177.151c3.866 0 7 3.134 7 7z" fill="#f07281"/><path d="m305.996 428.036v48.226h-50v-41.226c0-3.866 3.134-7 7-7z" fill="#eb5569"/><path d="m497.492 504.491h-482.992c-3.866 0-7-3.134-7-7v-24.23c0-3.866 3.134-7 7-7h482.991c3.866 0 7 3.134 7 7v24.23c.001 3.866-3.133 7-6.999 7z" fill="#92a0b5"/><path d="m57.496 466.266v38.23h-43c-3.866 0-7-3.134-7-7v-24.23c0-3.866 3.134-7 7-7z" fill="#7d8ea5"/></g></svg>