<svg id="Capa_1" enable-background="new 0 0 512.01 512.01" height="512" viewBox="0 0 512.01 512.01" width="512" xmlns="http://www.w3.org/2000/svg"><g><path d="m413.066 353.392c-54.28 0-98.283-44.003-98.283-98.283v-156.822c0-54.28 44.003-98.283 98.283-98.283 54.28 0 98.283 44.003 98.283 98.283v156.822c0 54.28-44.003 98.283-98.283 98.283z" fill="#80d261"/><path d="m438.743 349.997c-8.186 2.218-16.793 3.4-25.677 3.4-54.281 0-98.281-44.01-98.281-98.292v-156.814c0-54.281 44-98.291 98.281-98.291 8.884 0 17.491 1.181 25.677 3.4-41.833 11.288-72.604 49.495-72.604 94.892v156.814c-.001 45.396 30.771 83.604 72.604 94.891z" fill="#68ca44"/><path d="m98.944 353.392c-54.28 0-98.283-44.003-98.283-98.283v-156.822c0-54.28 44.002-98.283 98.283-98.283 54.28 0 98.283 44.003 98.283 98.283v156.822c0 54.28-44.003 98.283-98.283 98.283z" fill="#80d261"/><path d="m124.621 349.997c-8.186 2.218-16.793 3.4-25.677 3.4-54.281 0-98.281-44.01-98.281-98.292v-156.814c0-54.281 44-98.291 98.281-98.291 8.884 0 17.491 1.181 25.677 3.4-41.833 11.287-72.604 49.495-72.604 94.891v156.814c0 45.397 30.771 83.605 72.604 94.892z" fill="#68ca44"/><g><path d="m111.225 270.256c-1.971 0-3.943-.752-5.447-2.256-3.008-3.009-3.008-7.886 0-10.895l46.617-46.59c3.008-3.007 7.886-3.007 10.894 0 3.008 3.009 3.008 7.886 0 10.895l-46.617 46.59c-1.504 1.504-3.476 2.256-5.447 2.256z" fill="#bc7c63"/></g><g><path d="m85.886 269.507c-1.971 0-3.943-.752-5.447-2.256l-45.84-45.841c-3.009-3.009-3.009-7.886 0-10.895 3.008-3.008 7.886-3.006 10.894 0l45.84 45.841c3.008 3.009 3.008 7.886 0 10.895-1.504 1.504-3.476 2.256-5.447 2.256z" fill="#c68d7a"/></g><g><path d="m88.058 193.65c-1.971 0-3.943-.752-5.447-2.256l-48.012-48.514c-3.009-3.009-3.009-7.886 0-10.895 3.008-3.008 7.886-3.006 10.894 0l48.012 48.515c3.008 3.009 3.008 7.886 0 10.895-1.504 1.503-3.476 2.255-5.447 2.255z" fill="#c68d7a"/></g><g><path d="m112.002 190.977c-1.971 0-3.943-.752-5.447-2.256-3.008-3.009-3.008-7.886 0-10.895l45.84-45.841c3.008-3.007 7.886-3.007 10.894 0 3.008 3.009 3.008 7.886 0 10.895l-45.84 45.841c-1.504 1.504-3.476 2.256-5.447 2.256z" fill="#bc7c63"/></g><g><path d="m423.827 272.006c-1.971 0-3.943-.752-5.447-2.256-3.009-3.009-3.009-7.886 0-10.895l48.138-48.34c3.008-3.007 7.886-3.007 10.894 0 3.009 3.009 3.009 7.886 0 10.895l-48.137 48.34c-1.506 1.504-3.477 2.256-5.448 2.256z" fill="#bc7c63"/></g><g><path d="m400.008 269.507c-1.971 0-3.943-.752-5.447-2.256l-45.84-45.841c-3.009-3.009-3.009-7.886 0-10.895 3.009-3.008 7.886-3.006 10.894 0l45.84 45.841c3.008 3.009 3.008 7.886 0 10.895-1.504 1.504-3.476 2.256-5.447 2.256z" fill="#c68d7a"/></g><g><path d="m400.008 190.977c-1.971 0-3.943-.752-5.447-2.256l-45.84-45.841c-3.009-3.009-3.009-7.886 0-10.895 3.009-3.008 7.886-3.006 10.894 0l45.84 45.841c3.008 3.009 3.008 7.886 0 10.895-1.504 1.504-3.476 2.256-5.447 2.256z" fill="#c68d7a"/></g><g><path d="m426.124 190.977c-1.971 0-3.943-.752-5.447-2.256-3.008-3.009-3.008-7.886 0-10.895l45.84-45.841c3.008-3.007 7.886-3.007 10.894 0 3.009 3.009 3.009 7.886 0 10.895l-45.84 45.841c-1.504 1.504-3.476 2.256-5.447 2.256z" fill="#bc7c63"/></g><path d="m256.005 314.127c-43.371 0-78.531-35.159-78.531-78.53v-117.797c0-43.371 35.159-78.53 78.53-78.53 43.371 0 78.53 35.159 78.53 78.53v117.796c.001 43.371-35.158 78.531-78.529 78.531z" fill="#ade194"/><path d="m276.547 311.41c-6.542 1.777-13.434 2.722-20.542 2.722-43.374 0-78.53-35.167-78.53-78.53v-117.806c0-43.363 35.157-78.53 78.53-78.53 7.107 0 13.999.945 20.542 2.722-33.411 9.018-57.989 39.553-57.989 75.809v117.806c0 36.254 24.578 66.789 57.989 75.807z" fill="#97da7b"/><g><path d="m268.234 271.256c-1.971 0-3.943-.752-5.447-2.256-3.009-3.009-3.009-7.886 0-10.895l27.036-27.957c3.008-3.007 7.886-3.007 10.894 0 3.008 3.009 3.008 7.886 0 10.895l-27.037 27.957c-1.504 1.504-3.475 2.256-5.446 2.256z" fill="#bc7c63"/></g><g><path d="m242.947 269.507c-1.971 0-3.943-.752-5.447-2.256l-26.207-26.208c-3.008-3.009-3.008-7.886 0-10.895 3.008-3.007 7.886-3.007 10.894 0l26.207 26.208c3.008 3.009 3.008 7.886 0 10.895-1.504 1.504-3.476 2.256-5.447 2.256z" fill="#c68d7a"/></g><g><path d="m242.947 190.977c-1.971 0-3.943-.752-5.447-2.256l-26.207-26.208c-3.008-3.009-3.008-7.886 0-10.895 3.008-3.007 7.886-3.007 10.894 0l26.207 26.208c3.008 3.009 3.008 7.886 0 10.895-1.504 1.504-3.476 2.256-5.447 2.256z" fill="#c68d7a"/></g><g><path d="m269.063 190.977c-1.971 0-3.943-.752-5.447-2.256-3.008-3.009-3.008-7.886 0-10.895l26.207-26.208c3.008-3.007 7.886-3.007 10.894 0 3.008 3.009 3.008 7.886 0 10.895l-26.207 26.208c-1.504 1.504-3.476 2.256-5.447 2.256z" fill="#bc7c63"/></g><path d="m275.635 138.968v373.02h-39.26v-373.02c0-10.84 8.79-19.63 19.63-19.63 3.73 0 7.21 1.04 10.18 2.84.03.02.06.04.09.06 1.31.81 2.53 1.77 3.61 2.85 3.55 3.55 5.75 8.46 5.75 13.88z" fill="#c68d7a"/><path d="m266.275 122.238c-5.62 3.44-9.36 9.66-9.36 16.73v373.03h-20.54v-373.03c0-10.84 8.79-19.63 19.63-19.63 3.73 0 7.21 1.04 10.18 2.84.03.02.06.04.09.06z" fill="#bc7c63"/><path d="m118.575 99.718v412.28h-39.26v-412.28c0-10.85 8.79-19.63 19.63-19.63 3.73 0 7.21 1.04 10.18 2.84.03.02.06.04.09.06 1.31.81 2.53 1.77 3.61 2.85 3.55 3.55 5.75 8.45 5.75 13.88z" fill="#c68d7a"/><path d="m109.215 82.988c-5.62 3.44-9.37 9.65-9.37 16.73v412.28h-20.53v-412.28c0-10.85 8.79-19.63 19.63-19.63 3.73 0 7.21 1.04 10.18 2.84.03.02.06.04.09.06z" fill="#bc7c63"/><path d="m39.907 427.019c4.283 0 8.4.758 12.257 2.139 1.698-21.317 18.16-38.047 38.229-38.047 19.904 0 36.267 16.453 38.192 37.519 4.212-2.944 9.212-4.672 14.593-4.672 14.925 0 27.024 13.139 27.024 29.348 14.925 0 27.024 13.139 27.024 29.347s-12.099 29.348-27.024 29.348h-130.295c-21.609 0-39.126-19.024-39.126-42.491 0-23.467 17.517-42.491 39.126-42.491z" fill="#ade194"/><path d="m116.076 401.813c-7.025 6.871-11.699 16.516-12.561 27.341-3.852-1.376-7.97-2.136-12.253-2.136-21.61 0-39.132 19.022-39.132 42.49 0 23.469 17.522 42.49 39.132 42.49h-51.354c-21.61 0-39.132-19.022-39.132-42.49 0-23.469 17.522-42.49 39.132-42.49 4.283 0 8.402.76 12.253 2.136 1.705-21.312 18.159-38.043 38.228-38.043 9.88 0 18.888 4.047 25.687 10.702z" fill="#97da7b"/><path d="m432.695 99.2v412.8h-39.26v-412.8c0-10.56 8.56-19.12 19.11-19.12h1.04c3.56 0 6.89.97 9.74 2.67 5.61 3.32 9.37 9.45 9.37 16.45z" fill="#c68d7a"/><path d="m423.335 82.99c-5.62 3.44-9.36 9.65-9.36 16.73v412.29h-20.54v-412.81c0-10.56 8.56-19.12 19.11-19.12h1.04c3.56 0 6.89.97 9.74 2.67.01.08.01.16.01.24z" fill="#bc7c63"/><path d="m472.103 427.019c-4.283 0-8.4.758-12.257 2.139-1.698-21.317-18.16-38.047-38.229-38.047-19.904 0-36.267 16.453-38.193 37.519-4.212-2.944-9.212-4.672-14.593-4.672-14.925 0-27.024 13.139-27.024 29.348-14.925 0-27.024 13.139-27.024 29.347s12.099 29.348 27.024 29.348h130.296c21.609 0 39.126-19.024 39.126-42.491s-17.517-42.491-39.126-42.491z" fill="#ade194"/><path d="m447.288 401.813c-6.912 6.769-11.544 16.207-12.51 26.817-4.211-2.948-9.213-4.673-14.595-4.673-14.923 0-27.022 13.136-27.022 29.344-14.923 0-27.022 13.146-27.022 29.354 0 16.207 12.099 29.344 27.022 29.344h-51.354c-14.923 0-27.022-13.136-27.022-29.344 0-16.207 12.099-29.354 27.022-29.354 0-16.207 12.099-29.344 27.022-29.344 5.382 0 10.384 1.725 14.595 4.673 1.921-21.065 18.292-37.519 38.197-37.519 9.87 0 18.878 4.047 25.667 10.702z" fill="#97da7b"/></g></svg>