<svg id="Capa_1" enable-background="new 0 0 512 512" height="512" viewBox="0 0 512 512" width="512" xmlns="http://www.w3.org/2000/svg"><g><path d="m236.308 344.458h39.384v138.153h-39.384z" fill="#92a0b5"/><path d="m236.303 344.463h20.604v138.152h-20.604z" fill="#7d8ea5"/><path d="m354.461 511.996h-196.922v-32.384c0-3.866 3.134-7 7-7h182.921c3.866 0 7 3.134 7 7v32.384z" fill="#eaf6ff"/><path d="m209.044 472.616v39.384h-51.51v-32.384c0-3.866 3.134-7 7-7z" fill="#d8ecfe"/><path d="m288.384 354.458h-64.768c-3.866 0-7-3.134-7-7v-42.384h78.768v42.384c0 3.866-3.134 7-7 7z" fill="#eaf6ff"/><path d="m295.384 305.079v30.604h-47.863v18.78h-23.906c-3.866 0-7-3.134-7-7v-42.384z" fill="#d8ecfe"/><path d="m384.15 69.38v245.69h-256.3v-245.69c0-22.97 15.82-40 40-40h176.3c23.03 0 40 17.03 40 40z" fill="#92a0b5"/><path d="m209.96 29.38c-17.07 0-32.78 23.85-32.78 40.91v244.79h-49.33v-245.7c0-22.97 15.82-40 40-40z" fill="#7d8ea5"/><path d="m413.54 61.81v246.26c0 3.87-3.14 7-7 7h-32.39v-245.69c0-16.56-13.43-30-30-30h-176.3c-16.57 0-30 13.44-30 30v245.69h-32.39c-3.86 0-7-3.13-7-7v-246.26c0-34.14 27.68-61.81 61.81-61.81h191.46c34.13 0 61.81 27.67 61.81 61.81z" fill="#8ac9fe"/><g><path d="m295.385 283.417c-25.977 0-47.111-21.134-47.111-47.111 0-4.268 3.459-7.726 7.726-7.726 4.268 0 7.726 3.459 7.726 7.726 0 17.457 14.201 31.658 31.658 31.658 17.456 0 31.657-14.201 31.657-31.658v-60.681c0-4.268 3.459-7.726 7.726-7.726 4.268 0 7.726 3.459 7.726 7.726v60.681c.002 25.977-21.132 47.111-47.108 47.111z" fill="#eaf6ff"/></g><path d="m319.769 196.921h-34.384v-78.769h34.384c8.284 0 15 6.716 15 15v48.769c0 8.285-6.716 15-15 15z" fill="#5f99d7"/><path d="m288.384 236.306h-104.153c-3.866 0-7-3.134-7-7v-143.537c0-3.866 3.134-7 7-7h104.153c3.866 0 7 3.134 7 7v143.537c0 3.866-3.134 7-7 7z" fill="#eaf6ff"/><path d="m216.616 78.764v157.547h-32.384c-3.866 0-7-3.134-7-7v-143.547c0-3.866 3.134-7 7-7z" fill="#d8ecfe"/><path d="m249 157.537h-25.384c-3.866 0-7-3.134-7-7v-25.384c0-3.866 3.134-7 7-7h25.384c3.866 0 7 3.134 7 7v25.384c0 3.866-3.134 7-7 7z" fill="#ade194"/><g fill="#5f99d7"><path d="m216.616 204.648c-4.267 0-7.726-3.459-7.726-7.726 0-4.267 3.459-7.726 7.726-7.726 4.267 0 7.726 3.459 7.726 7.726 0 4.266-3.459 7.726-7.726 7.726z"/><path d="m256 204.648c-4.267 0-7.726-3.459-7.726-7.726 0-4.267 3.459-7.726 7.726-7.726 4.267 0 7.726 3.459 7.726 7.726 0 4.266-3.459 7.726-7.726 7.726z"/></g></g></svg>