<svg id="Capa_1" enable-background="new 0 0 512 512" height="512" viewBox="0 0 512 512" width="512" xmlns="http://www.w3.org/2000/svg"><g><g fill="#c68d7a"><path d="m413.539 374.151h39.384v71.768c0 3.866-3.134 7-7 7h-25.384c-3.866 0-7-3.134-7-7z"/><path d="m472.616 324.465h-78.768v42.686c0 3.866 3.134 7 7 7h64.768c3.866 0 7-3.134 7-7z"/><path d="m393.847 206.312h39.384v99.372h-39.384z"/><path d="m59.081 374.151h39.384v71.768c0 3.866-3.134 7-7 7h-25.384c-3.866 0-7-3.134-7-7z"/></g><path d="m98.466 374.155v20.604h-11.57c-3.983 0-7.211 3.229-7.211 7.211v50.953h-13.604c-3.866 0-7-3.134-7-7v-71.768z" fill="#bc7c63"/><path d="m452.924 374.155v20.604h-11.569c-3.983 0-7.211 3.229-7.211 7.211v50.953h-13.604c-3.866 0-7-3.134-7-7v-71.768z" fill="#bc7c63"/><path d="m118.157 324.465h-78.768v42.686c0 3.866 3.134 7 7 7h64.769c3.866 0 7-3.134 7-7v-42.686z" fill="#c68d7a"/><path d="m118.152 324.469v30.906h-40.651c-3.983 0-7.211 3.229-7.211 7.211v11.569h-23.694c-3.983 0-7.211-3.229-7.211-7.211v-42.475z" fill="#bc7c63"/><path d="m472.616 324.469v30.906h-40.651c-3.983 0-7.211 3.229-7.211 7.211v11.569h-23.694c-3.983 0-7.211-3.229-7.211-7.211v-42.475z" fill="#bc7c63"/><path d="m78.773 206.312h39.384v99.372h-39.384z" fill="#c68d7a"/><path d="m99.372 244.423v23.149c0 3.983 3.229 7.211 7.211 7.211h11.569v30.906h-39.384v-99.383h39.384v30.906h-11.569c-3.982 0-7.211 3.229-7.211 7.211z" fill="#bc7c63"/><path d="m414.451 244.423v23.149c0 3.983 3.229 7.211 7.211 7.211h11.569v30.906h-39.384v-99.383h39.384v30.906h-11.569c-3.982 0-7.211 3.229-7.211 7.211z" fill="#bc7c63"/><path d="m111.157 59.076h-25.384c-3.866 0-7 3.134-7 7v42.686h39.384v-42.686c0-3.866-3.134-7-7-7z" fill="#c68d7a"/><path d="m426.231 59.076h-25.384c-3.866 0-7 3.134-7 7v42.686h39.384v-42.686c0-3.866-3.134-7-7-7z" fill="#c68d7a"/><path d="m512 302.38v25.39c0 3.86-3.13 7-7 7h-498c-3.86 0-7-3.14-7-7v-25.39c0-3.86 3.14-7 7-7h498c3.87 0 7 3.14 7 7z" fill="#fedba6"/><path d="m51.51 295.39v39.38h-44.51c-3.86 0-7-3.14-7-7v-25.39c0-3.86 3.14-7 7-7h44.44z" fill="#fece85"/><path d="m472.62 164.54v45.07c0 3.87-3.14 7-7 7h-419.23c-3.87 0-7-3.13-7-7v-45.07c0-3.86 3.11-6.98 6.97-7h419.26c3.86 0 7 3.13 7 7z" fill="#fedba6"/><path d="m472.62 105.667v44.659c0 3.983-3.229 7.211-7.211 7.211h-418.813c-3.983 0-7.211-3.229-7.211-7.211v-44.659c0-3.983 3.229-7.211 7.211-7.211h418.814c3.982 0 7.21 3.228 7.21 7.211z" fill="#fedba6"/><g fill="#c68d7a"><path d="m98.465 194.802c-4.267 0-7.726-3.459-7.726-7.726 0-4.267 3.459-7.726 7.726-7.726 4.267 0 7.726 3.459 7.726 7.726.001 4.266-3.459 7.726-7.726 7.726z"/><path d="m413.539 194.802c-4.267 0-7.726-3.459-7.726-7.726 0-4.267 3.459-7.726 7.726-7.726 4.267 0 7.726 3.459 7.726 7.726.001 4.266-3.458 7.726-7.726 7.726z"/><path d="m98.465 135.725c-4.267 0-7.726-3.459-7.726-7.726 0-4.267 3.459-7.726 7.726-7.726 4.267 0 7.726 3.459 7.726 7.726.001 4.267-3.459 7.726-7.726 7.726z"/><path d="m413.539 135.725c-4.267 0-7.726-3.459-7.726-7.726 0-4.267 3.459-7.726 7.726-7.726 4.267 0 7.726 3.459 7.726 7.726.001 4.267-3.458 7.726-7.726 7.726z"/></g><path d="m90.894 129.722v-31.266h-44.298c-3.983 0-7.211 3.229-7.211 7.211v44.659c0 3.983 3.229 7.211 7.211 7.211h44.298 374.515c3.983 0 7.211-3.229 7.211-7.211v-13.393h-374.515c-3.983 0-7.211-3.228-7.211-7.211z" fill="#fece85"/><path d="m472.62 195.4v14.21c0 3.87-3.14 7-7 7h-419.23c-3.87 0-7-3.13-7-7v-45.07c0-3.86 3.11-6.98 6.97-7h44.53v30.65c0 3.98 3.23 7.21 7.21 7.21z" fill="#fece85"/></g></svg>