<svg id="Capa_1" enable-background="new 0 0 512 512" height="512" viewBox="0 0 512 512" width="512" xmlns="http://www.w3.org/2000/svg"><g><ellipse cx="452.923" cy="482.462" fill="#64758a" rx="29.538" ry="29.538" transform="matrix(.23 -.973 .973 .23 -120.692 812.422)"/><g><path d="m452.923 490.188c-4.268 0-7.727-3.459-7.727-7.727v-65.605c0-4.268 3.459-7.727 7.727-7.727s7.726 3.459 7.726 7.727v65.605c0 4.268-3.458 7.727-7.726 7.727z" fill="#fedba6"/></g><g><path d="m374.154 184.958c-4.268 0-7.727-3.459-7.727-7.727v-19.693c0-4.268 3.459-7.727 7.727-7.727s7.727 3.459 7.727 7.727v19.693c-.001 4.268-3.459 7.727-7.727 7.727z" fill="#64758a"/></g><g><path d="m334.769 184.958c-4.268 0-7.727-3.459-7.727-7.727v-19.693c0-4.268 3.459-7.727 7.727-7.727s7.727 3.459 7.727 7.727v19.693c0 4.268-3.459 7.727-7.727 7.727z" fill="#64758a"/></g><path d="m492.307 265.687v144.169c0 3.866-3.134 7-7 7h-202.213c-7.356-29.876-34.368-52.087-66.479-52.087s-59.123 22.211-66.479 52.087h-44.675c-3.866 0-7-3.134-7-7v-144.169z" fill="#eaf6ff"/><path d="m216.615 333.862c-49.223 0-90.194 35.964-98.013 82.993h31.534c7.356-29.876 34.367-52.087 66.479-52.087 32.111 0 59.123 22.211 66.479 52.087h31.534c-7.818-47.028-48.789-82.993-98.013-82.993z" fill="#d8ecfe"/><path d="m256.577 236.308h-40.539c-10.557 0-19.115-8.558-19.115-19.115v-1.155c0-10.557 8.558-19.115 19.115-19.115h40.539c10.557 0 19.115 8.558 19.115 19.115v1.155c0 10.556-8.558 19.115-19.115 19.115z" fill="#c68d7a"/><path d="m273.37 226.31c-3.23 5.96-9.54 10-16.79 10h-40.54c-10.56 0-19.12-8.56-19.12-19.12v-1.15c0-10.56 8.56-19.12 19.12-19.12h13.2c-1.48 2.71-2.32 5.82-2.32 9.12v1.15c0 10.56 8.56 19.12 19.12 19.12z" fill="#bc7c63"/><path d="m354.461 246.308h-39.385v-62.077c0-3.866 3.134-7 7-7h12.692 12.692c3.866 0 7 3.134 7 7v62.077z" fill="#fee97d"/><path d="m354.46 226.31v20h-39.38v-62.08c0-3.866 3.134-7 7-7h20c-3.87 0-7 3.13-7 7v35.08c0 3.866 3.134 7 7 7z" fill="#fee45a"/><path d="m393.846 246.308h-39.385v-62.077c0-3.866 3.134-7 7-7h12.692 12.692c3.866 0 7 3.134 7 7v62.077z" fill="#f07281"/><path d="m393.85 226.31v20h-39.39v-62.08c0-3.87 3.14-7 7-7h20c-3.86 0-7 3.13-7 7v35.08c0 3.866 3.134 7 7 7z" fill="#eb5569"/><path d="m98.462 39.384 17.757-35.515c1.186-2.371 3.61-3.869 6.261-3.869h345.809c2.651 0 5.075 1.498 6.261 3.869l17.758 35.515-11.807 10h-369.501z" fill="#fedba6"/><path d="m118.154 88.769h39.385v157.538h-39.385z" fill="#eaf6ff"/><path d="m118.149 88.769h20.604v157.538h-20.604z" fill="#d8ecfe"/><path d="m433.231 88.769h39.385v153.299h-39.385z" fill="#eaf6ff"/><path d="m433.236 88.765h20.604v153.304h-20.604z" fill="#d8ecfe"/><path d="m492.307 265.687v30.604h-362.939v120.565h-23.906c-3.866 0-7-3.134-7-7v-144.169z" fill="#d8ecfe"/><path d="m216.615 354.461c-43.503 0-78.769 35.266-78.769 78.769s35.266 78.769 78.769 78.769 78.769-35.266 78.769-78.769c.001-43.502-35.266-78.769-78.769-78.769zm0 118.154c-21.751 0-39.385-17.633-39.385-39.385s17.633-39.385 39.385-39.385 39.385 17.633 39.385 39.385-17.633 39.385-39.385 39.385z" fill="#64758a"/><path d="m217.77 118.154h-2.309c-21.114 0-38.23-17.116-38.23-38.23v-40.54h78.769v40.539c0 21.114-17.116 38.231-38.23 38.231z" fill="#eb5569"/><path d="m296.539 118.154h-2.309c-21.114 0-38.23-17.116-38.23-38.23v-40.54h78.769v40.539c0 21.114-17.116 38.231-38.23 38.231z" fill="#f07281"/><path d="m375.308 118.154h-2.309c-21.114 0-38.23-17.116-38.23-38.23v-40.54h78.769v40.539c0 21.114-17.116 38.231-38.23 38.231z" fill="#eb5569"/><path d="m454.078 118.154h-2.309c-21.114 0-38.23-17.116-38.23-38.23v-40.54h78.769v40.539c0 21.114-17.117 38.231-38.23 38.231z" fill="#f07281"/><path d="m139.001 118.154h-2.309c-21.114 0-38.23-17.116-38.23-38.23v-40.54h78.769v40.539c0 21.114-17.116 38.231-38.23 38.231z" fill="#f07281"/><g><path d="m86.496 263.726h-27.419c-2.049 0-4.014-.814-5.464-2.263l-28.874-29.036c-3.017-3.018-3.017-7.91 0-10.928 3.018-3.016 7.91-3.016 10.928 0l26.611 26.773h24.219c4.268 0 7.727 3.459 7.727 7.726-.001 4.27-3.46 7.728-7.728 7.728z" fill="#64758a"/></g><ellipse cx="19.692" cy="216.615" fill="#fedba6" rx="19.692" ry="19.692" transform="matrix(.23 -.973 .973 .23 -195.653 186.013)"/><path d="m492.885 275.692h-395.001c-10.557 0-19.115-8.558-19.115-19.115v-1.155c0-10.557 8.558-19.115 19.115-19.115h395.001c10.557 0 19.115 8.558 19.115 19.115v1.155c0 10.557-8.558 19.115-19.115 19.115z" fill="#fedba6"/><path d="m149.972 275.698h-51.51c-10.879 0-19.697-8.819-19.697-19.698 0-5.439 2.205-10.364 5.769-13.928s8.489-5.769 13.928-5.769h51.51c-5.439 0-10.364 2.205-13.928 5.769-3.565 3.564-5.769 8.489-5.769 13.928 0 10.879 8.818 19.698 19.697 19.698z" fill="#fece85"/></g></svg>