<svg id="Capa_1" enable-background="new 0 0 512 512" height="512" viewBox="0 0 512 512" width="512" xmlns="http://www.w3.org/2000/svg"><g><path d="m236.601 242.797h38.799v232.792h-38.799z" fill="#92a0b5"/><path d="m236.606 242.802h20.298v232.792h-20.298z" fill="#7d8ea5"/><path d="m314.198 504.388h-116.396v-31.799c0-3.866 3.134-7 7-7h102.396c3.866 0 7 3.134 7 7z" fill="#8ac9fe"/><path d="m238.392 465.594v38.799h-40.595v-31.799c0-3.866 3.134-7 7-7z" fill="#60b7ff"/><path d="m423.594 232.797h-335.188c-3.866 0-7-3.134-7-7v-218.793c0-3.866 3.134-7 7-7h335.189c3.866 0 7 3.134 7 7v218.792c-.001 3.867-3.135 7.001-7.001 7.001z" fill="#8ac9fe"/><path d="m121.996 0v232.802h-33.595c-3.866 0-7-3.134-7-7v-218.802c0-3.866 3.134-7 7-7z" fill="#60b7ff"/><path d="m365.396 193.998h-218.792c-3.866 0-7-3.134-7-7v-141.195c0-3.866 3.134-7 7-7h218.792c3.866 0 7 3.134 7 7v141.195c0 3.866-3.134 7-7 7z" fill="#eaf6ff"/><path d="m197.684 155.199 18.538 110.554c.565 3.372 3.484 5.842 6.904 5.842h65.744c3.422 0 6.342-2.474 6.905-5.849l18.425-110.547-17.198-10h-83.645z" fill="#eaf6ff"/><path d="m312.508 165.343h-65.957c-4.328 0-7.619 3.889-6.904 8.157l16.444 98.09h-32.966c-3.419 0-6.338-2.47-6.904-5.842l-18.536-110.553 15.67-10h83.645l17.203 10z" fill="#d8ecfe"/><g><path d="m430.594 512h-349.188c-4.204 0-7.612-3.407-7.612-7.612s3.408-7.612 7.612-7.612h349.188c4.204 0 7.612 3.407 7.612 7.612s-3.408 7.612-7.612 7.612z" fill="#92a0b5"/></g><path d="m314.198 155.199h-116.514c-10.714 0-19.399-8.685-19.399-19.399 0-10.714 8.685-19.399 19.399-19.399h116.515c10.714 0 19.399 8.685 19.399 19.399 0 10.714-8.686 19.399-19.4 19.399z" fill="#fedba6"/><path d="m248.429 155.195h-50.744c-10.717 0-19.404-8.677-19.404-19.394 0-5.359 2.172-10.21 5.683-13.721s8.363-5.683 13.721-5.683h50.744c-5.359 0-10.21 2.172-13.721 5.683s-5.683 8.363-5.683 13.721c0 10.717 8.687 19.394 19.404 19.394z" fill="#fece85"/></g></svg>