<svg id="Capa_1" enable-background="new 0 0 512 512" height="512" viewBox="0 0 512 512" width="512" xmlns="http://www.w3.org/2000/svg"><g><path d="m492.979 511.996h-236.979v-387.28l118.49-78.993 118.489 78.993z" fill="#f07281"/><path d="m395.152 59.49-99.655 65.221v387.289h-39.497v-397.289l118.489-78.992z" fill="#eb5569"/><path d="m256 511.996h-236.979v-387.28l118.489-78.993 118.49 78.993z" fill="#fedba6"/><path d="m158.173 59.49-99.656 65.221v387.289h-39.496v-397.289l118.49-78.992z" fill="#fece85"/><path d="m489.73 75.367-111.229-74.152c-2.429-1.62-5.594-1.62-8.023 0l-114.478 76.318v47.184l118.49-78.994 118.461 78.974v-43.313c-.001-2.418-1.209-4.676-3.221-6.017z" fill="#92a0b5"/><path d="m255.971 77.514-114.449-76.299c-2.429-1.62-5.594-1.62-8.023 0l-111.258 74.171c-2.012 1.341-3.22 3.599-3.22 6.017v43.313l118.489-78.993 118.461 78.974z" fill="#7d8ea5"/><g><path d="m110.762 275.016h-45.245c-3.866 0-7-3.134-7-7v-71.993l8.316-10h42.5l8.429 10v71.993c0 3.866-3.134 7-7 7z" fill="#eaf6ff"/><path d="m85.52 275.02h-20c-3.87 0-7-3.14-7-7v-72l8.31-10h20l-8.31 10v72c0 3.86 3.13 7 7 7z" fill="#d8ecfe"/><path d="m58.517 196.023h59.245v-32.496c0-3.866-3.134-7-7-7h-45.245c-3.866 0-7 3.134-7 7z" fill="#8ac9fe"/><path d="m85.52 156.53c-3.87 0-7 3.13-7 7v32.49h-20v-32.49c0-3.87 3.13-7 7-7z" fill="#60b7ff"/></g><g><path d="m209.504 275.016h-45.245c-3.866 0-7-3.134-7-7v-71.993l8.316-10h42.5l8.429 10v71.993c0 3.866-3.134 7-7 7z" fill="#eaf6ff"/><path d="m184.261 275.02h-20c-3.87 0-7-3.14-7-7v-72l8.31-10h20l-8.31 10v72c0 3.86 3.13 7 7 7z" fill="#d8ecfe"/><path d="m157.259 196.023h59.245v-32.496c0-3.866-3.134-7-7-7h-45.245c-3.866 0-7 3.134-7 7z" fill="#8ac9fe"/><path d="m184.261 156.53c-3.87 0-7 3.13-7 7v32.49h-20v-32.49c0-3.87 3.13-7 7-7z" fill="#60b7ff"/></g><path d="m110.762 472.497h-45.245c-3.866 0-7-3.134-7-7v-71.993l8.316-10h42.5l8.429 10v71.993c0 3.866-3.134 7-7 7z" fill="#eaf6ff"/><path d="m85.52 472.501h-20c-3.87 0-7-3.14-7-7v-72l8.31-10h20l-8.31 10v72c0 3.86 3.13 7 7 7z" fill="#d8ecfe"/><path d="m58.517 393.504h59.245v-32.496c0-3.866-3.134-7-7-7h-45.245c-3.866 0-7 3.134-7 7z" fill="#8ac9fe"/><path d="m85.52 354.011c-3.87 0-7 3.13-7 7v32.49h-20v-32.49c0-3.87 3.13-7 7-7z" fill="#60b7ff"/><g><path d="m209.504 472.497h-45.245c-3.866 0-7-3.134-7-7v-71.993l8.316-10h42.5l8.429 10v71.993c0 3.866-3.134 7-7 7z" fill="#eaf6ff"/><path d="m184.261 472.501h-20c-3.87 0-7-3.14-7-7v-72l8.31-10h20l-8.31 10v72c0 3.86 3.13 7 7 7z" fill="#d8ecfe"/><path d="m157.259 393.504h59.245v-32.496c0-3.866-3.134-7-7-7h-45.245c-3.866 0-7 3.134-7 7z" fill="#8ac9fe"/><path d="m184.261 354.011c-3.87 0-7 3.13-7 7v32.49h-20v-32.49c0-3.87 3.13-7 7-7z" fill="#60b7ff"/></g><g><path d="m347.505 275.016h-45.245c-3.866 0-7-3.134-7-7v-71.993l8.316-10h42.5l8.429 10v71.993c0 3.866-3.134 7-7 7z" fill="#eaf6ff"/><path d="m322.263 275.02h-20c-3.87 0-7-3.14-7-7v-72l8.31-10h20l-8.31 10v72c0 3.86 3.13 7 7 7z" fill="#d8ecfe"/><path d="m295.26 196.023h59.245v-32.496c0-3.866-3.134-7-7-7h-45.245c-3.866 0-7 3.134-7 7z" fill="#8ac9fe"/><path d="m322.263 156.53c-3.87 0-7 3.13-7 7v32.49h-20v-32.49c0-3.87 3.13-7 7-7z" fill="#60b7ff"/></g><g><path d="m446.246 275.016h-45.245c-3.866 0-7-3.134-7-7v-71.993l8.316-10h42.5l8.429 10v71.993c0 3.866-3.134 7-7 7z" fill="#eaf6ff"/><path d="m421.004 275.02h-20c-3.87 0-7-3.14-7-7v-72l8.31-10h20l-8.31 10v72c0 3.86 3.13 7 7 7z" fill="#d8ecfe"/><path d="m394.001 196.023h59.245v-32.496c0-3.866-3.134-7-7-7h-45.245c-3.866 0-7 3.134-7 7z" fill="#8ac9fe"/><path d="m421.004 156.53c-3.87 0-7 3.13-7 7v32.49h-20v-32.49c0-3.87 3.13-7 7-7z" fill="#60b7ff"/></g><g><path d="m347.505 472.497h-45.245c-3.866 0-7-3.134-7-7v-71.993l8.316-10h42.5l8.429 10v71.993c0 3.866-3.134 7-7 7z" fill="#eaf6ff"/><path d="m322.263 472.501h-20c-3.87 0-7-3.14-7-7v-72l8.31-10h20l-8.31 10v72c0 3.86 3.13 7 7 7z" fill="#d8ecfe"/><path d="m295.26 393.504h59.245v-32.496c0-3.866-3.134-7-7-7h-45.245c-3.866 0-7 3.134-7 7z" fill="#8ac9fe"/><path d="m322.263 354.011c-3.87 0-7 3.13-7 7v32.49h-20v-32.49c0-3.87 3.13-7 7-7z" fill="#60b7ff"/></g><g><path d="m446.246 472.497h-45.245c-3.866 0-7-3.134-7-7v-71.993l8.316-10h42.5l8.429 10v71.993c0 3.866-3.134 7-7 7z" fill="#eaf6ff"/><path d="m421.004 472.501h-20c-3.87 0-7-3.14-7-7v-72l8.31-10h20l-8.31 10v72c0 3.86 3.13 7 7 7z" fill="#d8ecfe"/><path d="m394.001 393.504h59.245v-32.496c0-3.866-3.134-7-7-7h-45.245c-3.866 0-7 3.134-7 7z" fill="#8ac9fe"/><path d="m421.004 354.011c-3.87 0-7 3.13-7 7v32.49h-20v-32.49c0-3.87 3.13-7 7-7z" fill="#60b7ff"/></g></g></svg>