<svg id="Capa_1" enable-background="new 0 0 512 512" height="512" viewBox="0 0 512 512" width="512" xmlns="http://www.w3.org/2000/svg"><g><path d="m393.846 157.54h98.46v325.071h-98.46z" fill="#eaf6ff" transform="matrix(-1 0 0 -1 886.152 640.152)"/><path d="m393.851 157.535h39.384v325.081h-39.384z" fill="#d8ecfe"/><path d="m19.699 157.54h98.46v325.071h-98.46z" fill="#eaf6ff"/><path d="m19.699 157.535h30.905v325.081h-30.905z" fill="#d8ecfe"/><path d="m393.846 88.772h-275.687v-81.768c0-3.866 3.134-7 7-7h261.687c3.866 0 7 3.134 7 7z" fill="#fee97d"/><path d="m169.663 0v78.768h-51.509v-71.768c0-3.866 3.134-7 7-7z" fill="#fee45a"/><path d="m118.159 157.54h275.687v325.072h-275.687z" fill="#eaf6ff"/><path d="m118.15 157.54h51.51v325.08h-51.51z" fill="#d8ecfe"/><path d="m118.159 315.076h275.687v39.384h-275.687z" fill="#5f99d7"/><path d="m118.154 315.081h51.509v39.384h-51.509z" fill="#3c87d0"/><path d="m19.699 315.076h98.46v39.384h-98.46z" fill="#5f99d7"/><path d="m393.846 315.076h98.46v39.384h-98.46z" fill="#5f99d7" transform="matrix(-1 0 0 -1 886.152 669.536)"/><path d="m393.851 315.081h39.384v39.384h-39.384z" fill="#3c87d0"/><path d="m504.998 157.54h-504.991v-71.768c0-3.866 3.134-7 7-7h497.991c3.866 0 7 3.134 7 7v64.768c0 3.866-3.134 7-7 7z" fill="#5f99d7"/><path d="m393.851 78.768h39.384v78.768h-39.384z" fill="#3c87d0"/><path d="m118.154 78.768h51.509v78.768h-51.509z" fill="#3c87d0"/><path d="m118.159 157.54h-111.152c-3.866 0-7-3.134-7-7v-64.768c0-3.866 3.134-7 7-7h111.152z" fill="#5f99d7"/><path d="m50.605 78.768v78.768h-43.603c-3.866 0-7-3.134-7-7v-64.768c0-3.866 3.134-7 7-7z" fill="#3c87d0"/><path d="m19.699 196.924h59.076v78.768h-59.076z" fill="#8ac9fe"/><path d="m19.699 196.919h30.905v78.768h-30.905z" fill="#60b7ff"/><path d="m19.699 393.844h59.076v39.384h-59.076z" fill="#8ac9fe"/><path d="m19.699 393.849h30.905v39.384h-30.905z" fill="#60b7ff"/><path d="m433.23 196.924h59.076v78.768h-59.076z" fill="#8ac9fe" transform="matrix(-1 0 0 -1 925.536 472.616)"/><path d="m433.235 196.919h30.905v78.768h-30.905z" fill="#60b7ff"/><path d="m433.23 393.844h59.076v39.384h-59.076z" fill="#8ac9fe" transform="matrix(-1 0 0 -1 925.536 827.071)"/><path d="m433.235 393.849h30.905v39.384h-30.905z" fill="#60b7ff"/><path d="m157.542 196.914h31.658v78.768h-31.658z" fill="#8ac9fe"/><path d="m157.54 196.91h12.12v78.77h-12.12z" fill="#60b7ff"/><g fill="#8ac9fe"><path d="m204.653 196.914h23.931v78.768h-23.931z"/><path d="m244.036 196.914h23.932v78.768h-23.932z"/><path d="m322.805 196.914h31.657v78.768h-31.657z"/><path d="m283.421 196.914h23.932v78.768h-23.932z"/></g><path d="m511.998 511.996h-196.915l-10.583-10h-96l-11.579 10h-196.914v-32.384c0-3.866 3.134-7 7-7h497.991c3.866 0 7 3.134 7 7z" fill="#5f99d7"/><path d="m315.083 400.849v111.151h-51.355l-7.726-10-7.726 10h-51.354v-111.151c0-3.866 3.134-7 7-7h44.354l7.726 10 7.726-10h44.355c3.866 0 7 3.134 7 7z" fill="#fee97d"/><g><path d="m263.5 393.85v117.6c0 .19-.01.36-.03.55h-14.94c-.02-.19-.03-.36-.03-.55v-117.6z" fill="#eaf6ff"/></g></g></svg>