<svg id="Capa_1" enable-background="new 0 0 512 512" height="512" viewBox="0 0 512 512" width="512" xmlns="http://www.w3.org/2000/svg"><g><path d="m39.391 29.388h433.223v482.607h-433.223z" fill="#f07281"/><path d="m472.618 29.384v30.604h-386.973c-3.866 0-7 3.134-7 7v445.012h-39.259v-482.616z" fill="#eb5569"/><g fill="#92a0b5"><path d="m354.462 275.692-9.962 10h-172l-14.958-10v-32.384c0-3.866 3.134-7 7-7h182.92c3.866 0 7 3.134 7 7z"/><path d="m354.462 354.46-11.962 10h-169l-15.958-10v-39.384l14.958-10h171l10.962 10z"/><path d="m354.462 433.228-10.462 10h-171l-15.458-10v-39.384l15.458-10h171l10.462 10z"/><path d="m354.462 511.995h-196.92v-39.384l14.458-10h170.5l11.962 10z"/></g><path d="m291.454 106.884c10.402 9.696 16.824 23.61 16.542 39.019-.524 28.548-24.233 51.439-52.782 51.015-28.357-.421-51.215-23.535-51.215-51.992 0-8.886 2.228-17.252 6.16-24.567.622-1.158 2.209-1.351 3.096-.382 2.597 2.836 7.837 7.672 13.58 7.969 0 0-6.672-46.525 37.942-65.269 1.662-.698 3.29 1.061 2.45 2.656-3.023 5.745-6.97 15.923-3.509 25.363 4.198 11.449 16.898 10.346 17.184 33.148 0 0 5.194-5.757 7.365-15.952.311-1.459 2.096-2.025 3.187-1.008z" fill="#fee97d"/><path d="m271.434 194.57c-5.12 1.607-10.58 2.431-16.225 2.349-28.351-.422-51.21-23.54-51.21-51.993 0-8.88 2.225-17.255 6.16-24.57.618-1.154 2.205-1.35 3.101-.381 2.596 2.843 7.829 7.675 13.578 7.974 0 0-6.676-46.523 37.942-65.272 1.659-.701 3.286 1.061 2.452 2.658-3.029 5.748-6.974 15.927-3.513 25.363.113.299.227.598.361.876-8.942 18.203-6.336 36.376-6.336 36.376-5.748-.299-10.982-5.13-13.578-7.974-.896-.968-2.483-.773-3.101.381-3.935 7.314-6.16 15.69-6.16 24.57-.001 23.333 15.369 43.071 36.529 49.643z" fill="#fee45a"/><path d="m504.998 39.388h-497.991c-3.866 0-7-3.134-7-7v-25.384c0-3.866 3.134-7 7-7h497.991c3.866 0 7 3.134 7 7v25.384c0 3.866-3.134 7-7 7z" fill="#8ac9fe"/><path d="m51.511 0v39.384h-44.509c-3.866 0-7-3.134-7-7v-25.384c0-3.866 3.134-7 7-7z" fill="#60b7ff"/><path d="m111.159 433.228h-25.384c-3.866 0-7-3.134-7-7v-64.768c0-3.866 3.134-7 7-7h25.384c3.866 0 7 3.134 7 7v64.768c0 3.866-3.134 7-7 7z" fill="#8ac9fe"/><path d="m111.159 315.065h-25.384c-3.866 0-7-3.134-7-7v-64.768c0-3.866 3.134-7 7-7h25.384c3.866 0 7 3.134 7 7v64.768c0 3.866-3.134 7-7 7z" fill="#8ac9fe"/><path d="m426.23 433.228h-25.384c-3.866 0-7-3.134-7-7v-64.768c0-3.866 3.134-7 7-7h25.384c3.866 0 7 3.134 7 7v64.768c0 3.866-3.134 7-7 7z" fill="#8ac9fe"/><path d="m426.23 315.065h-25.384c-3.866 0-7-3.134-7-7v-64.768c0-3.866 3.134-7 7-7h25.384c3.866 0 7 3.134 7 7v64.768c0 3.866-3.134 7-7 7z" fill="#8ac9fe"/><path d="m157.542 275.692h196.919v39.384h-196.919z" fill="#64758a"/><path d="m157.542 354.46h196.919v39.384h-196.919z" fill="#64758a"/><path d="m157.542 433.228h196.919v39.384h-196.919z" fill="#64758a"/></g></svg>