<svg id="Capa_1" enable-background="new 0 0 512 512" height="512" viewBox="0 0 512 512" width="512" xmlns="http://www.w3.org/2000/svg"><g><path d="m512 157.535v196.93h-119.027c-21.273 0-38.508 17.235-38.508 38.508v119.027h-196.93v-119.027c0-21.273-17.235-38.508-38.508-38.508h-119.027v-196.93h119.027c21.273 0 38.508-17.235 38.508-38.508v-119.027h196.93v119.027c0 21.273 17.235 38.508 38.508 38.508z" fill="#64758a"/><g><g><path d="m512 248.274v15.453h-39.384c-4.275 0-7.726-3.461-7.726-7.726s3.451-7.726 7.726-7.726h39.384z" fill="#eaf6ff"/></g><g><path d="m433.227 263.726h-39.383c-4.268 0-7.726-3.459-7.726-7.726 0-4.268 3.459-7.726 7.726-7.726h39.383c4.268 0 7.726 3.459 7.726 7.726.001 4.268-3.458 7.726-7.726 7.726z" fill="#eaf6ff"/></g><g><path d="m512 189.203v15.453h-39.384c-4.275 0-7.726-3.461-7.726-7.726 0-4.275 3.451-7.726 7.726-7.726h39.384z" fill="#eaf6ff"/></g><g><path d="m433.227 204.651h-39.383c-4.268 0-7.726-3.459-7.726-7.726 0-4.268 3.459-7.726 7.726-7.726h39.383c4.268 0 7.726 3.459 7.726 7.726.001 4.267-3.458 7.726-7.726 7.726z" fill="#eaf6ff"/></g><g><path d="m354.46 263.726h-39.384c-4.268 0-7.726-3.459-7.726-7.726 0-4.268 3.459-7.726 7.726-7.726h39.384c4.268 0 7.726 3.459 7.726 7.726 0 4.268-3.459 7.726-7.726 7.726z" fill="#eaf6ff"/></g><g><path d="m354.46 204.65c-25.976 0-47.11-21.134-47.11-47.11 0-4.268 3.459-7.726 7.726-7.726 4.268 0 7.726 3.459 7.726 7.726 0 17.456 14.201 31.657 31.657 31.657 4.268 0 7.726 3.459 7.726 7.726.001 4.268-3.458 7.727-7.725 7.727z" fill="#eaf6ff"/></g><g><path d="m512 307.344v15.453h-39.384c-4.275 0-7.726-3.451-7.726-7.726 0-4.265 3.451-7.726 7.726-7.726h39.384z" fill="#eaf6ff"/></g><g><path d="m433.227 322.802h-39.383c-4.268 0-7.726-3.459-7.726-7.726 0-4.268 3.459-7.726 7.726-7.726h39.383c4.268 0 7.726 3.459 7.726 7.726.001 4.267-3.458 7.726-7.726 7.726z" fill="#eaf6ff"/></g><g><path d="m315.077 362.186c-4.268 0-7.726-3.459-7.726-7.726 0-25.976 21.134-47.11 47.11-47.11 4.268 0 7.726 3.459 7.726 7.726 0 4.268-3.459 7.726-7.726 7.726-17.456 0-31.657 14.201-31.657 31.657-.001 4.268-3.46 7.727-7.727 7.727z" fill="#eaf6ff"/></g></g><g><g><path d="m48.769 256c0 4.265-3.451 7.726-7.726 7.726h-39.374c-.577 0-1.133-.062-1.669-.185v-15.082c.536-.124 1.092-.185 1.669-.185h39.374c4.275 0 7.726 3.461 7.726 7.726z" fill="#eaf6ff"/></g><g><path d="m119.816 263.726h-39.384c-4.268 0-7.726-3.459-7.726-7.726 0-4.268 3.459-7.726 7.726-7.726h39.384c4.268 0 7.726 3.459 7.726 7.726 0 4.268-3.458 7.726-7.726 7.726z" fill="#eaf6ff"/></g><g><path d="m48.769 196.919c0 4.275-3.451 7.726-7.726 7.726h-39.374c-.577 0-1.133-.062-1.669-.185v-15.082c.536-.124 1.092-.186 1.669-.186h39.374c4.275.001 7.726 3.462 7.726 7.727z" fill="#eaf6ff"/></g><g><path d="m119.816 204.651-39.384-.001c-4.268 0-7.726-3.46-7.726-7.726 0-4.267 3.46-7.726 7.726-7.726l39.384.001c4.268 0 7.726 3.46 7.726 7.726s-3.46 7.726-7.726 7.726z" fill="#eaf6ff"/></g><g><path d="m198.583 263.726h-39.384c-4.268 0-7.726-3.459-7.726-7.726 0-4.268 3.459-7.726 7.726-7.726h39.384c4.268 0 7.726 3.459 7.726 7.726.001 4.268-3.458 7.726-7.726 7.726z" fill="#eaf6ff"/></g><g><path d="m159.199 204.651c-4.268 0-7.726-3.459-7.726-7.726 0-4.268 3.459-7.726 7.726-7.726 17.457 0 31.658-14.201 31.658-31.658 0-4.268 3.459-7.726 7.726-7.726 4.268 0 7.726 3.459 7.726 7.726.001 25.976-21.133 47.11-47.11 47.11z" fill="#eaf6ff"/></g><g><path d="m48.769 315.07c0 4.275-3.451 7.726-7.726 7.726h-39.374c-.577 0-1.133-.062-1.669-.185v-15.081c.536-.124 1.092-.186 1.669-.186h39.374c4.275 0 7.726 3.462 7.726 7.726z" fill="#eaf6ff"/></g><g><path d="m119.816 322.803-39.384-.001c-4.268 0-7.726-3.46-7.726-7.726s3.46-7.726 7.726-7.726l39.384.001c4.268 0 7.726 3.46 7.726 7.726s-3.46 7.726-7.726 7.726z" fill="#eaf6ff"/></g><g><path d="m198.583 362.186c-4.268 0-7.726-3.459-7.726-7.726 0-17.456-14.201-31.657-31.658-31.657-4.268 0-7.726-3.459-7.726-7.726 0-4.268 3.459-7.726 7.726-7.726 25.977 0 47.111 21.134 47.111 47.11 0 4.266-3.459 7.725-7.727 7.725z" fill="#eaf6ff"/></g></g><g><path d="m264.561.835v39.384c0 4.265-3.462 7.726-7.726 7.726-4.275 0-7.726-3.462-7.726-7.726v-39.384c0-.278.01-.556.052-.835h15.35c.04.278.05.556.05.835z" fill="#eaf6ff"/></g><g><path d="m256.83 126.712c-4.268 0-7.726-3.459-7.726-7.726v-39.384c0-4.268 3.459-7.726 7.726-7.726 4.268 0 7.726 3.459 7.726 7.726v39.384c0 4.268-3.458 7.726-7.726 7.726z" fill="#eaf6ff"/></g><g><path d="m205.48.835v39.384c0 4.265-3.461 7.726-7.726 7.726s-7.726-3.462-7.726-7.726v-39.384c0-.278.01-.556.051-.835h15.35c.041.278.051.556.051.835z" fill="#eaf6ff"/></g><g><path d="m197.753 126.712c-4.268 0-7.726-3.459-7.726-7.726v-39.384c0-4.268 3.459-7.726 7.726-7.726 4.268 0 7.726 3.459 7.726 7.726v39.384c.001 4.268-3.458 7.726-7.726 7.726z" fill="#eaf6ff"/></g><g><path d="m256.83 205.48c-4.268 0-7.726-3.459-7.726-7.726v-39.384c0-4.268 3.459-7.726 7.726-7.726 4.268 0 7.726 3.459 7.726 7.726v39.383c0 4.268-3.458 7.727-7.726 7.727z" fill="#eaf6ff"/></g><g><path d="m323.631.835v39.384c0 4.265-3.461 7.726-7.726 7.726s-7.726-3.462-7.726-7.726v-39.384c0-.278.01-.556.052-.835h15.35c.04.278.05.556.05.835z" fill="#eaf6ff"/></g><g><path d="m315.905 126.712c-4.268 0-7.726-3.459-7.726-7.726v-39.384c0-4.268 3.459-7.726 7.726-7.726s7.726 3.459 7.726 7.726v39.384c.001 4.268-3.458 7.726-7.726 7.726z" fill="#eaf6ff"/></g><g><path d="m264.561 471.782v39.384c0 .278-.01.556-.052.835h-15.35c-.041-.278-.052-.556-.052-.835v-39.384c0-4.265 3.451-7.726 7.726-7.726 4.266-.001 7.728 3.461 7.728 7.726z" fill="#eaf6ff"/></g><g><path d="m256.83 440.125c-4.268 0-7.726-3.459-7.726-7.726v-39.384c0-4.268 3.459-7.726 7.726-7.726 4.268 0 7.726 3.459 7.726 7.726v39.384c0 4.267-3.458 7.726-7.726 7.726z" fill="#eaf6ff"/></g><g><path d="m205.48 471.782v39.384c0 .278-.01.556-.052.835h-15.35c-.041-.278-.051-.556-.051-.835v-39.384c0-4.265 3.461-7.726 7.726-7.726 4.265-.001 7.727 3.461 7.727 7.726z" fill="#eaf6ff"/></g><g><path d="m197.753 440.125c-4.268 0-7.726-3.459-7.726-7.726v-39.384c0-4.268 3.459-7.726 7.726-7.726 4.268 0 7.726 3.459 7.726 7.726v39.384c.001 4.267-3.458 7.726-7.726 7.726z" fill="#eaf6ff"/></g><g><path d="m256.83 361.356c-4.268 0-7.726-3.459-7.726-7.726v-39.383c0-4.268 3.459-7.726 7.726-7.726 4.268 0 7.726 3.459 7.726 7.726v39.383c0 4.267-3.458 7.726-7.726 7.726z" fill="#eaf6ff"/></g><g><path d="m323.631 471.782v39.384c0 .278-.01.556-.051.835h-15.35c-.041-.278-.052-.556-.052-.835v-39.384c0-4.265 3.462-7.726 7.726-7.726 4.266-.001 7.727 3.461 7.727 7.726z" fill="#eaf6ff"/></g><g><path d="m315.905 440.125c-4.268 0-7.726-3.459-7.726-7.726v-39.384c0-4.268 3.459-7.726 7.726-7.726s7.726 3.459 7.726 7.726v39.384c.001 4.267-3.458 7.726-7.726 7.726z" fill="#eaf6ff"/></g><g><path d="m315.905 361.356c-4.268 0-7.726-3.459-7.726-7.726 0-25.976 21.134-47.11 47.111-47.11 4.268 0 7.726 3.459 7.726 7.726 0 4.268-3.459 7.726-7.726 7.726-17.457 0-31.658 14.201-31.658 31.657 0 4.268-3.459 7.727-7.727 7.727z" fill="#eaf6ff"/></g></g></svg>